<?xml version="1.0" encoding="utf-8"?>
<!-- Generator: Adobe Illustrator 16.0.4, SVG Export Plug-In . SVG Version: 6.00 Build 0)  -->
<!DOCTYPE svg PUBLIC "-//W3C//DTD SVG 1.1//EN" "http://www.w3.org/Graphics/SVG/1.1/DTD/svg11.dtd">
<svg version="1.1" id="Layer_1" xmlns="http://www.w3.org/2000/svg" xmlns:xlink="http://www.w3.org/1999/xlink" x="0px" y="0px"
	 width="1049.933px" height="660.983px" viewBox="0 0 1049.933 660.983" enable-background="new 0 0 1049.933 660.983"
	 xml:space="preserve">
<g id="Color_01_1_">
	<polygon fill="#05CC47" points="845.141,11.121 845.141,0.002 845.136,0.002 834.021,0.002 832.914,1.123 827.668,11.117 
		826.018,12.232 807.295,12.232 807.295,27.498 817.589,27.498 818.505,28.609 807.295,50.029 807.295,61.145 807.299,61.145 
		818.411,61.145 819.521,60.027 824.767,50.029 826.417,48.916 845.141,48.916 845.141,33.65 834.847,33.65 833.931,32.533 	"/>
	<g>
		<path fill="#F3F3F3" d="M867.167,33.65L852.78,61.145h8.539l2.086-4h9.641l0.953,4h8.539l-6.58-27.494H867.167z M866.859,50.539
			l3.159-6.029l1.457,6.029H866.859z"/>
		<path fill="#F3F3F3" d="M907.392,43.611c0-6.314-4.27-9.961-10.273-9.961h-13.027v27.496h8.227v-8.02h2l1.635-0.004l3.98,8.023
			h8.538l-5.077-9.701C905.882,49.859,907.392,47.17,907.392,43.611z M895.964,46.504h-3.646v-5.559h3.646
			c2.223,0,3.067,1.111,3.067,2.803C899.031,45.391,898.187,46.504,895.964,46.504z"/>
		<polygon fill="#F3F3F3" points="908.608,33.65 908.608,40.941 916.38,40.941 916.38,61.146 921.062,61.146 924.599,54.383 
			924.599,40.941 931.646,40.941 935.458,33.65 		"/>
	</g>
	<g>
		<rect x="954.687" y="0.002" fill="#F3F3F3" width="8.216" height="27.496"/>
		<path fill="#F3F3F3" d="M884.794,0.018l-3.692,7.047h2.268c4.048,0,6.61,2.588,6.61,6.684c0,4.043-2.562,6.631-6.61,6.631h-2.563
			V7.629l-7.947,15.174v4.688h11.059c8.912,0,14.148-5.371,14.148-13.742C898.065,5.652,893.171,0.361,884.794,0.018z"/>
		<polygon fill="#F3F3F3" points="900.239,27.498 921.226,27.498 921.226,20.209 908.456,20.209 908.456,17.238 920.196,17.238 
			920.196,10.262 908.456,10.262 908.456,7.289 921.226,7.289 921.226,0.002 900.239,0.002 		"/>
		<polygon fill="#F3F3F3" points="935.834,16.641 931.853,0.002 923.324,0.002 929.906,27.494 938.683,27.494 953.082,0.002 
			944.543,0.002 		"/>
		<polygon fill="#F3F3F3" points="1023.085,0 1023.085,7.289 1030.856,7.289 1030.856,27.498 1035.54,27.498 1039.075,20.732 
			1039.075,7.289 1046.122,7.289 1049.933,0 		"/>
		<path fill="#F3F3F3" d="M978.899,0.002l-14.391,27.492h8.525l2.094-4.008h9.631l0.957,4.008l8.525,0.004l-6.58-27.496H978.899z
			 M978.581,16.889l3.152-6.021l1.458,6.021H978.581z"/>
		<polygon fill="#F3F3F3" points="1013.109,13.027 1003.905,0.002 995.8,0.002 995.8,27.498 1004.017,27.498 1004.017,13.533 
			1014.205,27.498 1021.324,27.498 1021.324,0.002 1013.109,0.002 		"/>
	</g>
</g>
<g id="Color_01_on_black_5_">
	<polygon fill="#05CC47" points="603.672,469.545 603.672,458.426 603.668,458.426 592.556,458.426 591.444,459.545 
		586.198,469.541 584.55,470.654 565.827,470.654 565.827,485.922 576.12,485.922 577.036,487.031 565.827,508.449 565.827,519.568 
		565.831,519.568 576.942,519.568 578.054,518.447 583.3,508.451 584.949,507.34 603.672,507.34 603.672,492.074 593.38,492.074 
		592.462,490.955 	"/>
	<path fill="#F3F3F3" d="M704.539,458.426h8.536l-14.4,27.492h-8.773l-6.583-27.492h8.528l3.984,16.637L704.539,458.426z
		 M660.235,485.918h20.984v-7.287h-12.771v-2.973h11.741v-6.973h-11.741v-2.973h12.771v-7.287h-20.984V485.918z M644.788,458.439
		l-3.693,7.049h2.268c4.049,0,6.611,2.586,6.611,6.682c0,4.045-2.562,6.633-6.611,6.633h-2.562v-12.75l-7.948,15.174v4.689h11.059
		c8.911,0,14.15-5.373,14.15-13.746C658.062,464.072,653.163,458.783,644.788,458.439z M687.341,492.074v7.287h7.77v20.207h4.686
		l3.535-6.762v-13.445h7.048l3.812-7.287H687.341z M677.362,505.098l-9.203-13.023h-8.104v27.494h8.216v-13.963l10.188,13.963h7.12
		v-27.494h-8.217V505.098z M651.915,492.074l6.581,27.494h-8.526l-0.955-4.006h-9.631l-2.096,4.006h-8.522l14.391-27.494H651.915z
		 M647.445,508.961l-1.456-6.025l-3.153,6.025H647.445z M618.94,519.568h8.217v-27.494h-8.217V519.568z M618.337,525.721
		l6.58,27.494h-8.538l-0.954-4.002h-9.639l-2.089,4.002h-8.539l14.388-27.494H618.337z M613.854,542.605l-1.456-6.029l-3.159,6.029
		H613.854z M645.774,543.516l5.076,9.701h-8.54l-3.979-8.023l-1.635,0.006h-2.001v8.018h-8.226v-27.496h13.028
		c6.003,0,10.272,3.646,10.272,9.959C649.771,539.236,648.262,541.928,645.774,543.516z M641.408,535.814
		c0-1.689-0.844-2.799-3.065-2.799h-3.647v5.557h3.647C640.564,538.572,641.408,537.463,641.408,535.814z M650.987,525.721v7.287
		h7.773v20.209h4.682l3.535-6.766v-13.443h7.048l3.812-7.287H650.987z"/>
</g>
<g id="Color_01_x5F_on_x5F_black_1_">
	<polygon fill="#05CC47" points="527.153,637.275 527.153,632.273 527.15,632.273 522.153,632.273 521.655,632.777 519.297,637.275 
		518.556,637.775 510.138,637.775 510.138,644.639 514.766,644.639 515.178,645.137 510.138,654.768 510.138,659.764 
		510.14,659.764 515.135,659.764 515.635,659.26 517.994,654.768 518.734,654.266 527.153,654.266 527.153,647.402 522.523,647.402 
		522.111,646.898 	"/>
	<path fill="#F3F3F3" d="M735.78,632.273l-14.389,27.496h8.537l2.088-4.002l9.642-0.002l0.952,4.004h8.537l-6.579-27.496H735.78z
		 M735.472,649.16l3.158-6.029l1.457,6.029H735.472z M776.003,642.234c0-6.312-4.27-9.961-10.273-9.961h-13.025v27.498h8.223v-8.021
		h2.002l1.634-0.006l3.981,8.027h8.539l-5.078-9.701C774.496,648.482,776.003,645.793,776.003,642.234z M764.575,645.127h-3.648
		v-5.559h3.648c2.223,0,3.066,1.113,3.066,2.799C767.642,644.016,766.798,645.127,764.575,645.127z M804.071,632.273l-3.812,7.287
		h-7.049v13.449l-3.538,6.762h-4.682v-20.211h-7.771v-7.287H804.071z M622.71,632.273h8.217v27.496h-8.217V632.273z M566.09,646.02
		c0,8.371-5.238,13.744-14.149,13.744H540.88v-4.689l7.95-15.174v12.752h2.563c4.047,0,6.609-2.586,6.609-6.633
		c0-4.096-2.562-6.68-6.609-6.68h-2.27l3.693-7.051C561.193,632.633,566.09,637.92,566.09,646.02z M568.265,632.273h20.984v7.289
		h-12.77v2.971h11.74v6.977h-11.74v2.967h12.77v7.293h-20.984V632.273z M612.567,632.273h8.539l-14.401,27.492h-8.774l-6.583-27.492
		h8.529l3.981,16.641L612.567,632.273z M717.959,632.273l-3.81,7.287h-7.051v13.445l-3.536,6.764h-4.683v-20.209h-7.77v-7.287
		H717.959z M646.926,632.273l-14.392,27.492h8.522l2.097-4.002h9.63l0.956,4.002l8.525,0.004l-6.58-27.496H646.926z
		 M646.605,649.162l3.154-6.021l1.456,6.021H646.605z M681.132,632.273h8.217v27.496h-7.119l-10.189-13.965v13.965h-8.214v-27.496
		h8.103l9.203,13.025V632.273z"/>
</g>
<g id="Color_01_on_black_4_">
	<polygon fill="#05CC47" points="860.445,144.311 860.445,133.195 860.44,133.195 849.327,133.195 848.218,134.312 842.974,144.311 
		841.324,145.424 822.601,145.424 822.601,160.691 832.894,160.691 833.81,161.799 822.601,183.217 822.601,194.336 
		822.605,194.336 833.718,194.336 834.827,193.219 840.072,183.219 841.722,182.109 860.445,182.109 860.445,166.84 850.152,166.84 
		849.237,165.725 	"/>
	<g>
		<polygon fill="#F3F3F3" points="770.484,166.844 770.484,174.133 778.254,174.133 778.254,194.338 782.937,194.338 
			786.474,187.574 786.474,174.133 793.521,174.133 797.333,166.844 		"/>
		<path fill="#F3F3F3" d="M729.042,166.844l-14.388,27.492h8.538l2.086-4h9.643l0.953,4h8.536l-6.58-27.492H729.042z
			 M728.733,183.73l3.157-6.031l1.46,6.031H728.733z"/>
		<path fill="#F3F3F3" d="M769.268,176.805c0-6.314-4.271-9.961-10.274-9.961h-13.029v27.494h8.225v-8.016h2.003l1.633-0.008
			l3.983,8.023h8.535l-5.076-9.699C767.759,183.051,769.268,180.363,769.268,176.805z M757.837,179.695h-3.648v-5.559h3.648
			c2.223,0,3.066,1.111,3.066,2.803C760.903,178.584,760.06,179.695,757.837,179.695z"/>
	</g>
	<g>
		<polygon fill="#F3F3F3" points="665.268,160.688 686.253,160.688 686.253,153.404 673.481,153.404 673.481,150.43 685.224,150.43 
			685.224,143.451 673.481,143.451 673.481,140.482 686.253,140.482 686.253,133.195 665.268,133.195 		"/>
		<rect x="719.714" y="133.195" fill="#F3F3F3" width="8.216" height="27.492"/>
		<polygon fill="#F3F3F3" points="700.862,149.832 696.88,133.195 688.351,133.195 694.936,160.686 703.708,160.686 
			718.108,133.195 709.571,133.195 		"/>
		<path fill="#F3F3F3" d="M649.821,133.209l-3.693,7.049h2.27c4.047,0,6.608,2.586,6.608,6.68c0,4.045-2.562,6.631-6.608,6.631
			h-2.564V140.82l-7.948,15.174v4.688h11.059c8.913,0,14.15-5.373,14.15-13.744C663.094,138.844,658.196,133.553,649.821,133.209z"
			/>
		<polygon fill="#F3F3F3" points="788.113,133.193 788.113,140.48 795.885,140.48 795.885,160.688 800.567,160.688 804.103,153.928 
			804.103,140.48 811.149,140.48 814.962,133.193 		"/>
		<path fill="#F3F3F3" d="M743.929,133.195l-14.393,27.49h8.525l2.094-4.002h9.633l0.955,4.002l8.525,0.002l-6.579-27.492H743.929z
			 M743.608,150.082l3.154-6.025l1.457,6.025H743.608z"/>
		<polygon fill="#F3F3F3" points="778.138,146.217 768.934,133.195 760.829,133.195 760.829,160.688 769.045,160.688 
			769.045,146.723 779.233,160.688 786.352,160.688 786.352,133.195 778.138,133.195 		"/>
	</g>
</g>
<g id="Color_01_on_black_3_">
	<polygon fill="#05CC47" points="757.148,275.627 757.148,264.508 757.146,264.508 746.032,264.508 744.921,265.631 
		739.675,275.627 738.026,276.74 719.305,276.74 719.305,292.008 729.599,292.008 730.513,293.115 719.305,314.537 719.305,325.654 
		719.308,325.654 730.423,325.654 731.53,324.535 736.777,314.537 738.427,313.426 757.148,313.426 757.148,298.158 
		746.856,298.158 745.94,297.041 	"/>
	<path fill="#F3F3F3" d="M692.631,365.459l-14.388,27.492h8.539l2.086-4.002h9.641l0.954,4.002h8.536l-6.579-27.492H692.631z
		 M692.323,382.346l3.159-6.031l1.456,6.031H692.323z M732.854,375.418c0-6.312-4.268-9.959-10.272-9.959h-13.027v27.496h8.224
		v-8.02h2.003l1.633-0.006l3.981,8.025h8.539l-5.078-9.701C731.347,381.666,732.854,378.977,732.854,375.418z M721.428,378.312
		h-3.649v-5.557h3.649c2.222,0,3.065,1.109,3.065,2.799C724.493,377.203,723.649,378.312,721.428,378.312z M760.922,365.459
		l-3.812,7.289h-7.047v13.441l-3.537,6.766h-4.684v-20.207h-7.771v-7.289H760.922z M780.148,331.811h8.218v27.492h-8.218V331.811z
		 M723.529,345.557c0,8.367-5.236,13.742-14.15,13.742h-11.058v-4.688l7.949-15.178v12.752h2.562c4.048,0,6.61-2.59,6.61-6.629
		c0-4.098-2.562-6.682-6.61-6.682h-2.267l3.689-7.053C718.633,332.17,723.529,337.453,723.529,345.557z M725.702,331.811h20.986
		v7.287h-12.77v2.969h11.74v6.979h-11.74v2.971h12.77v7.287h-20.986V331.811z M770.007,331.811h8.538l-14.399,27.49h-8.775
		l-6.582-27.49h8.527l3.982,16.637L770.007,331.811z M875.399,331.807l-3.812,7.289h-7.049v13.447l-3.535,6.762h-4.683v-20.209
		h-7.77v-7.289H875.399z M804.366,331.811l-14.393,27.49h8.523l2.095-4.004h9.632l0.957,4.004l8.523,0.002l-6.58-27.492H804.366z
		 M804.044,348.695l3.156-6.021l1.455,6.021H804.044z M838.572,331.811h8.215v27.492h-7.118L829.48,345.34v13.963h-8.214v-27.492
		h8.102l9.204,13.023V331.811z"/>
</g>
<line fill="none" stroke="#989898" stroke-width="0.4" stroke-miterlimit="10" stroke-dasharray="2" x1="736.348" y1="3.023" x2="0" y2="3.023"/>
<line fill="none" stroke="#989898" stroke-width="0.4" stroke-miterlimit="10" stroke-dasharray="2" x1="561.665" y1="135.277" x2="0" y2="135.277"/>
<line fill="none" stroke="#989898" stroke-width="0.4" stroke-miterlimit="10" stroke-dasharray="2" x1="430.403" y1="632.273" x2="0" y2="632.273"/>
<line fill="none" stroke="#989898" stroke-width="0.4" stroke-miterlimit="10" stroke-dasharray="2" x1="488.797" y1="461.449" x2="0" y2="461.449"/>
<line fill="none" stroke="#989898" stroke-width="0.4" stroke-miterlimit="10" stroke-dasharray="2" x1="623.151" y1="279.805" x2="0" y2="279.805"/>
<g>
	<path fill="#585857" d="M5.64,14.534h3.38v9.974h5.774v2.918H5.64V14.534z"/>
	<path fill="#585857" d="M26.617,14.534v2.897h-5.9v2.016h5.396v2.834h-5.396v2.227h5.9v2.918H17.4V14.534H26.617z"/>
	<path fill="#585857" d="M29.349,27.426V14.534h9.07v2.919h-5.732v2.561h5.27v2.855h-5.27v4.557H29.349z"/>
	<path fill="#585857" d="M40.521,14.534h11.338v2.897H47.87v9.994h-3.38v-9.994h-3.968V14.534z"/>
	<path fill="#585857" d="M67.084,14.534l4.913,12.892h-3.422l-0.924-2.498h-4.682l-0.903,2.498h-3.338l4.913-12.892H67.084z
		 M63.998,22.156h2.646l-1.323-3.633L63.998,22.156z"/>
	<path fill="#585857" d="M74.163,14.534h3.38v9.974h5.774v2.918h-9.154V14.534z"/>
	<path fill="#585857" d="M89.303,27.426h-3.38V14.534h3.38V27.426z"/>
	<path fill="#585857" d="M98.605,23.059v-2.52h5.333v1.281c0,3.568-2.352,5.815-5.774,5.815c-3.737,0-6.383-2.729-6.383-6.655
		c0-3.927,2.646-6.656,6.341-6.656c3.317,0,5.228,1.91,5.711,4.535h-3.443c-0.357-0.986-1.05-1.574-2.268-1.574
		c-1.869,0-2.939,1.553-2.939,3.695c0,2.204,1.134,3.695,2.981,3.695c1.281,0,2.121-0.631,2.436-1.617H98.605z"/>
	<path fill="#585857" d="M117.798,27.426h-2.729l-5.396-7.537v7.537h-3.254V14.534h3.149l4.976,7.097v-7.097h3.254V27.426z"/>
	<path fill="#585857" d="M129.999,14.534v2.897h-5.9v2.016h5.396v2.834h-5.396v2.227h5.9v2.918h-9.217V14.534H129.999z"/>
	<path fill="#585857" d="M132.73,14.534h4.871c4.052,0,6.509,2.52,6.509,6.446c0,3.926-2.457,6.445-6.509,6.445h-4.871V14.534z
		 M137.434,24.508c2.142,0,3.338-1.365,3.338-3.527c0-2.184-1.197-3.549-3.338-3.549h-1.386v7.076H137.434z"/>
</g>
<g>
	<path fill="#585857" d="M8.979,156.42v4.262H5.64V147.79h5.795c2.771,0,4.682,1.575,4.682,4.388c0,1.953-0.987,3.297-2.562,3.885
		l3.023,4.619h-3.737l-2.688-4.262H8.979z M8.979,153.732h2.1c1.197,0,1.743-0.609,1.743-1.555c0-0.944-0.546-1.553-1.743-1.553
		h-2.1V153.732z"/>
	<path fill="#585857" d="M22.125,160.682h-3.38V147.79h3.38V160.682z"/>
	<path fill="#585857" d="M31.427,156.314v-2.52h5.333v1.281c0,3.568-2.352,5.815-5.774,5.815c-3.737,0-6.383-2.729-6.383-6.655
		c0-3.927,2.646-6.656,6.341-6.656c3.317,0,5.228,1.91,5.711,4.535h-3.443c-0.357-0.986-1.05-1.574-2.268-1.574
		c-1.869,0-2.939,1.553-2.939,3.695c0,2.204,1.134,3.695,2.981,3.695c1.281,0,2.121-0.631,2.436-1.617H31.427z"/>
	<path fill="#585857" d="M50.976,147.79v12.892h-3.38v-5.102H42.62v5.102h-3.38V147.79h3.38v4.892h4.976v-4.892H50.976z"/>
	<path fill="#585857" d="M53.394,147.79h11.338v2.897h-3.989v9.994h-3.38v-9.994h-3.968V147.79z"/>
	<path fill="#585857" d="M79.957,147.79l4.913,12.892h-3.422l-0.924-2.498h-4.682l-0.903,2.498H71.6l4.913-12.892H79.957z
		 M76.87,155.412h2.646l-1.323-3.633L76.87,155.412z"/>
	<path fill="#585857" d="M87.035,147.79h3.38v9.974h5.774v2.918h-9.154V147.79z"/>
	<path fill="#585857" d="M102.175,160.682h-3.38V147.79h3.38V160.682z"/>
	<path fill="#585857" d="M111.478,156.314v-2.52h5.333v1.281c0,3.568-2.352,5.815-5.774,5.815c-3.737,0-6.383-2.729-6.383-6.655
		c0-3.927,2.646-6.656,6.341-6.656c3.317,0,5.228,1.91,5.711,4.535h-3.443c-0.357-0.986-1.05-1.574-2.268-1.574
		c-1.869,0-2.939,1.553-2.939,3.695c0,2.204,1.134,3.695,2.981,3.695c1.281,0,2.121-0.631,2.436-1.617H111.478z"/>
	<path fill="#585857" d="M130.67,160.682h-2.729l-5.396-7.537v7.537h-3.254V147.79h3.149l4.976,7.097v-7.097h3.254V160.682z"/>
	<path fill="#585857" d="M142.871,147.79v2.897h-5.9v2.016h5.396v2.834h-5.396v2.227h5.9v2.918h-9.217V147.79H142.871z"/>
	<path fill="#585857" d="M145.603,147.79h4.871c4.052,0,6.509,2.52,6.509,6.446c0,3.926-2.457,6.445-6.509,6.445h-4.871V147.79z
		 M150.306,157.764c2.142,0,3.338-1.365,3.338-3.527c0-2.184-1.197-3.549-3.338-3.549h-1.386v7.076H150.306z"/>
</g>
<g>
	<path fill="#585857" d="M9.629,304.421l-4.808-12.892h3.611l2.918,8.336l2.918-8.336h3.464l-4.808,12.892H9.629z"/>
	<path fill="#585857" d="M29.116,291.529v2.897h-5.9v2.016h5.396v2.835h-5.396v2.225h5.9v2.919h-9.217v-12.892H29.116z"/>
	<path fill="#585857" d="M35.187,300.158v4.263h-3.338v-12.892h5.795c2.771,0,4.682,1.574,4.682,4.389
		c0,1.952-0.987,3.296-2.562,3.884l3.023,4.619H39.05l-2.688-4.263H35.187z M35.187,297.471h2.1c1.197,0,1.743-0.608,1.743-1.553
		c0-0.945-0.546-1.555-1.743-1.555h-2.1V297.471z"/>
	<path fill="#585857" d="M44.259,291.529h11.338v2.897h-3.989v9.994h-3.38v-9.994h-3.968V291.529z"/>
	<path fill="#585857" d="M61.415,304.421h-3.38v-12.892h3.38V304.421z"/>
	<path fill="#585857" d="M70.087,291.319c3.212,0,5.102,1.911,5.564,4.535h-3.359c-0.336-0.944-1.029-1.575-2.205-1.575
		c-1.785,0-2.792,1.575-2.792,3.695c0,2.1,1.008,3.695,2.792,3.695c1.176,0,1.869-0.629,2.205-1.596h3.359
		c-0.462,2.646-2.352,4.557-5.564,4.557c-3.611,0-6.194-2.75-6.194-6.656C63.894,294.07,66.476,291.319,70.087,291.319z"/>
	<path fill="#585857" d="M85.145,291.529l4.913,12.892h-3.422l-0.924-2.499h-4.682l-0.903,2.499h-3.338l4.913-12.892H85.145z
		 M82.058,299.15h2.646l-1.323-3.632L82.058,299.15z"/>
	<path fill="#585857" d="M92.223,291.529h3.38v9.973h5.774v2.919h-9.154V291.529z"/>
</g>
<g>
	<path fill="#585857" d="M17.377,647.882v12.892h-3.38v-5.102H9.021v5.102H5.64v-12.892h3.38v4.892h4.976v-4.892H17.377z"/>
	<path fill="#585857" d="M26.114,660.983c-3.716,0-6.278-2.813-6.278-6.655c0-3.863,2.562-6.656,6.278-6.656
		c3.737,0,6.32,2.793,6.32,6.656C32.434,658.17,29.851,660.983,26.114,660.983z M26.114,650.633c-1.743,0-2.876,1.469-2.876,3.695
		c0,2.225,1.134,3.695,2.876,3.695s2.918-1.471,2.918-3.695C29.032,652.102,27.856,650.633,26.114,650.633z"/>
	<path fill="#585857" d="M38.231,656.512v4.262h-3.338v-12.892h5.795c2.771,0,4.682,1.575,4.682,4.388
		c0,1.953-0.987,3.297-2.562,3.885l3.023,4.619h-3.737l-2.688-4.262H38.231z M38.231,653.824h2.1c1.197,0,1.743-0.609,1.743-1.555
		c0-0.944-0.546-1.553-1.743-1.553h-2.1V653.824z"/>
	<path fill="#585857" d="M51.377,660.773h-3.38v-12.892h3.38V660.773z"/>
	<path fill="#585857" d="M64.458,660.773H54.107v-2.498l5.984-7.496H54.17v-2.897h10.225v2.478l-5.921,7.496h5.984V660.773z"/>
	<path fill="#585857" d="M72.607,660.983c-3.716,0-6.278-2.813-6.278-6.655c0-3.863,2.562-6.656,6.278-6.656
		c3.737,0,6.32,2.793,6.32,6.656C78.927,658.17,76.344,660.983,72.607,660.983z M72.607,650.633c-1.743,0-2.876,1.469-2.876,3.695
		c0,2.225,1.134,3.695,2.876,3.695s2.918-1.471,2.918-3.695C75.525,652.102,74.35,650.633,72.607,650.633z"/>
	<path fill="#585857" d="M92.766,660.773h-2.729l-5.396-7.537v7.537h-3.254v-12.892h3.149l4.976,7.097v-7.097h3.254V660.773z"/>
	<path fill="#585857" d="M95.204,647.882h11.338v2.897h-3.989v9.994h-3.38v-9.994h-3.968V647.882z"/>
	<path fill="#585857" d="M115.131,647.882l4.913,12.892h-3.422l-0.924-2.498h-4.682l-0.903,2.498h-3.338l4.913-12.892H115.131z
		 M112.045,655.504h2.646l-1.323-3.633L112.045,655.504z"/>
	<path fill="#585857" d="M122.209,647.882h3.38v9.974h5.774v2.918h-9.154V647.882z"/>
</g>
<g>
	<path fill="#585857" d="M11.33,473.986c3.212,0,5.102,1.91,5.564,4.535h-3.359c-0.336-0.945-1.029-1.574-2.205-1.574
		c-1.785,0-2.792,1.574-2.792,3.695c0,2.1,1.008,3.695,2.792,3.695c1.176,0,1.869-0.631,2.205-1.596h3.359
		c-0.462,2.645-2.352,4.556-5.564,4.556c-3.611,0-6.194-2.751-6.194-6.655C5.136,476.736,7.719,473.986,11.33,473.986z"/>
	<path fill="#585857" d="M28.57,474.196v2.897h-5.9v2.016h5.396v2.834H22.67v2.227h5.9v2.918h-9.218v-12.892H28.57z"/>
	<path fill="#585857" d="M42.682,487.088h-2.729l-5.396-7.537v7.537h-3.254v-12.892h3.149l4.976,7.097v-7.097h3.254V487.088z"/>
	<path fill="#585857" d="M45.12,474.196h11.338v2.897h-3.989v9.994h-3.38v-9.994H45.12V474.196z"/>
	<path fill="#585857" d="M68.113,474.196v2.897h-5.9v2.016h5.396v2.834h-5.396v2.227h5.9v2.918h-9.217v-12.892H68.113z"/>
	<path fill="#585857" d="M74.183,482.826v4.262h-3.338v-12.892h5.795c2.771,0,4.682,1.575,4.682,4.388
		c0,1.953-0.987,3.297-2.562,3.885l3.023,4.619h-3.737l-2.688-4.262H74.183z M74.183,480.139h2.1c1.197,0,1.743-0.609,1.743-1.555
		c0-0.944-0.546-1.553-1.743-1.553h-2.1V480.139z"/>
	<path fill="#585857" d="M93.166,474.196v2.897h-5.9v2.016h5.396v2.834h-5.396v2.227h5.9v2.918h-9.217v-12.892H93.166z"/>
	<path fill="#585857" d="M95.897,474.196h4.871c4.052,0,6.509,2.52,6.509,6.446c0,3.926-2.457,6.445-6.509,6.445h-4.871V474.196z
		 M100.6,484.17c2.142,0,3.338-1.365,3.338-3.527c0-2.184-1.197-3.549-3.338-3.549h-1.386v7.076H100.6z"/>
</g>
</svg>
