<?xml version="1.0" encoding="UTF-8" standalone="no"?>
<!-- Created with Inkscape (http://www.inkscape.org/) -->
<svg xmlns:rdf="http://www.w3.org/1999/02/22-rdf-syntax-ns#" xmlns="http://www.w3.org/2000/svg" height="256" width="256" version="1.1" xmlns:cc="http://creativecommons.org/ns#" xmlns:dc="http://purl.org/dc/elements/1.1/">
 <title>GNU/Linux Logo</title>
 <metadata>
  <rdf:RDF>
   <cc:Work rdf:about="">
    <dc:format>image/svg+xml</dc:format>
    <dc:type rdf:resource="http://purl.org/dc/dcmitype/StillImage"/>
    <dc:title>GNU/Linux Logo</dc:title>
    <dc:creator>
     <cc:Agent>
      <dc:title>Dablim</dc:title>
     </cc:Agent>
    </dc:creator>
    <dc:source>https://dablim.deviantart.com/art/GNU-Linux-Logo-390891444</dc:source>
    <dc:description>Part of Unity Dash Button logos: https://hexcube.deviantart.com/art/Unity-Dash-Button-logos-Ubuntu-14-04-and-12-04LTS-468721437</dc:description>
    <cc:license rdf:resource="http://creativecommons.org/licenses/by/3.0/"/>
   </cc:Work>
   <cc:License rdf:about="https://creativecommons.org/licenses/by/3.0/">
    <cc:permits rdf:resource="https://creativecommons.org/ns#Reproduction"/>
    <cc:permits rdf:resource="https://creativecommons.org/ns#Distribution"/>
    <cc:requires rdf:resource="https://creativecommons.org/ns#Notice"/>
    <cc:requires rdf:resource="https://creativecommons.org/ns#Attribution"/>
    <cc:permits rdf:resource="https://creativecommons.org/ns#DerivativeWorks"/>
   </cc:License>
  </rdf:RDF>
 </metadata>
 <circle cy="128" cx="128" r="124" fill="#fff"/>
 <path d="m121.78 252.9c-32.38-1.9-61.13-15-83.346-37.8-19.28-19.8-30.919-43.76-34.599-71.25-1.1128-8.3129-1.1128-23.506 0-31.819 3.6801-27.5 15.319-51.48 34.599-71.28 19.827-20.366 45.193-33.078 73.65-36.909 8.3341-1.122 23.505-1.122 31.839 0 36.821 4.9571 68.986 25.238 89.18 56.23 10.126 15.541 16.537 33.011 19.067 51.955 0.99828 7.4768 1.1211 22.888 0.23955 30.079-4.6212 37.697-24.712 70.007-56.497 90.86-14.837 9.734-33.71 16.682-51.491 18.957-6.089 0.7789-17.696 1.2876-22.636 0.9921zm30.594-17.588c5.9041-1.3143 13.09-3.6373 18.907-6.1119 4.7182-2.0073 15.122-7.5502 17.341-9.2389l1.1724-0.8922-1.2381-2.9409c-0.68091-1.6176-2.1589-4.975-3.2846-7.4609-2.3369-5.1613-3.2083-8.9642-2.7518-12.011 0.17407-1.1622 0.39305-2.113 0.4867-2.113 0.0936 0 0.96938 0.542 1.9462 1.2044 5.9694 4.0484 18.18 2.4083 27.011-3.6283 6.0637-4.1447 13.043-12.522 17.029-20.439 3.4715-6.8961 6.9821-19.64 8.4935-30.832 0.85124-6.303 0.7193-20.588-0.25474-27.593-3.3578-24.148-14.082-45.82-31.125-62.903-17.853-17.894-39.252-28.351-65.172-31.847-2.3258-0.31368-8.1465-0.57033-12.935-0.57033-4.7884 0-10.609 0.25665-12.935 0.57033-24.391 3.2896-45.669 13.212-62.436 29.115-3.8033 3.6073-3.6798 3.6342 1.4925 0.32463 23.613-15.109 45.392-22.153 63.285-20.466 14.498 1.3663 25.9 7.7267 35.229 19.652 5.6815 7.2627 6.3271 9.3456 7.4324 23.977 0.40843 5.4069 1.0798 10.949 1.492 12.317 1.3944 4.6256 6.8867 11.963 23.63 31.571 7.3415 8.5971 9.6766 12.187 8.4284 12.958-0.91076 0.56252-1.1504 0.49879-16.118-4.2868-26.509-8.4758-28.959-9.2335-33.581-10.386-8.2783-2.0645-22.739-3.9304-24.751-3.1937-0.61612 0.22556-2.578 1.646-4.3598 3.1566s-3.4604 2.7465-3.7304 2.7465c-0.81993 0-0.55547-1.397 0.75294-3.9774 0.68405-1.3491 1.2437-2.5721 1.2437-2.718 0-0.14581-0.78792-0.26511-1.7509-0.26511-1.632 0-1.8305 0.17738-2.9214 2.6102l-1.1704 2.6102-0.34681-1.4915c-0.80272-3.4523-1.1183-3.8001-3.1382-3.4581-4.9361 0.83573-10.519 5.2645-12.658 10.041-0.83829 1.872-1.0687 3.4043-1.1036 7.3378-0.02422 2.7345 0.13344 5.966 0.35036 7.1811 0.38152 2.1371 0.36399 2.1818-0.53667 1.3672-1.2896-1.1663-1.4421-1.0876-1.8227 0.93966-0.25995 1.3848-0.05383 2.3182 0.92524 4.1894l1.2597 2.4076-1.3413 0.44682c-1.2204 0.40652-1.3272 0.64184-1.185 2.6104 0.11116 1.5386 0.64654 2.8052 1.8532 4.3845 1.96 2.5652 2.0758 3.0722 0.70185 3.0722-1.6217 0-1.1509 0.7907 1.4726 2.4731 4.3324 2.7783 7.4852 8.841 11.429 21.978 5.1864 17.275 9.0459 23.988 15.764 27.418 4.6835 2.3914 6.2136 4.7942 8.1282 12.764 1.6375 6.8161 3.8904 8.1036 12.326 7.0445 5.0291-0.6315 11.809-2.8115 22.519-7.2412 7.8306-3.2386 10.593-3.605 11.539-1.5303 1.5868 3.4806-4.0019 8.0213-20.991 17.055-3.1467 1.6732-5.439 3.0478-5.094 3.0548 0.34493 0.01 2.6362-0.4345 5.0918-0.9811zm-27.998-45.928c-7.3931-2.7525-10.743-10.512-7.3812-17.097 2.2353-4.3788 6.1444-6.7913 11.004-6.7913 6.984 0 12.152 5.1646 12.152 12.144 0 3.5807-1.057 6.1778-3.5135 8.6328-3.1582 3.1561-8.5004 4.5119-12.261 3.1117zm9.9926-100.57c7.8299-4.815 7.9855-16.154 0.2886-21.032-5.9182-3.7508-13.598-1.9026-17.34 4.1729-1.3297 2.159-1.507 2.8902-1.507 6.2147 0 3.2224 0.19965 4.1072 1.3792 6.1126 2.5866 4.3975 6.5783 6.5016 11.707 6.1711 2.3484-0.15138 3.7227-0.56297 5.4725-1.639z"/>
</svg>
