<?xml version="1.0" encoding="UTF-8" standalone="no"?>
<svg xmlns:rdf="http://www.w3.org/1999/02/22-rdf-syntax-ns#" xmlns="http://www.w3.org/2000/svg" height="700" width="700" version="1.1" xmlns:cc="http://creativecommons.org/ns#" xmlns:xlink="http://www.w3.org/1999/xlink" xmlns:dc="http://purl.org/dc/elements/1.1/">
 <title>Tux Flat Logo</title>
 <metadata>
  <rdf:RDF>
   <cc:Work>
    <dc:format>image/svg+xml</dc:format>
    <dc:type rdf:resource="http://purl.org/dc/dcmitype/StillImage"/>
    <dc:title>Tux Flat Logo</dc:title>
    <dc:source>https://0rax0.deviantart.com/art/Linux-2014-Logo-457151181</dc:source>
    <dc:creator>
     <cc:Agent>
      <dc:title>Reda &quot;0rAX0&quot; Lazri</dc:title>
     </cc:Agent>
    </dc:creator>
    <dc:description>Optimized from 0rAX0&apos;s Linux 2014 Logo. Part of Unity Dash Button logos: https://hexcube.deviantart.com/art/Unity-Dash-Button-logos-Ubuntu-14-04-and-12-04LTS-468721437</dc:description>
    <cc:license rdf:resource="http://creativecommons.org/licenses/by-sa/3.0/"/>
   </cc:Work>
   <cc:License rdf:about="http://creativecommons.org/licenses/by-sa/3.0/">
    <cc:permits rdf:resource="http://creativecommons.org/ns#Reproduction"/>
    <cc:permits rdf:resource="http://creativecommons.org/ns#Distribution"/>
    <cc:requires rdf:resource="http://creativecommons.org/ns#Notice"/>
    <cc:requires rdf:resource="http://creativecommons.org/ns#Attribution"/>
    <cc:permits rdf:resource="http://creativecommons.org/ns#DerivativeWorks"/>
    <cc:requires rdf:resource="http://creativecommons.org/ns#ShareAlike"/>
   </cc:License>
  </rdf:RDF>
 </metadata>
 <circle id="roundel" cy="350" cx="350" r="342" fill="#cde"/>
 <path id="body" d="m350 28.88c-24.28 0-47.58 10.4-65.2 26.5-17.58 16.03-29.52 37.28-36.3 59.66-7.77 25.64-8.94 51.9-13.77 76.52-9.93 50.54-35.28 97.32-57.16 145.74-21.9 48.48-40.86 101.65-34.72 156.08 5.6 49.74 32.7 95.92 71.77 126.9 39.04 30.94 89.1 46.57 138.7 45.8 48.45-0.76 96.88-17.16 134.54-48 35.36-28.96 60.23-70.6 67.77-115.75l0.46 0.23 1-9.16c6.2-54.43-12.8-107.6-34.7-156.1-21.9-48.42-47.3-95.2-57.2-145.73-4.9-24.6-6-50.87-13.8-76.52-6.8-22.38-18.7-43.64-36.3-59.68-17.6-16.1-40.9-26.5-65.2-26.5z" fill="#3a5069"/>
 <path id="tummy" d="m497.54 523.42c-6.57 32.2-27.24 60.78-54.38 79.3-27.13 18.48-60.32 27.28-93.16 27.28-32.85 0-66.03-8.77-93.17-27.28-27.14-18.5-47.82-47.1-54.38-79.3-6.86-33.67 1.66-68.62 13.73-100.8 12.06-32.18 27.74-63.15 36.05-96.5 5.57-22.4 7.72-45.5 12.22-68.14 4.6-23.25 11.97-46.52 26.3-65.4 7.16-9.44 16.03-17.66 26.34-23.5 10.3-5.83 22.1-9.22 33.9-9.07 11.7 0.2 23.2 3.8 33.3 9.7 10.1 6 18.7 14.2 25.7 23.6 13.9 18.8 21 41.8 25.5 64.8 4.4 22.67 6.6 45.77 12.2 68.16 8.3 33.35 24 64.3 36.1 96.5 12 32.18 20.5 67.13 13.7 100.8z" fill="#fcf9ee"/>
 <path id="beak" d="m350.35 138c-27.84 0-53.2 11.36-70.35 29.42 17.16 18.08 42.5 36.58 70.35 36.58s52.5-18.5 69.65-36.57c-17.15-18.07-41.8-29.43-69.64-29.43z" fill="#fe7"/>
 <path id="upper-beak" d="m350.35 138.04c-38.4 1.33-56.75 16.84-70.35 29.5 22.54 0 29.12 18.46 70.35 18.46 41.22 0 48.48-18.47 69.65-18.47-13.95-16-42.2-30.44-69.65-29.5z" fill="#fff5a6"/>
 <g id="flubbers" transform="translate(-95.08 -420.22) scale(1.2546)" fill="#3a5069">
  <path id="flubber" d="m271.86 610.73s-18.34 36.17-18.34 62.72c0 26.46 22.3 37.47 15.27 48.76-12 19.2-61.5 5.1-57.3-52.1 3.7-50.2 11.6-47 11.6-47z"/>
  <use id="flubber-clone" height="100%" width="100%" xlink:href="#flubber" transform="matrix(-1 0 0 1 709.52 -.797)"/>
 </g>
 <g id="feet" transform="translate(-2.526 -5.09)">
  <path id="foot" d="m235.24 529.1c-1.8-0.04-3.76 0.2-5.9 0.82-18.12 5.14-14.77 22.5-17.92 34.14-2.3 8.47-31.73 2.24-30.88 13.9a202.38 204.5 0 0 0 102.03 77.13c26.5-23.7 21.5-80.7 13.8-108.3-4.16-15-28.5 9.7-35.85 3.3-7.4-6.5-12.66-20.8-25.3-21.1z" fill="#fe7"/>
  <use id="foot-clone" height="100%" width="100%" xlink:href="#foot" transform="matrix(-1 0 0 1 705.05 0)"/>
 </g>
</svg>
