<?xml version="1.0" encoding="UTF-8" standalone="no"?>
<!-- Created with Inkscape (http://www.inkscape.org/) -->
<svg xmlns:rdf="http://www.w3.org/1999/02/22-rdf-syntax-ns#" xmlns="http://www.w3.org/2000/svg" height="450" width="450" version="1.1" xmlns:cc="http://creativecommons.org/ns#" xmlns:dc="http://purl.org/dc/elements/1.1/" viewBox="0 0 450.00001 450.00001">
 <title>Ubuntu Touch Logo</title>
 <metadata>
  <rdf:RDF>
   <cc:Work rdf:about="">
    <dc:format>image/svg+xml</dc:format>
    <dc:type rdf:resource="http://purl.org/dc/dcmitype/StillImage"/>
    <dc:title>Ubuntu Touch Logo</dc:title>
    <dc:source>https://design.ubuntu.com/wp-content/uploads/logo-ubuntu_cof-orange-hex.svg</dc:source>
    <dc:creator>
     <cc:Agent>
      <dc:title>HEXcube</dc:title>
     </cc:Agent>
    </dc:creator>
    <dc:description>Part of Unity Dash Button logos: https://deviantart.com/HEXcube/art/Unity-Dash-Button-logos-Ubuntu-14-04-and-12-04LTS-468721437</dc:description>
    <cc:license rdf:resource="https://creativecommons.org/licenses/by/4.0/"/>
   </cc:Work>
   <cc:License rdf:about="https://creativecommons.org/licenses/by/4.0/">
    <cc:permits rdf:resource="https://creativecommons.org/ns#Reproduction"/>
    <cc:permits rdf:resource="https://creativecommons.org/ns#Distribution"/>
    <cc:requires rdf:resource="https://creativecommons.org/ns#Notice"/>
    <cc:requires rdf:resource="https://creativecommons.org/ns#Attribution"/>
    <cc:permits rdf:resource="https://creativecommons.org/ns#DerivativeWorks"/>
   </cc:License>
  </rdf:RDF>
 </metadata>
 <g transform="translate(0 -602.36)">
  <rect ry="50" height="410" width="450" y="622.36" x="0" fill="#dd4814"/>
  <path d="m225 685.63c-78.277 0-141.73 63.455-141.73 141.73 0 78.274 63.455 141.73 141.73 141.73 78.277 0 141.73-63.457 141.73-141.73 0-78.279-63.457-141.73-141.73-141.73zm48.699 39.352c3.0494 0.0791 6.1214 0.89875 8.9492 2.5312 9.051 5.226 12.15 16.795 6.9238 25.846-5.223 9.047-16.792 12.149-25.842 6.9219-9.048-5.223-12.148-16.793-6.9238-25.84 3.5929-6.2226 10.184-9.6331 16.893-9.459zm-48.695 20.178c7.609 0 14.969 1.0552 21.961 2.9902 1.236 7.601 5.7494 14.604 12.941 18.756 7.183 4.148 15.494 4.5598 22.688 1.8418 13.993 13.757 23.097 32.476 24.424 53.32l-26.967 0.39258c-2.483-28.232-26.17-50.373-55.047-50.373-8.321 0-16.208 1.8515-23.285 5.1445l-13.145-23.561c10.982-5.44 23.344-8.5117 36.43-8.5117zm-45.605 13.809 13.834 23.174c-14.211 10.002-23.504 26.52-23.504 45.221 0 18.704 9.2929 35.221 23.504 45.221l-13.836 23.176c-16.56-11.063-28.878-27.977-33.994-47.789 5.978-4.871 9.7969-12.29 9.7969-20.605 0-8.317-3.8199-15.735-9.7969-20.607 5.117-19.81 17.436-36.725 33.996-47.789zm-50.771 49.475c10.45 0 18.92 8.4698 18.92 18.924 0 10.449-8.4709 18.92-18.92 18.92-10.453 0-18.924-8.4709-18.924-18.92 0-10.453 8.4708-18.924 18.924-18.924zm151.42 23.824 26.969 0.39258c-1.325 20.844-10.43 39.562-24.422 53.32-7.194-2.719-15.504-2.3062-22.688 1.8398-7.193 4.155-11.707 11.159-12.943 18.76-6.993 1.935-14.352 2.9902-21.961 2.9902-13.086 0-25.451-3.0737-36.434-8.5117l13.148-23.562c7.078 3.293 14.963 5.1426 23.285 5.1426 28.877 0 52.564-22.135 55.045-50.371zm-7.3652 59.646c6.7085-0.17408 13.299 3.2353 16.891 9.4551 5.225 9.05 2.1242 20.618-6.9238 25.842-9.051 5.225-20.618 2.1252-25.844-6.9258-5.223-9.047-2.1252-20.615 6.9258-25.84 2.8275-1.6325 5.9019-2.4521 8.9512-2.5312z" fill="#fff"/>
 </g>
</svg>
