<?xml version="1.0" encoding="UTF-8" standalone="no"?>
<!-- Created with Inkscape (http://www.inkscape.org/) -->
<svg xmlns:rdf="http://www.w3.org/1999/02/22-rdf-syntax-ns#" xmlns="http://www.w3.org/2000/svg" height="285" width="285" version="1.1" xmlns:cc="http://creativecommons.org/ns#" xmlns:dc="http://purl.org/dc/elements/1.1/" viewBox="0 0 285 285">
 <title>Ubuntu Logo White</title>
 <metadata>
  <rdf:RDF>
   <cc:Work rdf:about="">
    <dc:format>image/svg+xml</dc:format>
    <dc:type rdf:resource="http://purl.org/dc/dcmitype/StillImage"/>
    <dc:title>Ubuntu Logo White</dc:title>
    <dc:source>https://design.ubuntu.com/wp-content/uploads/logo-ubuntu_cof-orange-hex.svg</dc:source>
    <dc:description>Part of Unity Dash Button logos: https://deviantart.com/HEXcube/art/Unity-Dash-Button-logos-Ubuntu-14-04-and-12-04LTS-468721437</dc:description>
   </cc:Work>
  </rdf:RDF>
 </metadata>
 <g transform="translate(0 -767.36)">
  <path fill="#fff" d="m142.6 768.23c-78.281 0-141.73 63.456-141.73 141.73-0.0048 78.27 63.451 141.73 141.73 141.73 78.27 0 141.73-63.46 141.73-141.73 0-78.279-63.46-141.73-141.73-141.73zm48.69 39.352c3.05 0.079 6.13 0.899 8.95 2.531 9.06 5.226 12.15 16.795 6.93 25.846-5.23 9.047-16.79 12.149-25.84 6.922-9.05-5.223-12.15-16.793-6.93-25.84 3.6-6.223 10.19-9.633 16.89-9.459zm-48.69 20.178c7.61 0 14.97 1.055 21.96 2.99 1.24 7.601 5.75 14.604 12.94 18.756 7.18 4.148 15.5 4.559 22.69 1.841 13.99 13.757 23.1 32.478 24.42 53.318l-26.96 0.4c-2.49-28.24-26.17-50.378-55.05-50.378-8.32 0-16.21 1.852-23.29 5.145l-13.14-23.561c10.98-5.44 23.34-8.511 36.43-8.511zm-45.606 13.808 13.836 23.174c-14.213 10.003-23.506 26.523-23.506 45.223s9.293 35.22 23.506 45.22l-13.838 23.17c-16.56-11.06-28.878-27.97-33.994-47.78 5.978-4.88 9.797-12.3 9.797-20.61 0-8.32-3.82-15.74-9.797-20.61 5.117-19.81 17.436-36.723 33.996-47.787zm-50.771 49.47c10.45 0 18.92 8.47 18.92 18.92s-8.471 18.92-18.92 18.92c-10.453 0-18.924-8.47-18.924-18.92s8.471-18.92 18.924-18.92zm151.42 23.82 26.97 0.39c-1.32 20.85-10.43 39.57-24.42 53.32-7.19-2.71-15.5-2.3-22.69 1.84-7.19 4.16-11.7 11.16-12.94 18.76-6.99 1.94-14.35 2.99-21.96 2.99-13.09 0-25.45-3.07-36.43-8.51l13.14-23.56c7.08 3.29 14.97 5.14 23.29 5.14 28.88 0 52.56-22.13 55.04-50.37zm-7.36 59.65c6.71-0.18 13.3 3.23 16.89 9.45 5.22 9.05 2.12 20.62-6.92 25.85-9.05 5.22-20.62 2.12-25.85-6.93-5.22-9.05-2.12-20.62 6.93-25.84 2.83-1.63 5.9-2.45 8.95-2.53z"/>
 </g>
</svg>
