<?xml version="1.0" encoding="UTF-8" standalone="no"?>
<svg xmlns:rdf="http://www.w3.org/1999/02/22-rdf-syntax-ns#" xmlns="http://www.w3.org/2000/svg" height="54" width="54" version="1.1" xmlns:cc="http://creativecommons.org/ns#" xmlns:xlink="http://www.w3.org/1999/xlink" viewBox="0 0 54 54" xmlns:dc="http://purl.org/dc/elements/1.1/">
 <title>Launcher Button Edge</title>
 <defs>
  <clipPath id="0">
   <rect rx="4" height="50" width="50" y="2" x="2" fill="#b6afaf"/>
  </clipPath>
  <filter id="1" height="1.48" width="1.48" y="-.24" x="-.24" color-interpolation-filters="sRGB">
   <feGaussianBlur stdDeviation="5"/>
  </filter>
  <linearGradient id="3" xlink:href="#4" spreadMethod="reflect" gradientUnits="userSpaceOnUse" y1="27" x2="0" y2="49"/>
  <linearGradient id="2" xlink:href="#4" gradientUnits="userSpaceOnUse" y1="1" x2="0" y2="93"/>
  <linearGradient id="4" gradientUnits="userSpaceOnUse" x2="0" y2="23.741" y1="52.03">
   <stop stop-color="#fff" offset="0"/>
   <stop stop-color="#fff" stop-opacity="0" offset="1"/>
  </linearGradient>
 </defs>
 <metadata>
  <rdf:RDF>
   <cc:Work rdf:about="">
    <dc:format>image/svg+xml</dc:format>
    <dc:type rdf:resource="http://purl.org/dc/dcmitype/StillImage"/>
    <dc:title>Launcher Button Edge</dc:title>
    <cc:license rdf:resource="https://www.gnu.org/licenses/lgpl-3.0.en.html"/>
    <dc:creator>
     <cc:Agent>
      <dc:title>Canonical</dc:title>
     </cc:Agent>
    </dc:creator>
    <dc:source>http://packages.ubuntu.com/trusty/libunity-core-6.0-9</dc:source>
    <dc:description>Optimized from from `/usr/share/unity/icons/launcher_icon_edge_54.svg` in Ubuntu 14.04LTS&apos;s Unity 7.2</dc:description>
   </cc:Work>
  </rdf:RDF>
 </metadata>
 <path opacity=".2" d="m5 2c-1.679 0-2.998 1.319-2.998 2.998v44c0 1.679 1.319 2.998 2.998 2.998h44c1.679 0 2.998-1.319 2.998-2.998v-44c0-1.679-1.319-2.998-2.998-2.998h-44z" clip-path="url(#0)" filter="url(#1)" stroke="#180c1c" stroke-width="2.5" fill="none"/>
 <rect opacity=".12" rx="4" height="52" width="52" y="1" x="1" fill="url(#4)"/>
 <path opacity=".1" d="m53 5c0-2.216-1.784-4-4-4h-44c-2.216 0-4 1.784-4 4v44c0 2.216 1.784 4 4 4h44c2.216 0 4-1.784 4-4v-44m-0.969 0v44c0 1.703-1.328 3.03-3.03 3.03h-44c-1.704 0-3.03-1.327-3.03-3.03v-44c0-1.704 1.328-3.03 3.03-3.03h44c1.703 0 3.03 1.328 3.03 3.03" fill="url(#2)"/>
 <g fill="url(#3)">
  <path opacity=".2" d="m52 5h1v44h-1z"/>
  <path opacity=".2" d="m1 5h1v44h-1z"/>
  <path opacity=".6" transform="rotate(-90)" d="m-2 5h1v44h-1z"/>
 </g>
</svg>
