<?xml version="1.0" encoding="UTF-8" standalone="no"?>
<!-- Created with Inkscape (http://www.inkscape.org/) -->
<svg xmlns:rdf="http://www.w3.org/1999/02/22-rdf-syntax-ns#" xmlns="http://www.w3.org/2000/svg" xml:space="preserve" height="512" viewBox="0 0 512 512" width="512" version="1.1" xmlns:cc="http://creativecommons.org/ns#" xmlns:dc="http://purl.org/dc/elements/1.1/"><metadata><rdf:RDF><cc:Work rdf:about=""><dc:format>image/svg+xml</dc:format><dc:type rdf:resource="http://purl.org/dc/dcmitype/StillImage"/><dc:title/></cc:Work></rdf:RDF></metadata><g transform="matrix(1.25,0,0,-1.25,0,512)"><circle cx="204.71" transform="scale(1,-1)" cy="-204.8" r="162" fill="#2c2c2c"/><path d="m387.64 326.97c-22.333 3.167-51.676 1.5418-76.41-4.0732 5.132-5.529 12.402-11.926 16.964-17.95 15.81 7.05 49.23 20.17 59.45 22.02" fill="#2c2c2c"/><g fill="#fff"><path d="m128.29 317.3c40.143 26.255 82.606 28.645 125.61 10.166 18.493-7.947 35.551-9.945 54.712-5.341 2.36 0.567 4.836 1.08 7.373 1.562-29.155 27.32-68.322 44.078-111.34 44.078-86.534 0-157.52-67.798-162.65-153.06 0.771 1.472 1.356 2.595 1.891 3.737 19.081 40.686 46.549 74.103 84.405 98.862"/><path d="m303.88 290.66c-7.697-5.75-17.744-13.155-23.756-20.792-21.731-27.605-15.838-51.572-7.862-68.274 10.321-21.614 40.277-70.394 46.524-112.99 30.114 29.586 48.825 70.743 48.825 116.19 0 38.452-13.395 73.828-35.752 101.73-9.802-4.296-19.247-9.344-27.979-15.868"/><path d="m276 113.65c-12.724 33.582-26.417 61.067-55.751 88.762-1.746 1.648-22.938 19.879-45.918 21.066-41.903 2.164-64.826 46.386-63.121 62.59-22.408-16.644-36.04-37.694-43.843-51.76-4.963-8.945-1.033-13.357 8.956-14.112 8.372-0.632 16.913-1.323 24.962-3.517 49.627-11.867 78.993-58.995 87.111-83.075-3.629 2.482-35.722 45.811-82.524 57.905-19.724 7.315-39.81 9.524-57.685-6.291-2.178-1.927-3.649-3.813-4.511-5.873 12.256-77.812 79.77-137.51 160.97-137.51 29.486 0 57.168 7.872 81.055 21.624 0.687 1.343 1.097 2.758 0.936 3.822-1.786 11.787-7.135 35.028-10.639 46.372"/><path d="m186.09 295.7c-0.171-8.011 6.525-14.899 14.561-14.978 8.079-0.079 14.722 6.592 14.695 14.756-0.027 7.965-6.181 14.291-14.123 14.518-8.19 0.234-14.959-6.16-15.133-14.296"/></g></g></svg>
