<?xml version="1.0" encoding="UTF-8" standalone="no"?>
<svg xmlns:rdf="http://www.w3.org/1999/02/22-rdf-syntax-ns#" xmlns="http://www.w3.org/2000/svg" height="705.09" width="705.09" version="1.1" xmlns:cc="http://creativecommons.org/ns#" xmlns:xlink="http://www.w3.org/1999/xlink" xmlns:dc="http://purl.org/dc/elements/1.1/">
 <defs>
  <clipPath id="clipPath6985" clipPathUnits="userSpaceOnUse">
   <path style="color:black" d="m302.72 766.98c-1.2375 10.888-7.1017 21.083-15.579 28.026-8.4777 6.9433-19.432 10.662-30.388 10.833-11.212 0.17496-22.535-3.3702-31.323-10.336-8.7874-6.9655-14.888-17.381-16.144-28.524-1.3772-12.214 2.8963-24.337 7.9571-35.538s11.038-22.186 13.407-34.246c1.154-5.8742 1.4331-11.933 3.1691-17.662 1.5125-4.9918 4.17-9.6993 8.0222-13.216 3.8523-3.5165 8.9458-5.7719 14.162-5.7719 5.2159-0.00005 10.31 2.2553 14.162 5.7717 3.8523 3.5165 6.5097 8.2241 8.0221 13.216 1.7358 5.7293 2.0146 11.788 3.1691 17.662 2.3706 12.061 8.3528 23.044 13.416 34.245s9.3363 23.327 7.9482 35.54" fill="#3a5069"/>
  </clipPath>
 </defs>
 <metadata>
  <rdf:RDF>
   <cc:Work rdf:about="">
    <dc:format>image/svg+xml</dc:format>
    <dc:type rdf:resource="http://purl.org/dc/dcmitype/StillImage"/>
    <dc:title/>
   </cc:Work>
  </rdf:RDF>
 </metadata>
 <g transform="translate(-16.162 -270.5)">
  <circle cy="623.05" cx="368.71" r="342.5" fill="#c7d3e0"/>
  <use xlink:href="#path6946" transform="matrix(-1 0 0 1 326.71 3.995)" height="512" width="512" y="0" x="0"/>
  <g transform="matrix(1.2546 0 0 1.2546 -77.092 -144.67)">
   <path style="color:black" d="m515.34 727.64c-4.2383 37.291-24.323 72.206-53.358 95.986-29.036 23.78-66.551 36.517-104.08 37.103-38.4 0.5992-77.182-11.543-107.28-35.399-30.096-23.856-50.989-59.528-55.292-97.691-4.7169-41.831 9.9195-83.353 27.252-121.72 17.333-38.363 37.804-75.984 45.918-117.29 3.9523-20.119 4.9084-40.869 10.854-60.491 5.1803-17.096 14.282-33.219 27.476-45.263s30.639-19.768 48.503-19.768c17.864-0.00017 35.309 7.7242 48.503 19.768s22.295 28.167 27.475 45.263c5.945 19.622 6.8998 40.372 10.854 60.491 8.1192 41.308 28.608 78.924 45.949 117.28 17.341 38.361 31.976 79.893 27.222 121.72z" fill="#3a5069"/>
   <path style="color:black" d="m472.91 753.01c-5.2327 25.647-21.706 48.412-43.332 63.159s-48.067 21.734-74.243 21.735c-26.177 0.001-52.62-6.9829-74.247-21.73s-38.1-37.515-43.328-63.164c-5.4676-26.826 1.3214-54.663 10.933-80.297 9.6117-25.635 22.11-50.303 28.728-76.868 4.4448-17.842 6.158-36.244 9.7393-54.279 3.6777-18.52 9.5385-37.056 20.954-52.097 5.7076-7.5202 12.776-14.071 20.994-18.718 8.218-4.6469 17.606-7.3454 27.047-7.2268 9.3161 0.117 18.514 2.9742 26.541 7.7042 8.0269 4.73 14.904 11.292 20.451 18.777 11.094 14.972 16.764 33.277 20.364 51.56 3.5522 18.041 5.2833 36.44 9.7394 54.279 6.6349 26.562 19.135 51.228 28.744 76.865 9.609 25.636 16.39 53.476 10.917 80.301z" fill="#fcf9ee"/>
   <path style="color:black" d="m355.02 445.63c-22.153 0-42.328 8.9577-55.981 23.209 13.653 14.251 33.827 28.848 55.981 28.848 22.153 0 41.771-14.597 55.424-28.848-13.653-14.251-33.271-23.209-55.424-23.209z" fill="#ffee71"/>
   <g transform="matrix(3.4249 0 0 3.4249 -521.44 -1899.2)">
    <path style="color:black" d="m302.72 766.98c-1.2375 10.888-7.1017 21.083-15.579 28.026-8.4777 6.9433-19.432 10.662-30.388 10.833-11.212 0.17496-22.535-3.3702-31.323-10.336-8.7874-6.9655-14.888-17.381-16.144-28.524-1.3772-12.214 2.8963-24.337 7.9571-35.538s11.038-22.186 13.407-34.246c1.154-5.8742 1.4331-11.933 3.1691-17.662 1.5125-4.9918 4.17-9.6993 8.0222-13.216 3.8523-3.5165 8.9458-5.7719 14.162-5.7719 5.2159-0.00005 10.31 2.2553 14.162 5.7717 3.8523 3.5165 6.5097 8.2241 8.0221 13.216 1.7358 5.7293 2.0146 11.788 3.1691 17.662 2.3706 12.061 8.3528 23.044 13.416 34.245s9.3363 23.327 7.9482 35.54z" stroke="#3a5069" stroke-width="3" fill="none"/>
   </g>
   <g transform="matrix(3.4249 0 0 3.4249 -523.03 -1899.2)" clip-path="url(#clipPath6985)">
    <path style="color:black" d="m243.45 778.56c2.1035 7.4865 3.3546 24.254-6.9941 27.162-10.349 2.9076-18.013-12.058-20.117-19.545-0.90865-3.2343 6.6142-1.5598 7.1766-3.6148 0.73945-2.7019-0.0459-6.7312 4.2064-7.926 4.002-1.1244 5.3327 2.9654 7.3132 4.6894 1.7244 1.501 7.4357-4.2502 8.4147-0.76576z" fill="#ffee71"/>
    <use xlink:href="#path6179" transform="matrix(-1 0 0 1 512 -2.3093e-8)" height="512" width="512" y="0" x="0"/>
    <path style="color:black" d="m269.49 778.56c-2.1035 7.4865-3.3546 24.254 6.9941 27.162 10.349 2.9076 18.013-12.058 20.117-19.545 0.90865-3.2343-6.6142-1.5598-7.1766-3.6148-0.73945-2.7019 0.0459-6.7312-4.2064-7.926-4.002-1.1244-5.3327 2.9654-7.3132 4.6894-1.7244 1.501-7.4357-4.2502-8.4147-0.76576z" fill="#ffee71"/>
   </g>
   <path style="color:black" d="m355.02 445.63c-30.541 1.046-45.154 13.268-55.977 23.23 17.939 0 23.175 14.549 55.977 14.549 32.801 0 38.582-14.549 55.428-14.549-11.102-12.61-33.579-23.978-55.428-23.23z" fill="#fff5a6"/>
   <g transform="translate(.59610)" fill="#3a5069">
    <path d="m272.12 608.67s-18.478 36.481-18.478 63.265c0 26.696 22.458 37.804 15.381 49.188-12.035 19.362-61.919 5.1434-57.677-52.585 3.7264-50.712 11.689-47.417 11.689-47.417z"/>
    <path d="m437.37 608.67s18.478 36.481 18.478 63.265c0 26.696-22.458 37.804-15.381 49.188 12.035 19.362 61.919 5.1434 57.677-52.585-3.7264-50.712-11.689-47.417-11.689-47.417z"/>
   </g>
  </g>
  <rect style="color:black" fill-opacity="0" height="705.09" width="705.09" y="270.5" x="16.162"/>
 </g>
</svg>
