<?xml version="1.0" encoding="UTF-8" standalone="no"?>
<svg
   xmlns:dc="http://purl.org/dc/elements/1.1/"
   xmlns:cc="http://creativecommons.org/ns#"
   xmlns:rdf="http://www.w3.org/1999/02/22-rdf-syntax-ns#"
   xmlns:svg="http://www.w3.org/2000/svg"
   xmlns="http://www.w3.org/2000/svg"
   id="svg2"
   xml:space="preserve"
   enable-background="new -0.866 -0.866 285 285"
   viewBox="-0.866 -0.866 450 450"
   height="450"
   width="450"
   y="0px"
   x="0px"
   version="1.1"><metadata
     id="metadata12"><rdf:RDF><cc:Work
         rdf:about=""><dc:format>image/svg+xml</dc:format><dc:type
           rdf:resource="http://purl.org/dc/dcmitype/StillImage" /><dc:title></dc:title></cc:Work></rdf:RDF></metadata><defs
     id="defs4" /><rect
     ry="49.9179"
     y="19.134001"
     x="-0.866"
     height="410"
     width="450"
     id="rect4833"
     style="opacity:1;fill:#dd4814;fill-opacity:1;fill-rule:nonzero;stroke:none;stroke-width:1;stroke-miterlimit:4;stroke-dasharray:none;stroke-opacity:1" /><path
     style="fill:#ffffff"
     id="path6"
     d="m 224.2297,82.499235 c -78.277,0 -141.730465,63.455375 -141.730465,141.734375 0,78.274 63.455425,141.73047 141.732425,141.73047 78.277,0 141.73242,-63.45747 141.73242,-141.73047 0,-78.279 -63.45738,-141.734375 -141.73438,-141.734375 z m 48.69922,39.351565 c 3.04939,0.0791 6.12141,0.89875 8.94922,2.53125 9.051,5.226 12.14983,16.7947 6.92383,25.8457 -5.223,9.047 -16.7918,12.14888 -25.8418,6.92188 -9.048,-5.223 -12.14783,-16.79285 -6.92383,-25.83985 3.59288,-6.22256 10.18393,-9.63308 16.89258,-9.45898 z m -48.69531,20.17773 c 7.609,0 14.96894,1.05524 21.96094,2.99024 1.236,7.601 5.7494,14.60386 12.9414,18.75586 7.183,4.148 15.4935,4.55979 22.6875,1.84179 13.993,13.757 23.09683,32.47631 24.42383,53.32031 l -26.9668,0.39258 c -2.483,-28.232 -26.16987,-50.37304 -55.04687,-50.37304 -8.321,0 -16.20816,1.85153 -23.28516,5.14453 l -13.14453,-23.56055 c 10.982,-5.44 23.34369,-8.51172 36.42969,-8.51172 z m -45.60547,13.8086 13.83398,23.17382 c -14.21099,10.002 -23.5039,26.51971 -23.5039,45.22071 0,18.704 9.29291,35.2207 23.5039,45.2207 l -13.83593,23.17578 c -16.56,-11.063 -28.87814,-27.97706 -33.99414,-47.78906 5.978,-4.871 9.79687,-12.29047 9.79687,-20.60547 0,-8.317 -3.81987,-15.73542 -9.79687,-20.60742 5.117,-19.81 17.43609,-36.72506 33.99609,-47.78906 z m -50.77148,49.4746 c 10.45,0 18.91992,8.46983 18.91992,18.92383 0,10.449 -8.47092,18.91992 -18.91992,18.91992 -10.453,0 -18.92383,-8.47092 -18.92383,-18.91992 0,-10.453 8.47083,-18.92383 18.92383,-18.92383 z m 151.42187,23.82422 26.96875,0.39258 c -1.325,20.844 -10.42987,39.56231 -24.42187,53.32031 -7.194,-2.719 -15.5045,-2.30615 -22.6875,1.83985 -7.193,4.155 -11.70736,11.15876 -12.94336,18.75976 -6.993,1.935 -14.35194,2.99024 -21.96094,2.99024 -13.086,0 -25.45059,-3.07372 -36.43359,-8.51172 l 13.14843,-23.5625 c 7.078,3.293 14.96316,5.14258 23.28516,5.14258 28.877,0 52.56392,-22.1351 55.04492,-50.3711 z m -7.36523,59.64649 c 6.70849,-0.17408 13.29912,3.23526 16.89062,9.45508 5.225,9.05 2.12417,20.61779 -6.92383,25.84179 -9.051,5.225 -20.61775,2.12522 -25.84375,-6.92578 -5.223,-9.047 -2.12521,-20.61484 6.92578,-25.83984 2.8275,-1.6325 5.90186,-2.45213 8.95118,-2.53125 z" /></svg>