<?xml version="1.0" encoding="UTF-8" standalone="no"?>
<svg xmlns:rdf="http://www.w3.org/1999/02/22-rdf-syntax-ns#" xmlns="http://www.w3.org/2000/svg" height="800" width="1200" version="1.1" xmlns:cc="http://creativecommons.org/ns#" xmlns:dc="http://purl.org/dc/elements/1.1/">
 <title>Ubuntu Display</title>
 <defs>
  <clipPath id="clipPath3041-4" clipPathUnits="userSpaceOnUse">
   <path d="m904.39-334.06-511.24 1164.8h1045.1v-1190.8z" fill="#fff"/>
  </clipPath>
  <linearGradient id="linearGradient3560" y2="-308.43" gradientUnits="userSpaceOnUse" y1="-294.97" gradientTransform="matrix(.64 0 0 .64 337.48 -126.72)" x2="409.75" x1="409.75">
   <stop stop-color="#404040" offset="0"/>
   <stop stop-color="#1f1f20" offset=".60067"/>
   <stop stop-color="#121213" offset="1"/>
  </linearGradient>
  <linearGradient id="linearGradient3562" y2="-305.07" gradientUnits="userSpaceOnUse" y1="-302.94" gradientTransform="matrix(.82902 0 0 .82902 259.05 -69.676)" x2="411.2" x1="411.2">
   <stop stop-color="#202020" offset="0"/>
   <stop stop-color="#383838" offset="1"/>
  </linearGradient>
  <linearGradient id="linearGradient3564" y2="-303.89" gradientUnits="userSpaceOnUse" y1="-305.07" gradientTransform="matrix(.49741 0 0 .82902 395.43 -69.676)" x2="411.48" x1="411.48">
   <stop stop-color="#fff" offset="0"/>
   <stop stop-color="#fff" stop-opacity="0" offset="1"/>
  </linearGradient>
  <linearGradient id="linearGradient3566" y2="335.88" gradientUnits="userSpaceOnUse" y1="-325.93" x2="897.8" x1="897.8">
   <stop stop-color="#fff" offset="0"/>
   <stop stop-color="#fff" stop-opacity="0" offset="1"/>
  </linearGradient>
  <linearGradient id="linearGradient3596" y2="704.06" gradientUnits="userSpaceOnUse" y1="-249.93" gradientTransform="matrix(.59726 0 0 .62531 -987.56 253.8)" x2="1812.5" x1="1812.5">
   <stop stop-color="#18191b" offset="0"/>
   <stop stop-color="#191919" offset="1"/>
  </linearGradient>
 </defs>
 <metadata>
  <rdf:RDF>
   <cc:Work rdf:about="">
    <dc:format>image/svg+xml</dc:format>
    <dc:type rdf:resource="http://purl.org/dc/dcmitype/StillImage"/>
    <dc:title>Ubuntu Display</dc:title>
    <cc:license rdf:resource="https://creativecommons.org/licenses/by-sa/4.0/"/>
    <dc:creator>
     <cc:Agent>
      <dc:title>HEXcube</dc:title>
     </cc:Agent>
    </dc:creator>
    <dc:description>Display mockup resembling a tablet device running Ubuntu with Unity 7. A derivative of Thunderbolt Display by Francisco &quot;bokehlicia&quot; Villarroel</dc:description>
    <dc:source>https://bokehlicia.deviantart.com/art/Thunderbolt-Display-SVG-470414571</dc:source>
   </cc:Work>
   <cc:License rdf:about="https://creativecommons.org/licenses/by-sa/4.0/">
    <cc:permits rdf:resource="https://creativecommons.org/ns#Reproduction"/>
    <cc:permits rdf:resource="https://creativecommons.org/ns#Distribution"/>
    <cc:requires rdf:resource="https://creativecommons.org/ns#Notice"/>
    <cc:requires rdf:resource="https://creativecommons.org/ns#Attribution"/>
    <cc:permits rdf:resource="https://creativecommons.org/ns#DerivativeWorks"/>
    <cc:requires rdf:resource="https://creativecommons.org/ns#ShareAlike"/>
   </cc:License>
  </rdf:RDF>
 </metadata>
 <path id="bezel" fill-rule="evenodd" fill="#0f0f0f" d="m76.279 50c-14.559 0-26.279 12.27-26.279 27.51v644.97c0 15.2 11.72 27.5 26.279 27.5h1047.4c14.559 0 26.279-12.271 26.279-27.513v-644.97c0-15.26-11.7-27.53-26.3-27.53zm18.442 47.519h1010.6v594.67h-1010.6z"/>
 <path id="border" fill="url(#linearGradient3596)" d="m94.123 95.02c-0.66176 0-1.1945 0.5577-1.1945 1.2506v596.54c0 0.6929 0.53275 1.2507 1.1945 1.2507h1011.8c0.6617 0 1.1945-0.5578 1.1945-1.2507v-596.54c0-0.6929-0.5328-1.2506-1.1945-1.2506zm0.59797 2.5016h1010.6v594.67h-1010.6z"/>
 <g id="webcam" transform="translate(0,395)">
  <circle cy="-320" cx="600" r="4.5" fill="url(#linearGradient3560)"/>
  <circle cy="-320" cx="600" r="2.5" fill="url(#linearGradient3562)"/>
  <ellipse opacity=".2" rx="1.5" ry="2.5" cy="-320" cx="600" fill="url(#linearGradient3564)"/>
  <circle cy="-320" cx="600" r="1.5" fill="#1a1a1a"/>
 </g>
 <path id="CoF" fill="#fff" d="m600 704c-8.8372 0-16 7.1636-16 16-0.00057 8.836 7.163 16 16 16 8.836 0 16-7.164 16-16 0-8.837-7.164-16-16-16zm5.4966 4.4425c0.34431 0.01 0.69202 0.1015 1.0104 0.2857 1.0228 0.59 1.3716 1.896 0.78233 2.9178-0.59042 1.0213-1.8954 1.3715-2.9171 0.7814-1.0217-0.5896-1.3716-1.8958-0.78234-2.9171 0.40641-0.7025 1.1504-1.0875 1.9067-1.0678zm-5.5 2.3c0.85909 0 1.69 0.1191 2.4791 0.3375 0.13998 0.8581 0.64912 1.6487 1.4608 2.1174 0.81056 0.4683 1.7498 0.5147 2.5615 0.2078 1.5793 1.5531 2.6078 3.6665 2.7568 6.0191l-3.0435 0.045c-0.28109-3.188-2.9543-5.6872-6.2146-5.6872-0.93925 0-1.83 0.2091-2.6292 0.5808l-1.4834-2.6598c1.2395-0.6141 2.6349-0.9608 4.1126-0.9608zm-5.1485 1.5588 1.562 2.6161c-1.6045 1.1293-2.6536 2.9942-2.6536 5.1053 0 2.111 1.0491 3.976 2.6536 5.1049l-1.5622 2.6157c-1.8695-1.2486-3.2601-3.1576-3.8376-5.394 0.67486-0.5509 1.106-1.3885 1.106-2.3266 0-0.9393-0.43123-1.7769-1.106-2.3267 0.57767-2.2364 1.9684-4.1457 3.8378-5.3947zm-5.7316 5.5855c1.1797 0 2.1359 0.9562 2.1359 2.1359s-0.9563 2.1359-2.1359 2.1359c-1.1801 0-2.1364-0.9562-2.1364-2.1359s0.9563-2.1359 2.1364-2.1359zm17.094 2.689 3.0447 0.044c-0.14902 2.3538-1.1774 4.4671-2.7568 6.0194-0.81169-0.306-1.7498-0.2597-2.5615 0.2077-0.81168 0.4696-1.3208 1.2598-1.4608 2.1178-0.7891 0.219-1.62 0.3376-2.4791 0.3376-1.4777 0-2.8731-0.3466-4.1126-0.9607l1.4834-2.6597c0.79927 0.3714 1.69 0.5802 2.6292 0.5802 3.2603 0 5.9335-2.4983 6.2135-5.6863zm-0.83088 6.734c0.75749-0.02 1.5014 0.3646 1.9067 1.0668 0.58928 1.0216 0.23932 2.3278-0.78121 2.9182-1.0217 0.5893-2.3278 0.2393-2.9182-0.7823-0.58929-1.0217-0.23933-2.3278 0.78234-2.9171 0.31947-0.184 0.66605-0.2766 1.0104-0.2856z"/>
 <rect id="wallpaper" height="595" width="1012" y="97" x="94" fill="#77216f"/>
 <g id="gloss" transform="translate(0,-800)">
  <g transform="translate(0,1920)">
   <rect opacity=".15" ry="44" clip-path="url(#clipPath3041-4)" fill-rule="evenodd" rx="44" transform="matrix(.58647 0 0 .62531 369.43 -866.19)" height="1119.5" width="1841.8" y="-325.93" x="-510.78" fill="url(#linearGradient3566)"/>
  </g>
 </g>
</svg>
