<?xml version="1.0" encoding="UTF-8" standalone="no"?>
<svg id="svg" xmlns:rdf="http://www.w3.org/1999/02/22-rdf-syntax-ns#" xmlns="http://www.w3.org/2000/svg" height="595" width="65" version="1.1" xmlns:cc="http://creativecommons.org/ns#" xmlns:xlink="http://www.w3.org/1999/xlink" xmlns:dc="http://purl.org/dc/elements/1.1/">
 <title id="title">Unity Launcher</title>
 <defs>
  <linearGradient id="linearGradient4574">
   <stop stop-color="#fff" offset="0"/>
   <stop stop-color="#fff" stop-opacity="0" offset="1"/>
  </linearGradient>
  <linearGradient id="linearGradient4147">
   <stop offset="0"/>
   <stop stop-opacity="0" offset="1"/>
  </linearGradient>
  <linearGradient id="linearGradient5449">
   <stop stop-color="#ed5012" offset="0"/>
   <stop stop-color="#bc3f0e" offset="1"/>
  </linearGradient>
  <linearGradient id="linearGradient9334-58">
   <stop stop-color="#0369a3" offset="0"/>
   <stop stop-color="#023f62" offset="1"/>
  </linearGradient>
  <linearGradient id="linearGradient13214-6">
   <stop stop-color="#18a303" offset="0"/>
   <stop stop-color="#106802" offset="1"/>
  </linearGradient>
  <filter id="0" style="color-interpolation-filters:sRGB">
   <feFlood result="flood" flood-opacity=".94118"/>
   <feComposite operator="in" result="composite1" in2="SourceGraphic" in="flood"/>
   <feGaussianBlur stdDeviation="2" result="blur" in="composite1"/>
   <feOffset result="offset" dx="0" dy="1"/>
   <feComposite operator="out" result="composite2" in2="SourceGraphic" in="offset"/>
  </filter>
  <clipPath id="0-4">
   <rect rx="4" height="50" width="50" y="2" x="2" fill="#b6afaf"/>
  </clipPath>
  <filter id="1" style="color-interpolation-filters:sRGB" height="1.48" width="1.48" y="-.24" x="-.24">
   <feGaussianBlur stdDeviation="5"/>
  </filter>
  <linearGradient id="4" y1="52.03" x2="0" y2="23.741" gradientUnits="userSpaceOnUse">
   <stop stop-color="#fff" offset="0"/>
   <stop stop-opacity="0" stop-color="#fff" offset="1"/>
  </linearGradient>
  <linearGradient id="linearGradient1803" xlink:href="#4" gradientUnits="userSpaceOnUse" x2="0" y1="52.03" y2="23.741"/>
  <linearGradient id="linearGradient1805" xlink:href="#4" gradientUnits="userSpaceOnUse" x2="0" y1="1" y2="93"/>
  <linearGradient id="linearGradient1807" xlink:href="#4" spreadMethod="reflect" gradientUnits="userSpaceOnUse" x2="0" y1="27" y2="49"/>
  <radialGradient id="radialGradient1865" gradientUnits="userSpaceOnUse" cy="30.969" cx="32" gradientTransform="matrix(1.5385 0 0 .79358 -17.23 -17.6)" r="26">
   <stop stop-color="#fff" offset="0"/>
   <stop stop-opacity="0" stop-color="#fff" offset="1"/>
  </radialGradient>
  <path id="M" d="m144 136c0 4.418-25.07 8-56 8-30.928 0-56-3.582-56-8s25.07-8 56-8c30.928 0 56 3.582 56 8"/>
  <filter id="7" height="1.786" width="1.112" color-interpolation-filters="sRGB" y="-.393" x="-.056">
   <feGaussianBlur stdDeviation="2.62154"/>
  </filter>
  <filter id="8" height="1.786" width="1.112" color-interpolation-filters="sRGB" y="-.393" x="-.056">
   <feGaussianBlur stdDeviation="2.6207"/>
  </filter>
  <linearGradient id="9" xlink:href="#linearGradient4147" gradientUnits="userSpaceOnUse" x2="0" y1="1033.4" y2="1007.4"/>
  <linearGradient id="A" xlink:href="#linearGradient4147" gradientUnits="userSpaceOnUse" x2="0" y1="1033.4" y2="1000.1"/>
  <linearGradient id="I" xlink:href="#linearGradient4147" gradientUnits="userSpaceOnUse" x2="0" y1="994.32" y2="1004"/>
  <linearGradient id="C" xlink:href="#linearGradient4574" gradientUnits="userSpaceOnUse" x2="0" y1="468.54" y2="490.6"/>
  <linearGradient id="E" y2="68.866" xlink:href="#linearGradient4574" spreadMethod="reflect" gradientUnits="userSpaceOnUse" x2="233.31" y1="69" x1="208"/>
  <linearGradient id="G" gradientUnits="userSpaceOnUse" x2="0" gradientTransform="matrix(0 1.0975 -1.3856 0 178.35 1018.2)" y1="1002.4" y2="993.36">
   <stop stop-color="#bdbdbd" offset="0"/>
   <stop stop-color="#d0d0d0" offset="1"/>
  </linearGradient>
  <linearGradient id="3" x2="0" y1="971.36" y2="1006.4" gradientUnits="userSpaceOnUse">
   <stop stop-color="#b3b3b3" offset="0"/>
   <stop stop-color="#737373" offset="1"/>
  </linearGradient>
  <linearGradient id="K" xlink:href="#linearGradient4574" gradientUnits="userSpaceOnUse" x2="0" y1="992.36" y2="1001.4"/>
  <linearGradient id="J" gradientUnits="userSpaceOnUse" x2="0" gradientTransform="matrix(1 0 0 .8 0 612.16)" y1="479" y2="484">
   <stop stop-color="#f9f9f9" offset="0"/>
   <stop stop-color="#c9c9c9" offset="1"/>
  </linearGradient>
  <linearGradient id="4-6" x2="0" y1="1002.4" y2="1005.4" gradientUnits="userSpaceOnUse">
   <stop stop-color="#f0c077" offset="0"/>
   <stop stop-color="#df841e" offset="1"/>
  </linearGradient>
  <linearGradient id="5" gradientUnits="userSpaceOnUse" x2="0" gradientTransform="matrix(1.008 0 0 .65396 114.59 1019.5)" y1="1001.4" y2="1009.3">
   <stop stop-color="#f0c178" offset="0"/>
   <stop stop-color="#e18941" offset=".5"/>
   <stop stop-color="#ec4f18" offset="1"/>
  </linearGradient>
  <radialGradient id="0-9" xlink:href="#linearGradient4147" gradientUnits="userSpaceOnUse" cy="136" cx="88" gradientTransform="matrix(1 0 0 .14286 0 116.57)" r="56"/>
  <radialGradient id="F" xlink:href="#linearGradient4574" gradientUnits="userSpaceOnUse" cy="30.5" cx="203.5" gradientTransform="matrix(1 0 0 .13043 0 26.522)" r="11.5"/>
  <radialGradient id="2" gradientUnits="userSpaceOnUse" cy="432.5" cx="94" gradientTransform="matrix(1.6667 0 0 .57143 -62.67 719.22)" r="21">
   <stop stop-color="#eee" offset="0"/>
   <stop stop-color="#b2b2b2" offset="1"/>
  </radialGradient>
  <linearGradient id="linearGradient5884" y2="1035.4" gradientUnits="userSpaceOnUse" y1="1010.4" x2="105" x1="95">
   <stop stop-color="#bfbfbf" offset="0"/>
   <stop stop-color="#8e8e8e" offset="1"/>
  </linearGradient>
  <ellipse id="XMLID_8_" cy="59.375" cx="63.755" rx="58.215" ry="58.254"/>
  <linearGradient id="8-3" xlink:href="#0-5" gradientUnits="userSpaceOnUse" y1="21.523" gradientTransform="matrix(.37137 0 0 .37075 .238 -.357)" x2="0" y2="103.07"/>
  <linearGradient id="6" y2="81.926" gradientUnits="userSpaceOnUse" y1="64.3" gradientTransform="matrix(-1.363,0,0,1.3617,452.82,-67.958)" x2="335.3" x1="304.76">
   <stop stop-color="#d3d7cf" offset="0"/>
   <stop stop-color="#babdb6" offset=".183"/>
   <stop stop-color="#fff" offset=".319"/>
   <stop stop-color="#babdb6" offset=".876"/>
   <stop stop-color="#eeeeec" offset="1"/>
  </linearGradient>
  <linearGradient id="9-9" x1="49.27" xlink:href="#0-5" gradientUnits="userSpaceOnUse" y1="22.275" gradientTransform="matrix(.37137 0 0 .37075 .238 -.357)" x2="49.37" y2="102.05"/>
  <linearGradient id="B" y2="20.895" gradientUnits="userSpaceOnUse" y1="105.1" gradientTransform="matrix(.32178 0 0 .32124 3.412 3.043)" x2="84.64" x1="86.13">
   <stop stop-color="#fff" offset="0"/>
   <stop stop-color="#959595" offset="1"/>
  </linearGradient>
  <linearGradient id="C-5" y1="2.578" x2="0" y2="43.961" gradientUnits="userSpaceOnUse">
   <stop stop-color="#f2f2f2" offset="0"/>
   <stop stop-color="#d8d8d8" offset="1"/>
  </linearGradient>
  <linearGradient id="A-2" gradientUnits="userSpaceOnUse" y1="21.941" gradientTransform="matrix(.32178 0 0 .32124 3.412 3.043)" x2="0" y2="104.06">
   <stop stop-color="#dadada" offset="0"/>
   <stop stop-color="#ccc" offset="1"/>
  </linearGradient>
  <linearGradient id="7-1" y2="58.61" gradientUnits="userSpaceOnUse" y1="52.787" gradientTransform="matrix(-1.363,0,0,1.3617,452.82,-67.958)" x2="305.67" x1="301.32">
   <stop stop-color="#888a85" offset="0"/>
   <stop stop-color="#555753" offset="1"/>
  </linearGradient>
  <linearGradient id="0-5" y1="21.523" x2="0" y2="103.07" gradientUnits="userSpaceOnUse">
   <stop stop-color="#d9d9d9" offset="0"/>
   <stop stop-color="#ccc" offset="1"/>
  </linearGradient>
  <linearGradient id="1-2" y2="44.14" gradientUnits="userSpaceOnUse" y1="44.23" gradientTransform="matrix(-.50045-.49965-.84917.84785 49.11-9.01)" x2="-9.775" x1="-6.308">
   <stop offset="0"/>
   <stop stop-opacity="0" offset="1"/>
  </linearGradient>
  <linearGradient id="2-8" y2="35.08" gradientUnits="userSpaceOnUse" y1="35.15" gradientTransform="matrix(-.82274 -.82219 -.71961 .71912 121.1 81.55)" x2="90.22" x1="97.44">
   <stop stop-color="#f8b17e" offset="0"/>
   <stop stop-color="#e35d4f" offset=".262"/>
   <stop stop-color="#c6262e" offset=".663"/>
   <stop stop-color="#690b54" offset="1"/>
  </linearGradient>
  <linearGradient id="4-4" y2="88.01" gradientUnits="userSpaceOnUse" y1="75.58" gradientTransform="matrix(-1.363,0,0,1.3617,452.82,-67.958)" x2="317.16" x1="326.6">
   <stop stop-color="#fff" offset="0"/>
   <stop stop-opacity="0" stop-color="#fff" offset="1"/>
  </linearGradient>
  <linearGradient id="5-9" y2="60.768" gradientUnits="userSpaceOnUse" y1="58.44" gradientTransform="matrix(-1.363,0,0,1.3617,452.82,-67.958)" x2="308.65" x1="302.29">
   <stop stop-color="#babdb6" offset="0"/>
   <stop stop-color="#fff" offset="1"/>
  </linearGradient>
  <linearGradient id="3-9" y2="27.27" gradientUnits="userSpaceOnUse" y1="34.02" x2="13" x1="19.723">
   <stop stop-color="#791235" offset="0"/>
   <stop stop-color="#dd3b27" offset="1"/>
  </linearGradient>
  <radialGradient id="D" xlink:href="#1-2" gradientUnits="userSpaceOnUse" cy="73.62" cx="6.703" gradientTransform="matrix(3.0435 0 0 .96975 3.6 -30.399)" r="7.228"/>
  <linearGradient id="linearGradient5675" y2="44.14" xlink:href="#1-2" gradientUnits="userSpaceOnUse" x2="-9.775" gradientTransform="matrix(-.50045 -.49965 -.84917 .84785 49.11 -9.01)" y1="44.23" x1="-6.308"/>
  <linearGradient id="c" x1="4.885" gradientUnits="userSpaceOnUse" x2="35.515" gradientTransform="matrix(.94757 0 0 1.1088 4.312 -13.553)" y1="38.13" y2="39.751">
   <stop stop-opacity=".155" stop-color="#fff" offset="0"/>
   <stop stop-opacity=".175" stop-color="#b0b2b6" offset=".498"/>
   <stop stop-opacity=".33" stop-color="#5b5e62" offset=".838"/>
   <stop stop-opacity=".155" stop-color="#fff" offset="1"/>
  </linearGradient>
  <linearGradient id="b" x2="0" y1="1.419" y2="45.663" gradientUnits="userSpaceOnUse">
   <stop stop-color="#e6e7e7" offset="0"/>
   <stop stop-color="#676b73" offset="1"/>
  </linearGradient>
  <linearGradient id="d" spreadMethod="reflect" gradientUnits="userSpaceOnUse" gradientTransform="matrix(.4 0 0 .4 -5.1 -2.6)" x2="64" x1="32.627">
   <stop stop-color="#555" offset="0"/>
   <stop stop-opacity="0" stop-color="#d3d7cf" offset="1"/>
  </linearGradient>
  <radialGradient id="a" gradientUnits="userSpaceOnUse" cy="108.02" cx="62.712" gradientTransform="matrix(.34709 0 0 .09682 2.186 32.803)" r="47.38">
   <stop offset="0"/>
   <stop stop-opacity="0" offset="1"/>
  </radialGradient>
  <path id="3-6" d="m210.62 911.99h42.75v33h-42.75v-23z"/>
  <path id="4-8" d="m144 136c0 4.418-25.07 8-56 8s-56-3.582-56-8 25.07-8 56-8 56 3.582 56 8"/>
  <path id="5-7" d="m211 912.36h42l-3-2.25 1.125-1.5h-38.25l1.125 1.5z"/>
  <path id="6-6" d="m82.906 78c-1.598 3.325-3.15 6.74-4.656 10.25-1.461 3.463-2.979 7.121-4.531 11-0.343 0.883-0.683 1.84-1.031 2.75h10.156c0.109-0.303 0.236-0.639 0.344-0.938 0.73-1.893 1.375-3.618 1.969-5.188 0.593-1.57 1.106-2.956 1.563-4.156 0.456-1.201 0.803-2.151 1.031-2.844 0.274 0.693 0.637 1.643 1.094 2.844s1 2.586 1.594 4.156c0.639 1.57 1.284 3.294 1.969 5.188 0.108 0.298 0.235 0.635 0.344 0.938h10.531c-0.356-0.91-0.709-1.866-1.063-2.75-1.51-3.879-3.03-7.537-4.532-11-1.507-3.509-3.042-6.925-4.594-10.25h-10.188m-15.344 37.84c-1.149 3.22-2.324 6.56-3.562 10.16h11.09c0.502-1.662 1.063-3.37 1.656-5.125 0.594-1.63 1.164-3.245 1.719-4.875h-9.469c-0.495 0-0.972-0.059-1.438-0.156zm40.844 0c-0.46 0.1-0.93 0.16-1.41 0.16h-9.813c0.551 1.629 1.105 3.245 1.656 4.875 0.639 1.755 1.217 3.463 1.719 5.125h11.44c-1.238-3.597-2.413-6.939-3.563-10.156-0.01 0.002-0.021-0.002-0.031 0z"/>
  <rect id="7-19" rx="1.875" height="3.75" width="18" y="930.36" x="223"/>
  <path id="8-32" d="m251.12 908.61l-1.125 1.5 1.123 0.842z"/>
  <path id="9-0" d="m211 945.36h42v-33h-42v23z"/>
  <path id="A-27" d="m222.25 897.36l1.875 3.75h3.75l1.875-3.75zm12 0l1.875 3.75h3.75l1.875-3.75z"/>
  <path id="B-4" d="m212.88 908.61l1.125 1.5-1.123 0.842z"/>
  <path id="C-7" d="m226 951.24h13.5l-3-3h-7.5z"/>
  <path id="D-6" d="m224.5 971.11h15l-3-3h-9z"/>
  <path id="E-0" d="m68 60h8v4s-4 1-8 0z"/>
  <path id="F-6" d="m224.5 971.11v8.25c1.5 0.375 3 0 3 0v-8.25zm12 0v8.25h3v-8.25z"/>
  <clipPath id="G-2">
   <path d="m211 901.11h42l-3-2.25 1.125-1.5h-38.25l1.125 1.5z"/>
  </clipPath>
  <filter id="I-4" height="1.787" width="1.112" color-interpolation-filters="sRGB" y="-.393" x="-.056">
   <feGaussianBlur stdDeviation="2.62154"/>
  </filter>
  <filter id="J-0" height="1.835" width="1.174" color-interpolation-filters="sRGB" y="-.418" x="-.087">
   <feGaussianBlur stdDeviation=".6525"/>
  </filter>
  <filter id="H" color-interpolation-filters="sRGB">
   <feGaussianBlur stdDeviation=".18938"/>
  </filter>
  <linearGradient id="U" gradientUnits="userSpaceOnUse" y1="428" gradientTransform="matrix(1.0714,0,0,1,-16.571,540.11)" x2="0" y2="431">
   <stop stop-color="#ef7545" offset="0"/>
   <stop stop-color="#eb5114" offset="1"/>
  </linearGradient>
  <linearGradient id="T" y1="971.36" x2="0" y2="979.36" gradientUnits="userSpaceOnUse">
   <stop stop-color="#f07e51" offset="0"/>
   <stop stop-color="#ec5d24" offset="1"/>
  </linearGradient>
  <linearGradient id="S" y1="901.11" x2="0" y2="896.24" gradientUnits="userSpaceOnUse">
   <stop stop-color="#520" offset="0"/>
   <stop stop-opacity="0" stop-color="#520" offset="1"/>
  </linearGradient>
  <linearGradient id="W" xlink:href="#linearGradient5449" gradientUnits="userSpaceOnUse" y1="908.6" x2="0" y2="910.95"/>
  <linearGradient id="R" y2="18.577" gradientUnits="userSpaceOnUse" y1="31.83" x2="64.5" x1="63.65">
   <stop stop-color="#ed9666" offset="0"/>
   <stop stop-opacity="0" stop-color="#ed9666" offset="1"/>
  </linearGradient>
  <linearGradient id="V" y1="908.6" x2="0" y2="910.95" gradientUnits="userSpaceOnUse">
   <stop stop-color="#ed8347" offset="0"/>
   <stop stop-color="#e85913" offset="1"/>
  </linearGradient>
  <linearGradient id="P" y1="912.59" x2="0" y2="945.36" gradientUnits="userSpaceOnUse">
   <stop stop-color="#ed8246" offset="0"/>
   <stop stop-color="#ee6d2e" offset=".683"/>
   <stop stop-color="#ef783d" offset=".701"/>
   <stop stop-color="#f07f48" offset="1"/>
  </linearGradient>
  <linearGradient id="Q" y1="908.36" x2="0" y2="912.36" gradientUnits="userSpaceOnUse">
   <stop stop-color="#e55016" offset="0"/>
   <stop stop-color="#c44c1c" offset="1"/>
  </linearGradient>
  <linearGradient id="M-7" xlink:href="#linearGradient4147" gradientUnits="userSpaceOnUse" y1="436.23" gradientTransform="matrix(1.0179,0,0,-1,-4.143,1381)" x2="0" y2="457"/>
  <linearGradient id="O" xlink:href="#linearGradient5449" gradientUnits="userSpaceOnUse" y1="948.24" x2="0" y2="951.24"/>
  <radialGradient id="N" xlink:href="#linearGradient4147" gradientUnits="userSpaceOnUse" cy="136" cx="88" gradientTransform="matrix(1 0 0 .14286 0 116.57)" r="56"/>
  <linearGradient id="linearGradient13975-6-0" x1="110.97" xlink:href="#linearGradient9334-58" gradientUnits="userSpaceOnUse" y1="976.3" gradientTransform="matrix(3,0,0,2.9991,-332.99,-2928.3)" x2="111" y2="991.87"/>
  <linearGradient id="linearGradient13977-0-6" x1="110.97" xlink:href="#linearGradient9334-58" gradientUnits="userSpaceOnUse" y1="976.3" gradientTransform="matrix(3.0119,0,0,3.0276,-336.48,-2956)" x2="110.97" y2="992.38"/>
  <linearGradient id="linearGradient13987-0" y2="-578.64" gradientUnits="userSpaceOnUse" y1="-581.64" gradientTransform="matrix(1.5,0,0,1.3333,-314,794.52)" x2="230" x1="230">
   <stop stop-color="#63bbee" offset="0"/>
   <stop stop-color="#aadcf7" offset="1"/>
  </linearGradient>
  <linearGradient id="linearGradient44048-7" x1="209.06" gradientUnits="userSpaceOnUse" x2="209.06" gradientTransform="matrix(1.5 0 0 1.5 -309 1177)" y1="-765.46" y2="-781.62">
   <stop stop-opacity=".58824" stop-color="#fff" offset="0"/>
   <stop stop-opacity=".86274" stop-color="#fff" offset="1"/>
  </linearGradient>
  <linearGradient id="linearGradient14043-3-5" x1="110.97" xlink:href="#linearGradient13214-6" gradientUnits="userSpaceOnUse" y1="976.3" gradientTransform="matrix(3,0,0,2.9991,-332.99,-2928.3)" x2="111" y2="991.87"/>
  <linearGradient id="linearGradient14045-8-1" x1="110.97" xlink:href="#linearGradient13214-6" gradientUnits="userSpaceOnUse" y1="976.3" gradientTransform="matrix(3.0119,0,0,3.0276,-336.48,-2956)" x2="110.97" y2="992.38"/>
  <linearGradient id="linearGradient6129" y2="-781.62" xlink:href="#linearGradient44048-7" gradientUnits="userSpaceOnUse" x2="209.06" gradientTransform="matrix(1.5,0,0,1.5,-309,1177)" y1="-765.46" x1="209.06"/>
  <linearGradient id="linearGradient6161" gradientUnits="userSpaceOnUse" x2="0" y1="17.959" y2="19.959">
   <stop stop-color="#d64912" offset="0"/>
   <stop stop-opacity="0" stop-color="#d64912" offset="1"/>
  </linearGradient>
  <linearGradient id="linearGradient6163" gradientUnits="userSpaceOnUse" x2="0" y1="64" y2="60">
   <stop stop-color="#612d15" offset="0"/>
   <stop stop-opacity="0" stop-color="#8a3f1e" offset="1"/>
  </linearGradient>
  <linearGradient id="linearGradient6165" xlink:href="#d" spreadMethod="reflect" gradientUnits="userSpaceOnUse" gradientTransform="matrix(.4 0 0 .4 -5.1 -2.6)" x2="64" x1="32.627"/>
 </defs>
 <metadata>
  <rdf:RDF>
   <cc:Work rdf:about="">
    <dc:format>image/svg+xml</dc:format>
    <dc:type rdf:resource="http://purl.org/dc/dcmitype/StillImage"/>
    <dc:title>Unity Launcher</dc:title>
    <cc:license rdf:resource="https://creativecommons.org/licenses/by-sa/4.0/"/>
    <dc:creator>
     <cc:Agent>
      <dc:title>HEXcube</dc:title>
     </cc:Agent>
    </dc:creator>
    <dc:description>Mockup of Launcher in Ubuntu&apos;s Unity 7 desktop</dc:description>
   </cc:Work>
   <cc:License rdf:about="https://creativecommons.org/licenses/by-sa/4.0/">
    <cc:permits rdf:resource="https://creativecommons.org/ns#Reproduction"/>
    <cc:permits rdf:resource="https://creativecommons.org/ns#Distribution"/>
    <cc:requires rdf:resource="https://creativecommons.org/ns#Notice"/>
    <cc:requires rdf:resource="https://creativecommons.org/ns#Attribution"/>
    <cc:permits rdf:resource="https://creativecommons.org/ns#DerivativeWorks"/>
    <cc:requires rdf:resource="https://creativecommons.org/ns#ShareAlike"/>
   </cc:License>
  </rdf:RDF>
 </metadata>
 <rect id="launcher" fill-opacity=".39216" height="595" width="64" y="0" x="0" fill="#711d1d"/>
 <rect id="launcher_edge" fill-opacity=".39216" height="595" width="1" y="0" x="64" fill="#808080"/>
 <g id="button" transform="translate(-184.1 -126.65)">
  <rect opacity=".5" rx="4" height="52" filter="url(#0)" width="52" y="132.65" x="190.1"/>
  <g transform="translate(189.1,131.65)">
   <path opacity=".2" d="m5 2c-1.679 0-2.998 1.319-2.998 2.998v44c0 1.679 1.319 2.998 2.998 2.998h44c1.679 0 2.998-1.319 2.998-2.998v-44c0-1.679-1.319-2.998-2.998-2.998h-44z" clip-path="url(#0-4)" filter="url(#1)" stroke="#180c1c" stroke-width="2.5" fill="none"/>
   <rect opacity=".12" rx="4" height="52" width="52" y="1" x="1" fill="url(#linearGradient1803)"/>
   <path opacity=".1" d="m53 5c0-2.216-1.784-4-4-4h-44c-2.216 0-4 1.784-4 4v44c0 2.216 1.784 4 4 4h44c2.216 0 4-1.784 4-4v-44m-0.969 0v44c0 1.703-1.328 3.03-3.03 3.03h-44c-1.704 0-3.03-1.327-3.03-3.03v-44c0-1.704 1.328-3.03 3.03-3.03h44c1.703 0 3.03 1.328 3.03 3.03" fill="url(#linearGradient1805)"/>
   <g fill="url(#linearGradient1807)">
    <path opacity=".2" d="m52 5h1v44h-1z"/>
    <path opacity=".2" d="m1 5h1v44h-1z"/>
    <path opacity=".6" d="m-2 5h1v44h-1z" transform="rotate(-90)"/>
   </g>
  </g>
 </g>
 <use id="button_a" xlink:href="#button" transform="translate(0 59)" height="100%" width="100%" y="0" x="0"/>
 <use id="button_b" xlink:href="#button" transform="translate(0 118)" height="100%" width="100%" y="0" x="0"/>
 <use id="button_c" xlink:href="#button" transform="translate(0 177)" height="100%" width="100%" y="0" x="0"/>
 <use id="button_d" xlink:href="#button" transform="translate(0 236)" height="100%" width="100%" y="0" x="0"/>
 <use id="button_e" xlink:href="#button" transform="translate(0 295)" height="100%" width="100%" y="0" x="0"/>
 <use id="button_f" xlink:href="#button" transform="translate(0 354)" height="100%" width="100%" y="0" x="0"/>
 <use id="button_g" xlink:href="#button" transform="translate(0 531)" height="100%" width="100%" y="0" x="0"/>
 <g id="unity" transform="matrix(.097676 0 0 .097676 94.094 -21.098)">
  <circle cy="543.61" cx="-635.71" r="245.71" fill="#8b2965"/>
  <text font-size="551.3px" font-family="Roboto" xml:space="preserve" y="703.53699" x="-797.8844" font-weight="500" fill="#ffffff"><tspan y="703.53699" x="-797.8844" font-family="ubuntu" fill="#ffffff">u</tspan></text>
  <g fill="#fff">
   <rect rx="5" ry="5" height="57.306" width="57.306" y="415.21" x="-667.49"/>
   <rect rx="5" ry="5" height="57.306" width="57.306" y="488.14" x="-667.49"/>
   <rect rx="5" ry="5" height="57.306" width="57.306" y="561.08" x="-667.49"/>
  </g>
 </g>
 <g id="files" transform="translate(-72.004 -898.36)">
  <use opacity=".4" xlink:href="#M" transform="matrix(.42857 0 0 .5625 66.29 931.36)" height="100%" width="100%" y="0" x="0" fill="url(#0-9)"/>
  <path d="m85.59 966.36c-0.554 0-0.794 0.486-1 1l-1 2.5s-0.594 1.5-0.594 2.5c0 0.554 0.446 1.014 1 1l20-0.5 20 0.5c0.554 0.014 1-0.446 1-1 0-1-0.594-2.5-0.594-2.5l-1-2.5c-0.206-0.514-0.446-1-1-1h-36.812" fill="url(#2)"/>
  <rect rx="1" height="35" width="42" y="971.36" x="83" fill="url(#3)"/>
  <rect rx="1" height="29" width="36" y="974.36" x="86" fill="#1a1a1a"/>
  <rect rx="1" height="3.867" width="28" y="975.36" x="90" fill="#4e1c04"/>
  <path opacity=".3" d="m84 970.36c-0.252 0-0.481 0.097-0.656 0.25-0.166 0.524-0.344 1.18-0.344 1.75 0-0.554 0.446-1 1-1h40c0.554 0 1 0.446 1 1 0-0.57-0.178-1.226-0.344-1.75-0.176-0.153-0.404-0.25-0.656-0.25h-40" fill="#fff"/>
  <rect rx="1" height="4" width="30" y="976.36" x="89" fill="#8c3308"/>
  <path d="m89 977.36h21l1.083-1h7.917c0.554 0 1 0.446 1 1v3c0 0.554-0.446 1-1 1h-30c-0.554 0-1-0.446-1-1v-2c0-0.554 0.446-1 1-1" fill="#c44d22"/>
  <g transform="translate(0,-25)">
   <path d="m88 1002.4c-0.554 0-1 0.446-1 1v4h34.001v-3c0-0.554-0.446-1-1-1h-22l-1-1z" fill="url(#4-6)"/>
   <rect rx="1" height="4" width="34" y="1005.4" x="87" fill="url(#5)"/>
   <path fill="#c75a28" d="m88 464c-0.554 0-1 0.446-1 1v1c0-0.554 0.446-1 1-1h32c0.554 0 1 0.446 1 1v-1c0-0.554-0.446-1-1-1h-32" transform="translate(0,541.36)"/>
   <path d="m89 1004.4h30v1h-30z" fill="#f2f2f2"/>
  </g>
  <use opacity=".3" xlink:href="#M" transform="matrix(.38528 0 0 .10496 70.1 992.09)" height="100%" filter="url(#7)" width="100%" y="0" x="0"/>
  <use opacity=".5" xlink:href="#M" transform="matrix(.33712 0 0 .10496 74.33 995.09)" height="100%" filter="url(#8)" width="100%" y="0" x="0"/>
  <g transform="translate(0,-24)">
   <path opacity=".05" d="m86.5 1005.3c-0.982 0-1.876 0.33-2.469 1.219-0.413 0.62-0.494 1.132-0.594 1.375-0.168 0.409-0.348 0.962-0.438 1.688v19.781c0 0.554 0.446 1 1 1h40c0.554 0 1-0.446 1-1v-19.781c-0.09-0.726-0.27-1.279-0.438-1.688-0.1-0.243-0.181-0.755-0.594-1.375-0.592-0.889-1.487-1.219-2.469-1.219h-35" fill="url(#9)"/>
   <path opacity=".15" d="m86.5 1006.3c-0.581 0-1.296 0.334-1.594 0.781s-0.341 0.799-0.5 1.188c-0.217 0.529-0.427 1.078-0.438 2.063v20h40.062v-20c-0.01-0.985-0.221-1.534-0.438-2.063-0.159-0.388-0.202-0.74-0.5-1.188-0.298-0.447-1.012-0.781-1.594-0.781h-35" fill="url(#A)"/>
   <path transform="translate(0,540.36)" d="m86.5 467c-0.788 0-0.794 0.431-1.156 1.313-0.222 0.54-0.334 0.787-0.344 1.688h38c-0.009-0.901-0.122-1.148-0.344-1.688-0.37-0.88-0.37-1.31-1.16-1.31h-35" fill="#d2d2d2"/>
   <rect rx="1" height="24" width="38" y="1009.4" x="85" fill="url(#linearGradient5884)"/>
   <g transform="translate(0,540.36)">
    <path opacity=".4" d="m86 468c-0.237 0-0.454 0.082-0.625 0.219-0.014 0.034-0.016 0.058-0.031 0.094-0.222 0.54-0.334 0.787-0.344 1.688 0-0.554 0.446-1 1-1h36c0.554 0 1 0.446 1 1-0.009-0.901-0.122-1.148-0.344-1.688-0.015-0.036-0.018-0.059-0.031-0.094-0.17-0.14-0.38-0.22-0.62-0.22h-36" fill="#fff"/>
    <path opacity=".1" d="m86 469c-0.554 0-1 0.446-1 1v22c0 0.554 0.446 1 1 1h16.188l-9.5-24h-6.688" fill="url(#C)"/>
   </g>
   <path opacity=".2" fill="url(#E)" d="m189 67v1c0 0.554 0.446 1 1 1h36c0.554 0 1-0.446 1-1v-1c0 0.554-0.446 1-1 1h-36c-0.554 0-1-0.446-1-1" transform="translate(-104,964.36)"/>
   <path opacity=".6" fill="url(#F)" d="m215 30.5c0 0.828-5.149 1.5-11.5 1.5s-11.5-0.672-11.5-1.5 5.149-1.5 11.5-1.5 11.5 0.672 11.5 1.5" transform="translate(-95,978.36)"/>
  </g>
  <path opacity=".1" d="m99 1015.9c-1.328 0-2.438 1.109-2.438 2.438v7c0 1.328 1.109 2.438 2.438 2.438h10c1.328 0 2.438-1.109 2.438-2.438v-7c0-1.328-1.109-2.438-2.438-2.438h-10" transform="translate(0,-23.8)"/>
  <rect rx="2" height="11" width="14" y="992.36" x="97" fill="url(#G)"/>
  <rect opacity=".7" rx="1" height="7" width="10" y="994.36" x="99" fill="url(#I)"/>
  <rect opacity=".6" rx=".5" height="4" width="8" y="996.36" x="100"/>
  <rect rx=".5" height="4" width="8" y="995.36" x="100" fill="url(#J)"/>
  <path opacity=".2" d="m99 1000.4v1c0 0.554 0.446 1 1 1h8c0.554 0 1-0.446 1-1v-1c0 0.554-0.446 1-1 1h-8c-0.554 0-1-0.446-1-1" fill="#fff"/>
  <path opacity=".5" d="m99 992.36c-1.108 0-2 0.892-2 2v7c0 1.108 0.892 2 2 2h10c1.108 0 2-0.892 2-2v-7c0-1.108-0.892-2-2-2h-10m0 0.344h10c0.926 0 1.656 0.73 1.656 1.656v7c0 0.926-0.73 1.656-1.656 1.656h-10c-0.926 0-1.656-0.73-1.656-1.656v-7c0-0.926 0.73-1.656 1.656-1.656" fill="url(#K)"/>
  <path opacity=".6" fill="url(#F)" d="m215 30.5c0 0.828-5.149 1.5-11.5 1.5s-11.5-0.672-11.5-1.5 5.149-1.5 11.5-1.5 11.5 0.672 11.5 1.5" transform="translate(-93,940.36)"/>
 </g>
 <g id="firefox" transform="matrix(.37890 0 0 .37342 7.7774 125.92)">
  <g id="Globe">
   <ellipse rx="59.336" ry="59.375" cy="59.375" cx="63.755" fill="#110070"/>
   <radialGradient id="XMLID_61_" gradientUnits="userSpaceOnUse" cy="7.227" cx="64.569" r="69.265">
    <stop stop-color="#09c" offset="0"/>
    <stop stop-color="#16a" offset=".727"/>
    <stop stop-color="#125" offset="1"/>
   </radialGradient>
   <ellipse rx="58.215" ry="58.254" cy="59.375" cx="63.755" fill="url(#XMLID_61_)"/>
   <radialGradient id="XMLID_65_" gradientUnits="userSpaceOnUse" cy="42.052" cx="75.38" gradientTransform="matrix(2.2151,1.3358e-7,-1.4e-7,2.3214,-79.129,-60.374)" r="15.166">
    <stop stop-color="#16a" offset="0"/>
    <stop stop-color="#124" offset="1"/>
   </radialGradient>
   <path d="m104.16 47.314c-0.042-0.123 0.384-0.62 0.27 0.024-0.262 0.458 1.058 0.87 1.428 0.36 1.241-1.7-1.17-2.522-2.216-1.732-1.056 0.797-1.638-0.912-0.425-1.155 1.209-0.245 1.311-2.43-0.021-2.438 1.176-0.58-0.453-2.318-1.799-2.615-0.217-1.87-2.189-3.059-3.226-2.38-1.047 0.681-1.137 0.561-2.671-0.37-1.528-0.927-2.264 1.928-1.14 3.175 1.131 1.256 0.311 3.281 0.358 2.935 0 0-0.426 0.766-0.398 1.053-1.294 0.439-1.672-1.383-2.475-1.786-0.585 0.763-1.53 1.17-1.53 1.17l0.071-1.553s-4.017-2.188-5.251-1.575c-1.521 0.47-1.881 3.991-0.5 4.506 1.383 0.521-1.735 1.818 1.393 5.116 3.213 3.386 4.455 3.483 5.111 2.932 0.162-0.139 0.442-0.347 0.784-0.578 0.031 0.13 0.083 0.255 0.163 0.373 0.804 1.209-1.869 2.162-2.242 3.894-0.379 1.751-0.03 5.007 1.556 5.118 0.302-1.735 3.27-1.122 1.655 0.45-1.644 1.603-0.491 1.886-0.491 1.886s0.078 3.003 2.592 2.043c-0.073 0.172-0.132 0.392-0.167 0.632-0.703-0.142-2.421-0.357-2.841 0.841-0.53 1.512-2.774-0.512-4.344 0.167-1.563 0.674-3.844 2.887-3.076 4.443 1.476-0.7 2.606 2.456 0.544 1.808-2.069-0.65-1.667 0.583-1.667 0.583s-2.154 1.699-0.137 3.508c-0.775 0.118-2.152 0.981-1.688 2.874 0 0-0.885 0.032-1.004 1.726-2.887 0.582-2.711 1.478 1.633 0.496-1.753 0.91 1.226 1.338 2.546 1.217 1.322-0.12 4.792 1.591 2.185 1.608-2.612 0.016-1.834 1.294 1.294 1.355 3.123 0.064 2.795 0.788 3.259 0.756s2.484 1.561 2.374 2.444c-0.113 0.884 2.116 1.801 3.566 0.788 0.074 0.919 3.886 0.202 4.45-1.455 4.128 0.631 4.033-0.139 3.114-0.629-2.067-0.316-5.86-3.063-1.746-1.65 4.093 1.411 0.15-1.11-0.929-2.079-2.35-0.457-2.47-2.416-2.47-2.416s1.298-0.739 0.274-2.586c2.539-0.471 1.006-1.364 1.291-2.215 0.285-0.854 1.574-1.942 2.016-2.03 0.084-0.115 0.775 0.023 0.134 0.283-0.554 0.006-0.161 1.566 0.502 1.646 2.242 0.273 1.586-2.654 0.269-3.243-1.32-0.594-0.135-2.204 0.792-1.12 0.927 1.082 2.993-0.133 2.218-1.504 1.232 0.854 1.896-1.909 1.372-3.495 1.648-1.429 1.595-4.278 0.32-4.915-0.627-0.313-0.93-0.516-1.082-0.905 0.757-0.358 1.761-0.622 2.155-0.269 0.641 0.579 2.425-1.018 2.312-2.885 0.751 0.412 1.947-3.395 0.931-4.727 2.326-3.252 1.699-3.547 0.921-3.002-1.17 1.622-5.013 3.563-2.034 0.688 2.892-2.791-0.769-0.675-1.994-0.222-1.441 1.805-2.97 0.938-2.97 0.938s0.065-1.479-1.796-1.509c0.86-2.373-0.526-1.516-1.011-2.164-0.484-0.647-0.659-2.229-0.51-2.634z" fill="url(#XMLID_65_)"/>
   <radialGradient id="XMLID_67_" gradientUnits="userSpaceOnUse" cy="14.165" cx="64.552" r="52.242">
    <stop stop-color="#0F80BC" offset="0"/>
    <stop stop-color="#0A5F9E" offset=".338"/>
    <stop stop-color="#00145A" offset="1"/>
   </radialGradient>
   <path d="m64.61 72.966c-0.337 0.334 0.05 1.343 0.483 1.296 0.434-0.049 1.11-0.24 1.11-0.24s0.337 0.672 0 0.865c-0.339 0.19-1.319 0.108-0.049 0.575 1.303 0.48 1.642 0.336 1.739 0.096 0.095-0.24 0.529-1.056 0.771-1.009 0.195-0.431-0.676-0.814-0.193-1.102 0.483-0.291 0.099-1.346 0.099-1.346s-0.676 0.048-0.966 0.529c-0.29 0.479-0.676-0.049-0.966-0.049-0.049 0.288-0.24 0.528-0.24 0.528l-0.193-0.431c-0.001 0-1.354-0.048-1.595 0.288z" fill="url(#XMLID_67_)"/>
   <clipPath id="XMLID_68_">
    <use xlink:href="#XMLID_8_" height="100%" width="100%" y="0" x="0"/>
   </clipPath>
   <linearGradient id="XMLID_69_" y2="17.077" gradientUnits="userSpaceOnUse" y1="16.592" x2="82.064" x1="76.372">
    <stop stop-color="#0F80BC" offset="0"/>
    <stop stop-color="#0A5F9E" offset="1"/>
   </linearGradient>
   <path fill="url(#XMLID_69_)" d="m65.061 1.002c-0.912 0.203 0.613 3.503 0.613 3.503s-0.055 2.216 0.321 2.329c0.374 0.113 2.852 0.733 4.147 2.345 1.301 1.614 0.625 2.463-0.458 1.997-1.084-0.465-0.797 0.959-0.797 0.959s3.27 1.063 0.8 0.995c-2.475-0.066 1.666 1.741 1.393 1.93-0.273 0.191-0.429 1.231-0.429 1.231s-2.183 0.182-0.333 0.959c6.26 2.637-0.669 1.925-0.669 1.925l-0.884 1.087 1.749 2.194 1.345 0.962s2.833-0.945 3.716-1.093c0.884-0.146 3.114-1.815 3.114-1.815s0.669 0.478 0.169-0.497c-0.501-0.976 1.841-0.54 2.425 0.186l4.134 1.867c0.054 0.144 0.146 0.274 0.292 0.375 0.806 0.565-0.729 1.535-0.573 2.562 0.156 1.016 1.093 2.704 2.121 2.526-0.18-0.969 1.851-1.086 1.144-0.006-0.706 1.077 0.077 1.056 0.077 1.056s0.653 1.521 2.034 0.676c-0.056 0.464 0.227 1.397 1.413 1.459 0 0-0.126 0.506 0.848 0.865-0.132 1.737 0.424 1.792 0.561-0.846 0.245 1.157 0.992-0.471 1.141-1.25 0.15-0.784 1.756-2.505 1.322-0.984-0.431 1.508 4.735 2.06 5.308 0.259 0.578-1.815 2.637-2.763 2.699-3.038 0.062-0.281-4.583-0.712-4.07-0.493 0.514 0.219 1.47-0.948 1.115-1.986 0.576 0.116 0.83-2.301-0.083-2.927 1.143-2.405 0.651-2.48 0.182-2.001-0.57 1.205-2.922 3.023-1.327 0.783 1.609-2.263-0.653-0.284-1.438 0.208-0.689 1.341-1.899 1.08-1.899 1.08s-0.222-0.911-1.516-0.607c0.151-1.612-0.653-0.838-1.12-1.154-0.285-0.193-0.558-0.627-0.726-0.999 1.115 0.452 2.612 0.933 2.354 0.104-0.167-0.542 2.112 0.643 2.192 0.396l2.848-0.396 2.769-1.75c-17.687-15.814-38.014-14.976-38.014-14.976z" clip-path="url(#XMLID_68_)"/>
   <linearGradient id="XMLID_70_" y2="32.832" gradientUnits="userSpaceOnUse" y1="19.147" x2="29.174" x1="38.492">
    <stop stop-color="#0F80BC" offset="0"/>
    <stop stop-color="#0A5F9E" offset=".338"/>
    <stop stop-color="#00145A" offset="1"/>
   </linearGradient>
   <path fill="url(#XMLID_70_)" d="m38.752 6.095c-10.573 4.747-18.551 14.531-18.551 14.531s0.938 2.145 1.265 1.987c0.33-0.156-2.361 5.628-0.386 5.954 1.985 0.325 7.696-3.578 6.637-3.22-1.056 0.356 0.595-2.112 0.595-2.112s2.972-1.318 1.214 0.202c-1.743 1.511 2.318 0.187 2.255 0.496-0.064 0.311 0.525 1.147 0.525 1.147s-1.393 1.494 0.406 0.892c6.172-2.075 0.812 1.779 0.812 1.779l0.106 1.312 2.67 0.464 1.578-0.15s1.381-2.436 1.914-3.098c0.535-0.663 1.028-3.284 1.028-3.284s0.803-0.084-0.213-0.468c-1.016-0.385 0.972-1.583 1.886-1.434l4.303-1.336c0.138 0.068 0.292 0.103 0.47 0.082 0.985-0.114 0.489 1.603 1.294 2.25 0.796 0.644 2.627 1.264 3.283 0.469-0.784-0.594 0.674-2.011 0.86-0.751 0.187 1.249 0.767 0.723 0.767 0.723s1.543-2.654 2.036-4.177c0.27 0.377 2.788-3.309 2.025-5.067-0.771-1.78 0.479-3.456 0.34-3.715-0.143-0.256-0.896 0.528-0.34 0.34 0.561-0.192-1.589 0.772-1.874-2.061-0.288-2.89-0.707 0.243-0.985 1.169 0.377 1.508 4.29-6.093 4.29-6.093l5.044-2.057c0 0.004-11.481-0.957-25.254 5.226z" clip-path="url(#XMLID_68_)"/>
   <linearGradient id="XMLID_71_" y2="9.471" gradientUnits="userSpaceOnUse" y1="36.849" gradientTransform="translate(0,4)" x2="62.652" x1="62.652">
    <stop stop-opacity="0" offset=".477"/>
    <stop stop-opacity=".2" stop-color="#C4E0E3" offset=".713"/>
    <stop stop-color="#C4E0E3" offset=".885"/>
    <stop stop-color="#E8F4F7" offset="1"/>
   </linearGradient>
   <ellipse opacity=".5" rx="30.825" ry="19.971" cy="27.271" cx="62.652" fill="url(#XMLID_71_)"/>
  </g>
  <filter id="blurshadow" y="-.25" x="-.25" width="1.5" height="1.5">
   <feGaussianBlur stdDeviation="1.5" result="blur" in="SourceAlpha"/>
   <feOffset dy="1" result="shift" dx="1" in="blur"/>
   <feMerge>
    <feMergeNode in="shift"/>
    <feMergeNode in="SourceGraphic"/>
   </feMerge>
  </filter>
  <g id="Fox" filter="url(#blurshadow)">
   <linearGradient id="XMLID_74_" y2="48.085" gradientUnits="userSpaceOnUse" y1="56.301" x2="78.466" x1="64.478">
    <stop stop-color="#DF731B" offset="0"/>
    <stop stop-color="#DF731B" offset=".545"/>
    <stop stop-color="#EC8811" offset=".701"/>
    <stop stop-color="#F4950B" offset=".859"/>
    <stop stop-color="#F79A09" offset="1"/>
   </linearGradient>
   <path d="m125.32 43.084-1.426 9.15s-2.039-16.94-4.538-23.273c-3.83-9.704-5.534-9.626-5.545-9.612 2.565 6.519 2.1 10.021 2.1 10.021s-4.545-12.387-16.562-16.328c-14.232-4.665-21.482-2.979-21.428-2.914 0.054 0.066 14.709 2.562 17.308 6.133 0 0-6.225 0-12.42 1.785-0.28 0.08 22.793 2.882 27.51 25.938 0 0-2.529-5.277-5.657-6.173 2.057 6.258 1.529 18.133-0.43 24.035-0.252 0.759-0.51-3.281-4.369-5.021 1.236 8.857-0.074 22.905-6.219 26.775-0.479 0.301 3.852-13.868 0.871-8.39-17.797 27.287-38.956 11.04-47.538 5.249 6.888 1.688 14.205 0.472 18.441-2.423 4.275-2.922 6.804-5.058 9.075-4.553 2.27 0.507 3.781-1.771 2.018-3.792-1.765-2.025-6.051-4.808-11.849-3.291-4.089 1.071-9.156 5.595-16.891 1.014-6.599-3.91-6.554-7.085-6.554-9.108 0-2.024 1.8-5.1 5.076-4.595 2.934 0.453 1.388-1.27 4.545 0 0.86 0.346-0.086-4.129-1.31-6.996 2.357-4.919 10.004-6.381 10.575-6.812 1.034-0.782 0.465-1.172 0.818-2.35 0.33-1.097 0.541-4.062-8.017-3.243-3.938 0.377-6.443-4.726-7.264-5.965 0.266-1.577 0.693-3.018 1.271-4.338 0.587-1.203 1.228-2.305 1.868-3.139 0.2-0.261 0.374-0.49 0.532-0.703 1.276-1.488 2.842-2.76 4.722-3.818 0.981-0.554-10.969-0.035-16.346 6.974-1.443 0.188-3.423-0.228-5.636-0.228-2.774 0-4.953 0.303-6.97 0.81-0.323 0.081-0.844 0.037-1.481-0.115-1.775-1.839-6.797-6.259-7.027-12.254 0 0-7.302 5.612-6.209 20.912-0.096 8.461-2.594 6.042-3.879 10.634-0.598 2.176 0.899 3.815 0.899 3.879-0.002 0.033 1.796-1.946 1.796-1.946s-11.323 19.617 3.3 44.66c12.604 21.589 33.755 31.13 55.703 29.272 3.839-0.25 7.706-0.822 11.564-1.754 51.145-12.36 45.585-74.106 45.585-74.106z" fill="url(#XMLID_74_)"/>
   <linearGradient id="XMLID_75_" y2="37.892" gradientUnits="userSpaceOnUse" y1="36.962" x2="52.697" x1="41.839">
    <stop stop-color="#941403" offset=".011"/>
    <stop stop-color="#E85C0A" offset=".897"/>
   </linearGradient>
   <path d="m45.469 27.61s2.21 6.039 7.167 6.019c9.457-0.038 9.646 0.093 9.707 1.243 0.188 3.5-1.54 4.647-2.201 5.145-0.663 0.497-9.668 5.718-9.999 7.211-0.331 1.492-10.391-14.198-10.391-14.198l5.717-5.42z" fill="url(#XMLID_75_)"/>
   <linearGradient id="XMLID_76_" y2="38.852" gradientUnits="userSpaceOnUse" y1="33.953" x2="63.643" x1="24.45">
    <stop stop-color="#941403" offset=".011"/>
    <stop stop-color="#A32104" offset=".136"/>
    <stop stop-color="#C84107" offset=".498"/>
    <stop stop-color="#DF5509" offset=".789"/>
    <stop stop-color="#E85C0A" offset=".972"/>
   </linearGradient>
   <path d="m50.504 34.12s3.072 3.922 0.749 5.491c-2.838 1.916 4.012 2.335 6.494 0.942s4.006-3.44 4.093-3.745 0.902-3.054-4.279-2.096c-3.276 0.606-4.476 0.746-7.057-0.592z" fill="url(#XMLID_76_)"/>
   <linearGradient id="XMLID_77_" y2="42.945" gradientUnits="userSpaceOnUse" y1="44.32" x2="51.856" x1="48.731">
    <stop stop-color="#F2C8A9" offset="0"/>
    <stop stop-color="#ffc" offset="1"/>
   </linearGradient>
   <path d="m60.143 40.017c0.502-0.378 1.616-1.137 2.042-3.011-0.311 0.126-0.34-0.23-0.707-0.076-6.955 7.255-7.221 2.203-11.017 3.22-3.46 0.947-4.237 2.246-4.383 2.347 0.051 0.073 0.104 0.148 0.155 0.221 0.997 0.506 1.953 2.122 2.671 3.564 0.702 0.836 1.173 1.248 1.241 0.945 0.33-1.493 9.335-6.714 9.998-7.21z" fill="url(#XMLID_77_)"/>
   <linearGradient id="XMLID_78_" y2="84.747" gradientUnits="userSpaceOnUse" y1="82.582" x2="91.339" x1="38.768">
    <stop stop-color="#be2222" offset="0"/>
    <stop stop-color="#DF731B" offset="1"/>
   </linearGradient>
   <path d="m8.18 45.782c-1.42 2.979-10.532 18.377 4.339 44.005 14.552 25.084 39.737 33.276 65.45 27.71 7.34-1.588 15.803-7.331 21.196-11.545-3.465-8.738-1.414-8.41-3.271-7.26-20.714 12.82-37.18 0.174-49.924-1.443-46.883-5.95-37.625-51.566-37.625-51.566l-0.165 0.093z" fill="url(#XMLID_78_)"/>
   <linearGradient id="XMLID_79_" y2="84.212" gradientUnits="userSpaceOnUse" y1="74.424" x2="78.689" x1="51.278">
    <stop stop-color="#941403" offset="0"/>
    <stop stop-color="#DF731B" offset="1"/>
   </linearGradient>
   <path d="m47.219 80.933c4.419 1.325 14.06 0.183 18.201-2.897 2.79-2.074 4.898-3.638 6.671-4.292-3.134-2.129-3.184 0.889-9.774 2.415-13.728 3.185-20.393-3.695-20.393-3.695 0.972 5.444 4.372 8.095 5.902 9.036-0.406-0.36-0.619-0.571-0.607-0.567z" fill="url(#XMLID_79_)"/>
   <linearGradient id="XMLID_80_" x1="6.106" gradientUnits="userSpaceOnUse" y1="87.057" gradientTransform="matrix(.9988 .049 -.049 .9988 4.7153 -1.2399)" x2="32.828" y2="87.057">
    <stop stop-color="#B30000" offset=".056"/>
    <stop stop-color="#DE5C01" offset="1"/>
   </linearGradient>
   <path d="m32.332 105.79s-11.428-12.896-14.618-27.338c-4.704-4.443-8.042-8.2-10.259-10.917 1.28 10.281 6.52 26.236 24.877 38.255z" fill="url(#XMLID_80_)"/>
   <linearGradient id="XMLID_81_" x1="209.72" gradientUnits="userSpaceOnUse" y1="-130.66" gradientTransform="matrix(.9929 .1186 -.1186 .9929 -207.27 181.29)" x2="224.26" y2="-85.619">
    <stop stop-color="#DE7210" offset=".056"/>
    <stop stop-color="#F6C08F" offset="1"/>
   </linearGradient>
   <path d="m22.799 94.082s-7.887-11.228-4.93-20.762c2.66-8.571-0.565-3.472-2.441-1.64-1.895 1.851-2.869-5.464-2.821-6.307 0.003-0.018 0.001-0.026-0.001-0.027-0.119-0.025-3.754 17.526 10.193 28.736z" fill="url(#XMLID_81_)"/>
   <linearGradient id="XMLID_82_" x1="12.471" gradientUnits="userSpaceOnUse" y1="61.107" gradientTransform="matrix(.999 .0448 -.0448 .999 3.2321 -.6968)" x2="12.471" y2="111.45">
    <stop stop-color="#DE7210" offset=".056"/>
    <stop stop-color="#F6C08F" offset="1"/>
   </linearGradient>
   <path d="m11.115 84.294s-1.798-22.788 3.885-26.009c9.025-5.115 0.753-3.919-1.864-2.499-2.645 1.433-2.4-8-2.026-8.896 0.367-0.883-9.315 8.918 0.005 37.404z" fill="url(#XMLID_82_)"/>
   <path d="m50.601 17.239s-7.145 7.257-7.092 7.282c0.054 0.026 0.205 9.315 0.438 11.948 0.856 1.011 3.524 7.588 1.482 6.128-2.086-1.49-0.582-1.522-0.4-0.765 0.005 0.025 0.005 0.037 0 0.037-0.138 0.064-5.185-10.923 5.572-24.63z" fill="#a40000"/>
   <linearGradient id="XMLID_83_" y2="16.85" gradientUnits="userSpaceOnUse" y1="30.846" x2="12.886" x1="18.348">
    <stop stop-color="#941403" offset=".011"/>
    <stop stop-color="#E85C0A" offset=".472"/>
    <stop stop-color="#F9BD5F" offset="1"/>
   </linearGradient>
   <path d="m16.613 11.647s-7.594 5.825-6.143 21.805c5.878-5.277 14.19-9.222 14.19-9.222-1.395-0.878-7.794-5.997-8.047-12.583z" fill="url(#XMLID_83_)"/>
   <linearGradient id="XMLID_84_" y2="16.853" gradientUnits="userSpaceOnUse" y1="34.058" x2="54.792" x1="41.704">
    <stop stop-color="#DE7210" offset=".197"/>
    <stop stop-color="#F9BD5F" offset=".843"/>
    <stop stop-color="#FFFCCF" offset="1"/>
   </linearGradient>
   <path d="m35.328 29.122 11.406 14.185c-3.291-13.93-0.761-22.288 7.34-26.847 1.199-0.676-16.925 0.243-18.746 12.662z" fill="url(#XMLID_84_)"/>
   <linearGradient id="XMLID_85_" y2="84.079" gradientUnits="userSpaceOnUse" y1="57.542" x2="48.052" x1="34.784">
    <stop stop-color="#941403" offset=".017"/>
    <stop stop-color="#E35100" offset=".5"/>
    <stop stop-color="#DF731B" offset="1"/>
   </linearGradient>
   <path d="m27.292 64.164c1.945-12.256 19.002-10.454 19.002-10.454-0.761 0.565-3.683 0.903-4.52 3.241-2.762 7.719-0.128 24.581 17.078 31.653 1.815 0.748-34.434-6.328-31.56-24.44z" fill="url(#XMLID_85_)"/>
   <linearGradient id="XMLID_86_" y2="44.27" gradientUnits="userSpaceOnUse" y1="41.267" x2="58.139" x1="54.825">
    <stop stop-color="#EEA272" offset="0"/>
    <stop stop-color="#EFA777" offset=".186"/>
    <stop stop-color="#F2B585" offset=".406"/>
    <stop stop-color="#F6CD9C" offset=".643"/>
    <stop stop-color="#FCEEBB" offset=".89"/>
    <stop stop-color="#ffc" offset="1"/>
   </linearGradient>
   <path d="m62.087 37.338c-0.084-0.015-0.158-0.013-0.195 0.037-0.21 0.281-1.021 1.239-2.95 2.81-3.583 2.915-5.093 2.177-7.762 2.774-1.215 0.271-2.37 1.087-3.148 1.741 0.315 0.509 0.609 1.057 0.871 1.582 0.702 0.836 1.173 1.248 1.241 0.945 0.331-1.493 9.336-6.714 9.999-7.211 0.47-0.353 1.468-1.054 1.944-2.678z" fill="url(#XMLID_86_)"/>
   <linearGradient id="XMLID_87_" y2="63.893" gradientUnits="userSpaceOnUse" y1="48.361" x2="50.721" x1="35.5">
    <stop stop-color="#DF731B" offset=".197"/>
    <stop stop-color="#F9BD5F" offset=".843"/>
    <stop stop-color="#FFFCCF" offset="1"/>
   </linearGradient>
   <path d="m51.09 55.865c0.1-2.59-0.081-8.881-2.774-11.611-2.057-2.085-2.54-4.474-2.816-7.201-22.363 8.353-25.556 19.272-23.32 18.917 17.886-2.835 22.914-3.182 28.91-0.105z" fill="url(#XMLID_87_)"/>
   <linearGradient id="XMLID_88_" x1="847.47" gradientUnits="userSpaceOnUse" y1="-1065" gradientTransform="matrix(.9673 .2537 -.2537 .9673 -1076.7 855.23)" x2="847.47" y2="-1008">
    <stop stop-color="#DE7210" offset=".056"/>
    <stop stop-color="#F6C08F" offset="1"/>
   </linearGradient>
   <path d="m3.411 71.171s1.554-20.192 11.661-27.582c7.935-5.805 1.773-3.696-1.291-3.456-3.231 0.256-4.954 2.221-4.331 1.498 0.027-0.03 0.036-0.047 0.031-0.055-0.106-0.125-7.584 6.15-6.07 29.595z" fill="url(#XMLID_88_)"/>
   <linearGradient id="XMLID_89_" x1="15.856" gradientUnits="userSpaceOnUse" y1="36.413" gradientTransform="matrix(.9897 -.0801 .0949 1.1727 -3.8203 -4.9468)" x2="-3.437" y2="67.833">
    <stop stop-color="#DE7210" offset=".056"/>
    <stop stop-color="#F2C06E" offset="1"/>
   </linearGradient>
   <path d="m2.347 55.658s5.416-17.192 16.362-17.047c7.259 0.097 1.501-6.134-0.695-7.081-2.291-0.981-2.839-0.943-3.374-0.469-0.802 0.71-8.004 0.436-12.293 24.597z" fill="url(#XMLID_89_)"/>
   <linearGradient id="XMLID_100_" y2="36.006" gradientUnits="userSpaceOnUse" y1="34.297" x2="61.245" x1="60.286">
    <stop stop-color="#8B8B89" offset="0"/>
    <stop stop-color="#120500" offset="1"/>
   </linearGradient>
   <path d="m62.344 34.872c-0.047-0.873-0.176-1.158-4.356-1.229 0.479 0.217 1.305 0.652 2.214 1.398 1.201 0.984 1.396 2.081 1.52 3.217 0.407-0.774 0.705-1.841 0.622-3.386z" fill="url(#XMLID_100_)"/>
   <linearGradient id="XMLID_101_" y2="23.245" gradientUnits="userSpaceOnUse" y1="28.492" x2="22.56" x1="22.56">
    <stop stop-color="#DE7210" offset=".056"/>
    <stop stop-color="#F6C08F" offset="1"/>
   </linearGradient>
   <path d="m37.802 23.206-3.625 5.833s-14.496-2.273-26.785 9.616c-1.016 0.982 8.038-21.023 30.41-15.449z" fill="url(#XMLID_101_)"/>
  </g>
  <g id="Fire">
   <linearGradient id="XMLID_110_" y2="72.741" gradientUnits="userSpaceOnUse" y1="117.37" x2="117.26" x1="88.331">
    <stop stop-color="#DE5C01" offset="0"/>
    <stop stop-color="#FEFD00" offset=".736"/>
    <stop stop-color="#FEFE26" offset=".778"/>
    <stop stop-color="#FFFE54" offset=".837"/>
    <stop stop-color="#FFFF76" offset=".889"/>
    <stop stop-color="#FFFF8B" offset=".932"/>
    <stop stop-color="#FFFF92" offset=".961"/>
   </linearGradient>
   <path d="m124.2 50.76s0.771 17.288-23.244 41.304c-2.669 2.668-17.16 16.244-16.65 20.317 0.174 1.44 38.02-5.8 39.89-61.62z" fill="url(#XMLID_110_)"/>
   <linearGradient id="XMLID_111_" y2="14.417" gradientUnits="userSpaceOnUse" y1="22.738" x2="86.211" x1="105.16">
    <stop stop-color="#F79A09" offset="0"/>
    <stop stop-color="#FEFD00" offset=".736"/>
    <stop stop-color="#FEFE26" offset=".778"/>
    <stop stop-color="#FFFE54" offset=".837"/>
    <stop stop-color="#FFFF76" offset=".889"/>
    <stop stop-color="#FFFF8B" offset=".932"/>
    <stop stop-color="#FFFF92" offset=".961"/>
   </linearGradient>
   <path d="m77.64 10.096c28.926 2.222 34.528 23.021 34.53 21.748 0.07-20.22-27.444-21.755-34.53-21.748z" fill="url(#XMLID_111_)"/>
   <linearGradient id="XMLID_112_" y2="17.106" gradientUnits="userSpaceOnUse" y1="41.729" x2="91.359" x1="117.88">
    <stop stop-color="#DE5C01" offset="0"/>
    <stop stop-color="#FEFD00" offset=".736"/>
    <stop stop-color="#FEFE26" offset=".778"/>
    <stop stop-color="#FFFE54" offset=".837"/>
    <stop stop-color="#FFFF76" offset=".889"/>
    <stop stop-color="#FFFF8B" offset=".932"/>
    <stop stop-color="#FFFF92" offset=".961"/>
   </linearGradient>
   <path d="m86.449 18.003s20.053 4.099 25.709 25.354c0.75 2.815-2.416-17.267-1.439-15.361 0.97 1.916-8.07-9.358-24.271-9.993z" fill="url(#XMLID_112_)"/>
   <linearGradient id="XMLID_113_" x1="1.14" gradientUnits="userSpaceOnUse" y1="145.45" gradientTransform="matrix(.9996 -.0282 .0282 .9996 104.78 -104.62)" x2="-9.966" y2="133.96">
    <stop stop-color="#F79A09" offset="0"/>
    <stop stop-color="#FEFD00" offset=".736"/>
    <stop stop-color="#FEFE26" offset=".778"/>
    <stop stop-color="#FFFE54" offset=".837"/>
    <stop stop-color="#FFFF76" offset=".889"/>
    <stop stop-color="#FFFF8B" offset=".932"/>
    <stop stop-color="#FFFF92" offset=".961"/>
   </linearGradient>
   <path d="m94.464 17.483s18.11 3.775 18.29 32.509c0.127 20.338 3.141 7.635 6.131 3.064 2.578-3.948 0.816-8.76 0.754-8.748-0.01 0.003-1.305-3.743-0.432-2.156 0.039 0.07-1.216-1.034-1.207-1.035 0.21-0.03-0.69-20.652-23.526-23.634z" fill="url(#XMLID_113_)"/>
   <linearGradient id="XMLID_114_" y2="34.332" gradientUnits="userSpaceOnUse" y1="55.834" x2="119.69" x1="113.44">
    <stop stop-color="#F79A09" offset="0"/>
    <stop stop-color="#FEFD00" offset=".736"/>
    <stop stop-color="#FEFE26" offset=".778"/>
    <stop stop-color="#FFFE54" offset=".837"/>
    <stop stop-color="#FFFF76" offset=".889"/>
    <stop stop-color="#FFFF8B" offset=".932"/>
    <stop stop-color="#FFFF92" offset=".961"/>
   </linearGradient>
   <path d="m114.86 21.376s6.505 16.945-0.389 25.371c-2.25 2.75-2.502 16.839 0.247 15.545 2.756-1.296 2.157 7.481 1.796 8.48-0.008 0.019-0.01 0.028-0.006 0.031 0.17 0.111 13.59-21.66-1.65-49.427z" fill="url(#XMLID_114_)"/>
   <linearGradient id="XMLID_115_" x1="-51.966" gradientUnits="userSpaceOnUse" y1="212.79" gradientTransform="matrix(.9992 -.0412 .0412 .9992 151.9 -153.91)" x2="-52.194" y2="196.43">
    <stop stop-color="#F79A09" offset="0"/>
    <stop stop-color="#FEFD00" offset=".736"/>
    <stop stop-color="#FEFE26" offset=".778"/>
    <stop stop-color="#FFFE54" offset=".837"/>
    <stop stop-color="#FFFF76" offset=".889"/>
    <stop stop-color="#FFFF8B" offset=".932"/>
    <stop stop-color="#FFFF92" offset=".961"/>
   </linearGradient>
   <path d="m105.81 39.215s4.095 11.989-0.193 20.56l3.244 7.245c2.38-5.844 5.41-18.203-3.05-27.805z" fill="url(#XMLID_115_)"/>
   <linearGradient id="XMLID_116_" x1="-172.72" gradientUnits="userSpaceOnUse" y1="332.08" gradientTransform="matrix(.9975 -.0707 .0707 .9975 254.6 -268.47)" x2="-161.46" y2="309.89">
    <stop stop-color="#F79A09" offset="0"/>
    <stop stop-color="#FEFD00" offset=".736"/>
    <stop stop-color="#FEFE26" offset=".778"/>
    <stop stop-color="#FFFE54" offset=".837"/>
    <stop stop-color="#FFFF76" offset=".889"/>
    <stop stop-color="#FFFF8B" offset=".932"/>
    <stop stop-color="#FFFF92" offset=".961"/>
   </linearGradient>
   <path d="m113.02 37.789s2.832 19.03-7.387 36.208c0.158 3.973-0.539 7.569-1.496 10.532 0.445 0.586 1.041 0.987 1.827 1.057-0.347 0.32-0.692 0.62-1.026 0.904-0.614 0.271-1.243 0.558-1.852 0.853-0.13 0.303-0.261 0.597-0.389 0.879 0.68-0.477 1.438-1.056 2.24-1.731 2.087-0.922 3.965-1.638 3.961-1.642 0 0-0.383 0.143-1.303 0.478-0.619 0.225-1.16 0.301-1.632 0.259 7.89-7.192 18.7-23.275 7.06-47.797zm-11.91 50.59c-0.902 0.529-1.558 1.025-1.698 1.408-0.103 0.279 0.512 0.118 1.575-0.479 0.05-0.319 0.1-0.632 0.12-0.929z" fill="url(#XMLID_116_)"/>
   <linearGradient id="XMLID_117_" x1="99.206" gradientUnits="userSpaceOnUse" y1="87.747" gradientTransform="matrix(.9975 -.0707 .0707 .9975 -10.967 13.651)" x2="100.72" y2="63.169">
    <stop stop-color="#DE5C01" offset="0"/>
    <stop stop-color="#FEFD00" offset=".736"/>
    <stop stop-color="#FEFE26" offset=".778"/>
    <stop stop-color="#FFFE54" offset=".837"/>
    <stop stop-color="#FFFF76" offset=".889"/>
    <stop stop-color="#FFFF8B" offset=".932"/>
    <stop stop-color="#FFFF92" offset=".961"/>
   </linearGradient>
   <path d="m100.41 58.065s8.057 22.932-17.693 44.432c-1.519 1.269 10.452 0.726 11.5 0.25 3.086-1.402 6.733-10.757 6.303-9.637-0.42 1.116 11.96-16.539-0.11-35.048z" fill="url(#XMLID_117_)"/>
   <linearGradient id="XMLID_118_" y2="85.465" gradientUnits="userSpaceOnUse" y1="108.69" x2="105.88" x1="67.026">
    <stop stop-color="#C0290C" offset="0"/>
    <stop stop-color="#C8450A" offset=".146"/>
    <stop stop-color="#D36C08" offset=".305"/>
    <stop stop-color="#E29E05" offset=".475"/>
    <stop stop-color="#F4DA02" offset=".652"/>
    <stop stop-color="#FEFD00" offset=".746"/>
    <stop stop-color="#FEFD07" offset=".772"/>
    <stop stop-color="#FEFD1B" offset=".811"/>
    <stop stop-color="#FEFE3C" offset=".858"/>
    <stop stop-color="#FFFE69" offset=".91"/>
    <stop stop-color="#FFFFA3" offset=".968"/>
    <stop stop-color="#FFFFC7" offset="1"/>
   </linearGradient>
   <path d="m111.68 72.61s-4.86 29.744-38.461 32.137c-13.157 0.938-32.048-2.141-30.375 2.877 0.519 1.556 2.992 8.043 8.636 9.548 15.275 4.07 55.92 2.73 60.2-44.57z" fill="url(#XMLID_118_)"/>
  </g>
  <linearGradient id="XMLID_119_" x1="54.24" gradientUnits="userSpaceOnUse" y1="93.582" gradientTransform="matrix(.9951 .0989 -.0989 .9951 10.384 -6.0754)" x2="102.91" y2="100.18">
   <stop stop-color="#DE7210" offset=".056"/>
   <stop stop-color="#F6C08F" offset="1"/>
  </linearGradient>
  <path d="m83.657 95.119s-20.559 4.697-33.878-6.641c-12.187-10.377-6.141-1.643-4.488 2.665 1.698 4.418-7.853 1.042-9.289 0.332-1.431-0.701 22.623 14.385 47.655 3.644z" fill="url(#XMLID_119_)"/>
  <linearGradient id="XMLID_120_" x1="39.013" gradientUnits="userSpaceOnUse" y1="89.89" gradientTransform="matrix(.9895 .1448 -.1448 .9895 14.283 -5.8352)" x2="95.522" y2="107.65">
   <stop stop-color="#DE7210" offset=".056"/>
   <stop stop-color="#F6C08F" offset="1"/>
  </linearGradient>
  <path d="m70.408 106.32s-24.525-4.82-32.29-21.438c-6.635-14.197-4.879-3.779-5.178 0.962-0.314 4.877-7.191-1.783-8.11-2.942-0.026-0.028-0.044-0.047-0.046-0.042-0.137 0.095 12.649 20.14 45.624 23.46z" fill="url(#XMLID_120_)"/>
  <linearGradient id="XMLID_121_" x1="-601.47" gradientUnits="userSpaceOnUse" y1="628.96" gradientTransform="matrix(.9837 -.1799 .1799 .9837 500.95 -643.73)" x2="-574.6" y2="680.4">
   <stop stop-color="#DE7210" offset=".056"/>
   <stop stop-color="#F6C08F" offset="1"/>
  </linearGradient>
  <path d="m43.617 104.18s-11.714-9.073-16.995-21.514c-4.438-1.542-10.339-5.067-10.456-5.67 1.875 9.663 11.746 20.95 27.451 27.184z" fill="url(#XMLID_121_)"/>
 </g>
 <g id="writer" transform="translate(12 185)">
  <path style="text-decoration-line:none;text-transform:none;text-indent:0pt" fill="url(#linearGradient13975-6-0)" d="m2.4379 0.014798c-1.3752 0.2624-2.4621 1.5998-2.4375 2.9992v41.987c0.0002 1.57 1.4293 2.999 3 2.999h33.999c1.5707-0.00015 2.9998-1.4289 3-2.9991v-26.182c0.018-0.79196-0.2925-1.5865-0.84375-2.1557l-15.811-15.806c-0.57-0.55094-1.364-0.86186-2.156-0.8435h-18.189c-0.1869-0.017993-0.37554-0.017993-0.5625 0z"/>
  <path style="text-decoration-line:none;text-transform:none;text-indent:0pt" fill="url(#linearGradient13977-0-6)" d="m28.987 0.018038c-0.998 0.3198-1.334 1.8397-0.564 2.5545l9.0357 9.0828c0.83472 0.79561 2.4973 0.11485 2.5413-1.0407v-9.0828c-0.00009-0.79261-0.71746-1.5137-1.506-1.5138h-9.0357c-0.15569-0.02399-0.31499-0.02399-0.47059 0z"/>
  <path style="text-decoration-line:none;text-transform:none;text-indent:0pt" fill="#ccc" d="m2.9996 2.9998v42h34v-26.57l-0.234-0.234-14.907-15.008-0.187-0.188h-18.672z"/>
  <path fill="url(#linearGradient6129)" d="m5 5h16l14 14v24h-30v-38z"/>
  <rect height="10" width="14" y="18" x="18" fill="#058"/>
  <rect height="8" width="12" y="19" x="19" fill="url(#linearGradient13987-0)"/>
  <path fill="#444" d="m26 25-3.5-4.5-3.5 5.5v1h12v-1l-2.4996-3-2.5 2z"/>
  <path fill-opacity=".94118" fill="#eb1" d="m30.995 22.529a3.5 3.4999 0 0 1 -3.5 -3.4999h3.5z"/>
  <rect id="rect39" height="2" width="8" y="18" x="8" fill="#058"/>
  <use xlink:href="#rect39" transform="translate(0,4)" height="100%" width="100%" y="0" x="0"/>
  <use xlink:href="#rect39" transform="translate(0,8)" height="100%" width="100%" y="0" x="0"/>
  <rect id="rect45" height="2" width="24" y="30" x="8" fill="#047"/>
  <use xlink:href="#rect45" transform="translate(0,4)" height="100%" width="100%" y="0" x="0"/>
  <rect height="2" width="18" y="38" x="8" fill="#036"/>
 </g>
 <g id="calc" transform="translate(12 244)">
  <path style="text-decoration-line:none;text-transform:none;text-indent:0pt" fill="url(#linearGradient14043-3-5)" d="m2.4379 0.014979c-1.3752 0.2624-2.4622 1.5997-2.4375 2.9991v41.987c0.00016026 1.57 1.4293 2.999 3 2.999h33.999c1.5707-0.00015 2.9998-1.4289 3-2.9991v-26.182c0.018-0.79196-0.2925-1.5865-0.84375-2.1557l-15.811-15.806c-0.569-0.55098-1.364-0.8619-2.156-0.84355h-18.189c-0.1869-0.017993-0.37554-0.017993-0.5625 0z"/>
  <path style="text-decoration-line:none;text-transform:none;text-indent:0pt" fill="url(#linearGradient14045-8-1)" d="m28.988 0.018264c-0.999 0.3198-1.335 1.8397-0.565 2.5545l9.0357 9.0828c0.83472 0.79561 2.4973 0.11485 2.5413-1.0407v-9.0828c-0.00009-0.79261-0.71746-1.5137-1.506-1.5138h-9.0357c-0.15569-0.02399-0.31499-0.02399-0.47059 0z"/>
  <path style="text-decoration-line:none;text-transform:none;text-indent:0pt" fill="#ccc" d="m3 3v42h34v-26.57l-0.234-0.234-14.907-15.008-0.187-0.188h-18.672z"/>
  <path fill="url(#linearGradient6129)" d="m5 5h16l14 14v24h-30v-38z"/>
  <rect height="21" width="22" y="18" x="8" fill="#ccf4c6"/>
  <rect height="5" width="22" y="18" x="8" fill="#92e285"/>
  <g fill="#170" transform="translate(-468,895.6)">
   <path d="m599 876v21h22v-21h-22zm1 1h6v3h-6v-3zm7 0h6v3h-6v-3zm7 0h6v3h-6v-3zm-14 4h6v3h-6v-3zm7 0h6v3h-6v-3zm7 0h6v3h-6v-3zm-14 4h6v3h-6v-3zm7 0h6v3h-6v-3zm7 0h6v3h-6v-3zm-14 4h6v3h-6v-3zm7 0h6v3h-6v-3zm7 0h6v3h-6v-3zm-14 4h6v3h-6v-3zm7 0h6v3h-6v-3zm7 0h6v3h-6v-3z" transform="translate(-123,-1753.6)" fill="#170"/>
  </g>
  <rect height="11" width="11" y="29" x="21" fill="#808080"/>
  <rect height="9" width="9" y="30" x="22" fill="#ccc"/>
  <rect height="9" width="9" y="30" x="22" fill="#f4f4f4"/>
  <rect height="5" width="3" y="34" x="22" fill="#1c99e0"/>
  <rect height="5" width="3" y="31" x="25" fill="#d36118"/>
  <rect height="3" width="3" y="36" x="28" fill="#e9b913"/>
  <rect height="4" width="1" y="35" x="23" fill="#63bbee"/>
  <rect height="7" width="1" y="32" x="26" fill="#f09e6f"/>
  <rect height="2" width="1" y="37" x="29" fill="#f5ce53"/>
 </g>
 <g id="soft-center" transform="matrix(.35087 0 0 .35087 9.5227 303.67)">
  <use opacity=".2" xlink:href="#3-6" transform="matrix(2.6667,0,0,2.6667,-554.6,-2401)" height="128" filter="url(#H)" width="128" y="0" x="0" fill="url(#M-7)"/>
  <g transform="matrix(2.6667,0,0,2.6667,-554.6,-2401)">
   <path opacity=".3" d="m144 136c0 4.418-25.07 8-56 8s-56-3.582-56-8 25.07-8 56-8 56 3.582 56 8" transform="matrix(.42857 0 0 .5 194.29 876.36)" fill="url(#N)"/>
   <use opacity=".3" xlink:href="#4-8" transform="matrix(.38528 0 0 .10496 198.1 931.09)" height="128" filter="url(#I-4)" width="128" y="0" x="0"/>
  </g>
  <path id="0-95" fill="#a42b06" d="m46 13h8v12h-8z"/>
  <use xlink:href="#0-95" transform="translate(28)" height="128" width="128" y="0" x="0"/>
  <use xlink:href="#C-7" transform="matrix(2.6667,0,0,2.6667,-556.67,-2523.7)" height="128" width="128" y="0" x="0" fill="url(#O)"/>
  <use xlink:href="#9-0" transform="matrix(2.6667,0,0,2.6667,-554.6,-2401)" height="128" width="128" y="0" x="0" fill="url(#P)"/>
  <use xlink:href="#5-7" transform="matrix(2.6667,0,0,2.6667,-554.6,-2401)" height="128" width="128" y="0" x="0" fill="url(#Q)"/>
  <path fill="url(#R)" d="m13.09 21.99 3 4-8 6h2l8-6-2.4-3h96.8l-2.4 3 8 6h2l-8-6 3-4z"/>
  <use opacity=".5" clip-path="url(#G-2)" xlink:href="#A-27" transform="matrix(2.6667,0,0,2.6667,-554.6,-2371)" height="128" filter="url(#J-0)" width="128" y="0" x="0" fill="url(#S)"/>
  <use xlink:href="#F-6" transform="matrix(2.6667,0,0,2.6667,-554.6,-2571.7)" height="128" width="128" y="0" x="0" fill="url(#T)"/>
  <use xlink:href="#D-6" transform="matrix(2.6667,0,0,2.6667,-554.6,-2571.7)" height="128" width="128" y="0" x="0" fill="url(#U)"/>
  <path id="1-1" fill="url(#linearGradient6161)" d="m44.07 17.959h8v2h-8z"/>
  <use xlink:href="#1-1" transform="translate(32)" height="128" width="128" y="0" x="0"/>
  <use id="2-2" opacity=".4" xlink:href="#E-0" transform="translate(-23.927,-24.04)" height="128" width="128" y="0" x="0" fill="url(#linearGradient6163)"/>
  <use xlink:href="#2-2" transform="translate(32)" height="128" width="128" y="0" x="0"/>
  <g fill="#fff">
   <use xlink:href="#6-6" transform="translate(-23.927,-24.01)" height="128" width="128" y="0" x="0"/>
   <use xlink:href="#7-19" transform="matrix(2.6667,0,0,2.6667,-554.6,-2401)" height="128" width="128" y="0" x="0"/>
  </g>
  <use xlink:href="#B-4" transform="matrix(2.6667,0,0,2.6667,-554.6,-2401)" height="128" width="128" y="0" x="0" fill="url(#V)"/>
  <rect rx="3" height="6" width="30" y="81.991" x="42.07" fill="#e50"/>
  <use xlink:href="#8-32" transform="matrix(2.6667,0,0,2.6667,-554.6,-2401)" height="128" width="128" y="0" x="0" fill="url(#W)"/>
 </g>
 <g id="settings" transform="translate(7.9975 361.5)">
  <path opacity=".4" fill="url(#D)" d="m46 40.99c0 3.872-9.85 7.01-22 7.01s-22-3.138-22-7.01c0-3.871 9.85-7.01 22-7.01s22 3.138 22 7.01"/>
  <path opacity=".1" d="m44.04 18.203h-1.696c-0.458 0-0.987-0.38-1.133-0.814-0.008-0.023-1.053-2.547-1.053-2.547-0.215-0.432-0.111-1.073 0.213-1.397l1.2-1.197c0.276-0.276 0.428-0.643 0.428-1.034 0-0.392-0.152-0.759-0.428-1.034l-4.723-4.714c-0.276-0.275-0.644-0.427-1.036-0.427s-0.76 0.152-1.036 0.427l-1.199 1.197c-0.324 0.323-0.967 0.427-1.376 0.223-0.023-0.011-2.552-1.053-2.552-1.053-0.457-0.154-0.838-0.682-0.838-1.139v-1.694c-0.001-0.807-0.658-1.463-1.466-1.463h-6.679c-0.808 0-1.466 0.656-1.466 1.463v1.694c0 0.457-0.381 0.986-0.815 1.131-0.023 0.008-2.552 1.051-2.552 1.051-0.432 0.215-1.075 0.11-1.399-0.213l-1.199-1.197c-0.276-0.276-0.644-0.427-1.036-0.427s-0.76 0.152-1.036 0.427l-4.724 4.715c-0.571 0.57-0.571 1.498 0 2.069l1.2 1.197c0.323 0.323 0.428 0.965 0.223 1.373-0.011 0.023-1.055 2.548-1.055 2.548-0.154 0.456-0.683 0.836-1.141 0.836h-1.257c-0.808 0-1.905 0.657-1.905 1.464v6.667c0 0.807 0.657 1.463 1.466 1.463h1.697c0.458 0 0.987 0.38 1.133 0.814 0.008 0.023 1.053 2.547 1.053 2.547 0.215 0.432 0.111 1.073-0.213 1.397l-1.199 1.197c-0.571 0.57-0.571 1.498 0 2.069l4.723 4.715c0.276 0.275 0.644 0.427 1.036 0.427 0.393 0 0.761-0.152 1.036-0.427l1.2-1.197c0.324-0.323 0.966-0.427 1.376-0.223 0.023 0.011 2.552 1.053 2.552 1.053 0.456 0.154 0.837 0.682 0.837 1.139v1.694c0 0.807 0.657 1.463 1.466 1.463h6.678c0.808 0 1.465-0.656 1.465-1.463v-1.694c0-0.457 0.381-0.986 0.815-1.131 0.023-0.008 2.552-1.051 2.552-1.051 0.432-0.215 1.076-0.111 1.399 0.212l1.2 1.197c0.276 0.275 0.644 0.427 1.036 0.427s0.76-0.152 1.036-0.427l4.723-4.715c0.276-0.275 0.428-0.643 0.428-1.034 0-0.392-0.152-0.759-0.428-1.034l-1.2-1.197c-0.324-0.323-0.428-0.965-0.223-1.373 0.011-0.023 1.055-2.548 1.055-2.548 0.154-0.456 0.683-0.836 1.141-0.836h1.696c0.808 0 1.466-0.656 1.466-1.463v-6.668c0.001-0.807-0.656-1.463-1.465-1.463zm-20.04 11.02c-3.438 0-6.236-2.793-6.236-6.225s2.798-6.226 6.236-6.226c3.439 0 6.236 2.793 6.236 6.226s-2.797 6.225-6.236 6.225" stroke-width="2.667" fill="#030303"/>
  <path stroke-linejoin="round" d="m44.04 18.2h-1.696c-0.458 0-0.987-0.381-1.133-0.815-0.008-0.023-1.053-2.551-1.053-2.551-0.215-0.432-0.111-1.075 0.213-1.399l1.2-1.2c0.276-0.276 0.428-0.644 0.428-1.036s-0.152-0.76-0.428-1.036l-4.723-4.722c-0.276-0.276-0.644-0.428-1.036-0.428s-0.76 0.152-1.036 0.428l-1.199 1.199c-0.324 0.323-0.967 0.428-1.376 0.223-0.023-0.011-2.552-1.055-2.552-1.055-0.457-0.154-0.838-0.683-0.838-1.141v-1.697c-0.001-0.808-0.658-1.466-1.466-1.466h-6.679c-0.808 0-1.466 0.657-1.466 1.466v1.697c0 0.458-0.381 0.987-0.815 1.133-0.023 0.008-2.552 1.053-2.552 1.053-0.432 0.215-1.075 0.111-1.399-0.213l-1.199-1.199c-0.276-0.276-0.644-0.428-1.036-0.428s-0.76 0.152-1.036 0.428l-4.724 4.723c-0.571 0.571-0.571 1.501 0 2.072l1.2 1.2c0.323 0.323 0.428 0.966 0.223 1.376-0.011 0.023-1.055 2.552-1.055 2.552-0.154 0.457-0.683 0.837-1.141 0.837h-1.257c-0.808 0-1.905 0.657-1.905 1.465v6.678c0 0.808 0.657 1.465 1.466 1.465h1.697c0.458 0 0.987 0.381 1.133 0.815 0.008 0.023 1.053 2.551 1.053 2.551 0.215 0.432 0.111 1.075-0.213 1.399l-1.199 1.2c-0.571 0.571-0.571 1.501 0 2.072l4.723 4.723c0.276 0.276 0.644 0.428 1.036 0.428 0.393 0 0.761-0.152 1.036-0.428l1.2-1.199c0.324-0.323 0.966-0.428 1.376-0.223 0.023 0.01 2.552 1.055 2.552 1.055 0.456 0.154 0.837 0.683 0.837 1.141v1.696c0 0.808 0.657 1.466 1.466 1.466h6.678c0.808 0 1.465-0.657 1.465-1.466v-1.696c0-0.458 0.381-0.987 0.815-1.133 0.023-0.008 2.551-1.053 2.551-1.053 0.432-0.215 1.076-0.11 1.399 0.213l1.2 1.199c0.276 0.276 0.644 0.428 1.036 0.428s0.76-0.152 1.036-0.428l4.723-4.723c0.276-0.276 0.428-0.644 0.428-1.036s-0.152-0.76-0.428-1.036l-1.2-1.2c-0.324-0.323-0.428-0.967-0.223-1.375 0.011-0.023 1.055-2.552 1.055-2.552 0.154-0.457 0.683-0.838 1.141-0.838h1.696c0.808 0 1.466-0.657 1.466-1.465v-6.678c0.001-0.808-0.656-1.466-1.465-1.466zm-20.04 11.523c-3.73 0-6.765-3.03-6.765-6.753 0-3.724 3.034-6.753 6.765-6.753 3.73 0 6.764 3.03 6.764 6.753 0 3.724-3.034 6.753-6.764 6.753z" stroke="#888" stroke-linecap="round" fill="url(#C-5)"/>
  <path fill="url(#A-2)" stroke="url(#B)" d="m24.01 9.916c-7.382 0-13.388 5.996-13.388 13.365 0 7.37 6.01 13.365 13.388 13.365 7.382 0 13.388-5.996 13.388-13.365 0-7.37-6.01-13.365-13.388-13.365zm0 23.19c-5.438 0-9.846-4.4-9.846-9.83s4.408-9.83 9.846-9.83 9.846 4.401 9.846 9.83-4.408 9.83-9.846 9.83z"/>
  <path fill="url(#8-3)" stroke="url(#9-9)" d="m24.01 11.507c-6.358 0-11.512 5.146-11.512 11.493 0 6.348 5.154 11.493 11.512 11.493s11.512-5.146 11.512-11.493c0-6.348-5.154-11.493-11.512-11.493zm0 19.09c-4.205 0-7.613-3.403-7.613-7.6 0-4.198 3.408-7.6 7.613-7.6s7.613 3.402 7.613 7.6-3.408 7.6-7.613 7.6z"/>
  <g fill-rule="evenodd">
   <path stroke-linejoin="round" d="m36.844 2.438c0.164-0.008 0.328 0.058 0.438 0.188 0.146 0.172 0.146 0.428 0.031 0.625l-3.063 5.469c-0.275 0.492-0.131 1.135 0.313 1.781 0.447 0.653 1.204 1.294 2.156 1.813 0.953 0.519 1.891 0.817 2.688 0.844 0.792 0.027 1.412-0.195 1.688-0.688l3.094-5.531c0.086-0.153 0.231-0.23 0.406-0.25s0.352 0.027 0.469 0.156c0.063 0.067 0.103 0.16 0.125 0.25 0.593 2.553 0.312 5.489-0.813 7.5-1.536 2.746-4.742 4.054-7.875 3.5-1.28 0.43-3.456 1.178-5.469 3.175l-4.15-4.419c1.814-1.801 2.663-3.444 3.15-4.663-0.423-1.685-0.234-3.471 0.656-5.063 1.125-2.01 3.468-3.79 5.969-4.656 0.054-0.02 0.133-0.029 0.188-0.031z" stroke-dashoffset=".361" stroke="url(#7-1)" stroke-linecap="round" fill="url(#6)"/>
   <path fill="url(#5-9)" d="m36.841 2.935c-0.025 0.01-0.01 0.042 0 0.043l-3.067 5.489c-0.414 0.74-0.115 1.613 0.383 2.34 0.504 0.735 1.284 1.447 2.3 2 1.018 0.555 2.086 0.821 2.982 0.851 0.893 0.03 1.732-0.225 2.13-0.936l3.067-5.532c0.018-0.003 0.046 0.003 0.043 0-0.028-0.03-0.005 0.022 0 0.043 0.566 2.435 0.272 5.249-0.767 7.106-1.421 2.54-4.388 3.754-7.326 3.234-2.925-0.522-5.425-3.067-6.05-5.489-0.394-1.568-0.226-3.253 0.596-4.723 1.037-1.852 3.316-3.596 5.708-4.426"/>
  </g>
  <path d="m35.31 4.469-2.063 3.688c-0.581 1.039-0.159 2.175 0.406 3 0.572 0.834 1.407 1.561 2.5 2.156 1.098 0.598 2.235 0.934 3.25 0.969 1.016 0.034 2.142-0.274 2.688-1.25l2.125-3.844c0.091 1.795-0.117 3.601-0.813 4.844-1.282 2.292-3.985 3.416-6.688 2.938-0.198-0.039-0.403-0.004-0.594 0.063-1.465 0.492-3.293 1.497-5.406 3.594l-1 1-3.094-3.094 0.969-0.969c1.905-1.89 2.948-3.559 3.5-4.938 0.083-0.216 0.087-0.432 0.031-0.656-0.358-1.427-0.209-2.99 0.531-4.313 0.676-1.209 2.101-2.313 3.656-3.188z" stroke-dashoffset=".361" stroke="url(#4-4)" stroke-linecap="round" stroke-width="0.7" fill="none"/>
  <path opacity="0.08" fill-rule="evenodd" d="m30.876 16.282c0.137 0.012 0.258 0.039 0.344 0.125l0.625 0.656c0.344 0.344 0.093 1.189-0.594 1.875l-2.125 2.094-1.875-1.906 2.094-2.094c0.515-0.515 1.12-0.785 1.531-0.75"/>
  <path stroke-linejoin="round" d="m31.473 20.865-21.271 22.696c-1.395 1.394-3.784 1.212-5.38-0.382s-1.778-3.981-0.383-5.376l22.711-21.257 4.322 4.319zm-22.329 17.995c-0.793-0.793-2.088-0.793-2.881 0s-0.793 2.087 0 2.879c0.793 0.793 2.088 0.793 2.881 0s0.793-2.087 0-2.879z" stroke-dashoffset="0.7" stroke="url(#3-9)" stroke-linecap="round" fill="url(#2-8)"/>
  <path opacity=".231" fill="url(#linearGradient5675)" d="m27.535 20.529c-0.555-0.554-1.57-0.432-2.276 0.274l-14.692 13.334c-0.706 0.705-0.161 2.386 0.394 2.94s2.238 1.1 2.944 0.394l13.355-14.67c0.706-0.705 0.828-1.719 0.274-2.272"/>
 </g>
 <g id="trash" fill-rule="evenodd" transform="translate(8.4275 538.55)">
  <path fill="url(#a)" d="m40.4 43.262a16.446 4.5881 0 0 1 -32.893 0 16.446 4.588 0 1 1 32.892 0"/>
  <g stroke-linejoin="round" stroke-linecap="round">
   <path d="m37.335 42.094a13.766 3.22 0 1 1 -27.53 0 13.766 3.22 0 1 1 27.53 0z" stroke="#888" stroke-width=".375" fill="#ddd"/>
   <path d="m6.544 8.36c-0.036-0.045 3.117 32.882 3.118 32.892 0.134 3.288 5.983 3.88 14.06 4.138 9.865-0.102 13.566-1.758 13.706-4.045 0.01-0.045 3.163-32.94 3.175-32.985 1.863-7.28-12.977-6.745-18.17-6.745-5.58 0-17.98-0.17-15.88 6.745z" stroke="url(#b)" stroke-width="0.376" fill="url(#c)"/>
  </g>
  <g stroke-linejoin="round" stroke-linecap="round">
   <path d="m7.742 7.544s12.588-3.906 31.07-0.575c7.05-5.26-16.62-5.64-16.62-5.64s-20.302 1.091-14.452 6.211z" stroke="#666" stroke-width="0.376" fill="url(#linearGradient6165)"/>
   <path d="m36.52 3.037 0.057 0.014c0.083 0.03 0.163 0.05 0.245 0.07l0.058 0.02 0.144 0.04 0.043 0.02c0.01 0.01 0.02 0 0.03 0l0.07 0.03 0.088 0.03c0.02 0.01 0.037 0.01 0.058 0.02l0.144 0.05 0.043 0.02 0.115 0.05c0.014 0 0.03 0.01 0.043 0.01 0.092 0.03 0.185 0.07 0.274 0.1l0.072 0.03 0.072 0.03c0.056 0.02 0.12 0.05 0.173 0.07l0.05 0.03c0 0.01 0.01 0 0.01 0l0.08 0.05c0.01 0.01 0.03 0.01 0.04 0.01 0 0.01 0.01 0.01 0.01 0.02 0.05 0.03 0.11 0.05 0.16 0.07l0.04 0.03c0.01 0.01 0.04 0.02 0.05 0.03l0.03 0.01 0.03 0.02c0.01 0.01 0 0.01 0.01 0.02l0.03 0.01 0.03 0.02 0.01 0.02c0.02 0.01 0.05 0.02 0.07 0.04 0.01 0 0.02 0.01 0.03 0.01l0.03 0.03 0.04 0.03c0.04 0.03 0.1 0.06 0.14 0.1l0.01 0.02c0.04 0.03 0.09 0.06 0.13 0.09 0 0.01-0.01 0.01 0 0.02s0.03 0.02 0.04 0.03 0.01 0.02 0.01 0.03l0.03 0.03c0 0.01 0.01 0 0.01 0l0.01 0.02 0.03 0.03v0.01l0.01 0.01c0.04 0.05 0.08 0.09 0.11 0.14l0.03 0.03v0.02l0.01 0.01 0.03 0.05c0 0.01 0.01 0.01 0.01 0.01 0.01 0.01 0.01 0.03 0.02 0.04 0.01 0.03 0.02 0.06 0.03 0.1 0 0.02 0.01 0.05 0.01 0.07v0.01c0 0.01 0.01 0.02 0.01 0.03v0.1c0 0.01-0.02 0.02-0.02 0.03-0.01 0.01 0 0.02 0 0.03-0.01 0.05-0.03 0.09-0.05 0.14 0 0.01 0.01 0.01 0 0.01 0 0.02-0.01 0.02-0.01 0.03l-0.01 0.03-0.02 0.03-0.02 0.03-0.03 0.06h-0.02c-0.01 0.01 0 0.01 0 0.01l-0.07 0.1-0.02 0.02-0.01 0.03c-0.05 0.05-0.1 0.1-0.15 0.14l-0.02 0.02c-0.01 0.01-0.04 0.02-0.05 0.02-0.01 0.01-0.01 0.02-0.02 0.03-0.02 0.02-0.06 0.04-0.08 0.06l-0.014 0.01c-0.04 0.04-0.09 0.07-0.14 0.1l-0.03 0.03-0.07 0.04c-0.17 0.1-0.36 0.19-0.56 0.28-0.04 0.02-0.08 0.04-0.11 0.05-0.04 0.02-0.08 0.04-0.13 0.06l-0.11 0.04-0.07 0.03h-0.01c-0.036 0.01-0.06 0.03-0.1 0.04-0.06 0.02-0.125 0.05-0.19 0.07-0.1 0.04-0.21 0.07-0.316 0.1l-0.19 0.06c-0.05 0.02-0.1 0.05-0.14 0.06-0.076 0.02-0.143 0.03-0.22 0.06-0.03 0.01-0.08 0.02-0.11 0.02l-0.16 0.04c-0.03 0.01-0.08 0.02-0.11 0.03-0.055 0.02-0.1 0.03-0.16 0.04-0.06 0.02-0.124 0.03-0.186 0.04-0.186 0.05-0.36 0.09-0.55 0.13-0.06 0.02-0.127 0.03-0.19 0.04-0.09 0.02-0.2 0.04-0.3 0.06-0.045 0.01-0.09 0.04-0.14 0.05h-0.01c-0.19 0.04-0.38 0.06-0.57 0.1-0.06 0.01-0.12 0.03-0.19 0.04-0.12 0.02-0.25 0.03-0.37 0.054l-0.29 0.06c-0.19 0.03-0.39 0.05-0.58 0.08-0.06 0.01-0.12 0.02-0.19 0.03-0.13 0.02-0.26 0.02-0.39 0.04-0.07 0.004-0.13 0.02-0.19 0.024-0.07 0.01-0.15 0.02-0.22 0.027-0.11 0.02-0.23 0.03-0.34 0.04h-0.01c-0.52 0.06-1.05 0.11-1.58 0.15l-0.39 0.03c-0.46 0.04-0.927 0.07-1.39 0.1-0.126 0.01-0.26 0.01-0.39 0.015l-0.2 0.016c-0.127 0.01-0.26 0.01-0.39 0.017-0.527 0.02-1.047 0.04-1.574 0.055l-0.39 0.02c-0.264 0-0.524 0.01-0.79 0.01h-1.429c-0.137 0-0.28-0.01-0.42-0.01-0.14-0.004-0.29 0-0.43 0l-0.42-0.016h-0.013c-0.072 0-0.132 0.006-0.203 0l-0.433-0.01-0.42-0.015h-0.01l-0.42-0.014-0.63-0.03h-0.01c-0.56-0.03-1.13-0.07-1.69-0.11h-0.01c-0.42-0.03-0.84-0.07-1.25-0.11h-0.01c-0.28-0.025-0.56-0.05-0.84-0.08l-0.2-0.03c-0.1-0.01-0.21-0.014-0.32-0.03l-0.94-0.12c-0.1-0.014-0.21-0.04-0.31-0.055-0.14-0.03-0.26-0.04-0.4-0.06-0.07-0.01-0.13-0.03-0.2-0.04-0.04-0.01-0.07-0.01-0.11-0.02-0.03-0.01-0.06-0.01-0.1-0.02-0.07-0.01-0.13-0.03-0.2-0.04-0.03 0-0.06-0.01-0.1-0.01-0.07-0.01-0.13-0.03-0.2-0.04l-0.1-0.02c-0.07-0.01-0.13-0.03-0.2-0.04-0.27-0.05-0.54-0.11-0.81-0.17l-0.2-0.05-0.2-0.04-0.1-0.03c-0.09-0.02-0.18-0.04-0.27-0.07-0.04-0.01-0.08-0.03-0.13-0.04-0.09-0.02-0.18-0.04-0.27-0.07l-0.14-0.04c-0.04-0.01-0.08-0.026-0.13-0.04l-0.14-0.04-0.14-0.04c-0.07-0.02-0.13-0.05-0.2-0.07l-0.13-0.04-0.07-0.03c-0.04-0.016-0.08-0.025-0.13-0.04-0.08-0.035-0.17-0.08-0.26-0.11-0.15-0.06-0.29-0.128-0.43-0.197l-0.16-0.08s-0.01 0.01-0.01 0c-0.03-0.01-0.05-0.03-0.08-0.05l-0.081-0.132c-0.093-0.06-0.19-0.112-0.27-0.18-0.01-0.003-0.01-0.01-0.017-0.01l-0.026-0.03-0.02-0.01-0.18-0.15-0.015-0.015c-0.01-0.01-0.02-0.03-0.03-0.04 0-0.004-0.01 0-0.01 0-0.02-0.03-0.03-0.054-0.06-0.084 0 0-0.01 0-0.01-0.01-0.02-0.02-0.03-0.04-0.04-0.07l-0.02-0.01-0.06-0.08-0.01-0.03c-0.01-0.03-0.02-0.06-0.03-0.08l-0.01-0.03v-0.04l-0.02-0.03v-0.2c0-0.01 0.02-0.01 0.02-0.02v-0.06l0.02-0.03v-0.04l0.03-0.09c0-0.01 0.01-0.01 0.01-0.02l0.02-0.03 0.013-0.03 0.02-0.03v-0.01c0.01-0.01 0.02-0.03 0.03-0.04l0.03-0.04c0.01 0 0.01-0.02 0.02-0.03l0.013-0.01 0.016-0.01 0.03-0.04c0.005-0.01 0.02-0.01 0.03-0.01l0.03-0.03c0.01-0.01 0.01-0.02 0.02-0.03l0.03-0.03 0.014-0.01c0.01-0.01 0.03-0.03 0.042-0.04l0.01-0.01 0.053-0.04 0.03-0.01c0.03-0.02 0.046-0.05 0.07-0.07 0.026-0.01 0.05-0.03 0.076-0.04s0.05-0.03 0.07-0.04l0.04-0.03c0.08-0.05 0.15-0.11 0.24-0.15 0.07-0.04 0.15-0.06 0.22-0.1 0.05-0.03 0.1-0.06 0.16-0.08 0.04-0.01 0.08-0.02 0.11-0.04l0.081-0.061 0.116-0.04 0.06-0.03 0.12-0.04 0.11-0.043s0.07-0.03 0.11-0.04 0.08-0.03 0.12-0.04c0.02 0 0.04-0.01 0.06-0.01 0.04-0.01 0.076-0.03 0.114-0.04l0.175-0.055c0.02-0.005 0.04-0.007 0.06-0.013l0.19-0.06h0.01c0.08-0.02 0.164-0.05 0.244-0.07-2.989 0.361-4.789 0.931-4.789 1.941v3.49c0 2.133 8.01 3.866 17.873 3.866 9.867 0 17.872-1.734 17.872-3.867v-3.499c0-1.03-1.875-1.614-4.924-1.96z" stroke="#888" stroke-width="0.187" fill="#fff"/>
  </g>
  <path fill="url(#linearGradient6165)" d="m36.52 3.037 0.057 0.014c0.083 0.03 0.163 0.05 0.245 0.07l0.058 0.02 0.144 0.04 0.043 0.02c0.01 0.01 0.02 0 0.03 0l0.07 0.03 0.088 0.03c0.02 0.01 0.037 0.01 0.058 0.02l0.144 0.05 0.043 0.02 0.115 0.05c0.014 0 0.03 0.01 0.043 0.01 0.092 0.03 0.185 0.07 0.274 0.1l0.072 0.03 0.072 0.03c0.056 0.02 0.12 0.05 0.173 0.07l0.05 0.03c0 0.01 0.01 0 0.01 0l0.08 0.05c0.01 0.01 0.03 0.01 0.04 0.01 0 0.01 0.01 0.01 0.01 0.02 0.05 0.03 0.11 0.05 0.16 0.07l0.04 0.03c0.01 0.01 0.04 0.02 0.05 0.03l0.03 0.01 0.03 0.02c0.01 0.01 0 0.01 0.01 0.02l0.03 0.01 0.03 0.02 0.01 0.02c0.02 0.01 0.05 0.02 0.07 0.04 0.01 0 0.02 0.01 0.03 0.01l0.03 0.03 0.04 0.03c0.04 0.03 0.1 0.06 0.14 0.1l0.01 0.02c0.04 0.03 0.09 0.06 0.13 0.09 0 0.01-0.01 0.01 0 0.02s0.03 0.02 0.04 0.03 0.01 0.02 0.01 0.03l0.03 0.03c0 0.01 0.01 0 0.01 0l0.01 0.02 0.03 0.03v0.01l0.01 0.01c0.04 0.05 0.08 0.09 0.11 0.14l0.03 0.03v0.02l0.01 0.01 0.03 0.05c0 0.01 0.01 0.01 0.01 0.01 0.01 0.01 0.01 0.03 0.02 0.04 0.01 0.03 0.02 0.06 0.03 0.1 0 0.02 0.01 0.05 0.01 0.07v0.01c0 0.01 0.01 0.02 0.01 0.03v0.1c0 0.01-0.02 0.02-0.02 0.03-0.01 0.01 0 0.02 0 0.03-0.01 0.05-0.03 0.09-0.05 0.14 0 0.01 0.01 0.01 0 0.01 0 0.02-0.01 0.02-0.01 0.03l-0.01 0.03-0.02 0.03-0.02 0.03-0.03 0.06h-0.02c-0.01 0.01 0 0.01 0 0.01l-0.07 0.1-0.02 0.02-0.01 0.03c-0.05 0.05-0.1 0.1-0.15 0.14l-0.02 0.02c-0.01 0.01-0.04 0.02-0.05 0.02-0.01 0.01-0.01 0.02-0.02 0.03-0.02 0.02-0.06 0.04-0.08 0.06l-0.014 0.01c-0.04 0.04-0.09 0.07-0.14 0.1l-0.03 0.03-0.07 0.04c-0.17 0.1-0.36 0.19-0.56 0.28-0.04 0.02-0.08 0.04-0.11 0.05-0.04 0.02-0.08 0.04-0.13 0.06l-0.11 0.04-0.07 0.03h-0.01c-0.036 0.01-0.06 0.03-0.1 0.04-0.06 0.02-0.125 0.05-0.19 0.07-0.1 0.04-0.21 0.07-0.316 0.1l-0.19 0.06c-0.05 0.02-0.1 0.05-0.14 0.06-0.076 0.02-0.143 0.03-0.22 0.06-0.03 0.01-0.08 0.02-0.11 0.02l-0.16 0.04c-0.03 0.01-0.08 0.02-0.11 0.03-0.055 0.02-0.1 0.03-0.16 0.04-0.06 0.02-0.124 0.03-0.186 0.04-0.186 0.05-0.36 0.09-0.55 0.13-0.06 0.02-0.127 0.03-0.19 0.04-0.09 0.02-0.2 0.04-0.3 0.06-0.045 0.01-0.09 0.04-0.14 0.05h-0.01c-0.19 0.04-0.38 0.06-0.57 0.1-0.06 0.01-0.12 0.03-0.19 0.04-0.12 0.02-0.25 0.03-0.37 0.054l-0.29 0.06c-0.19 0.03-0.39 0.05-0.58 0.08-0.06 0.01-0.12 0.02-0.19 0.03-0.13 0.02-0.26 0.02-0.39 0.04-0.07 0.004-0.13 0.02-0.19 0.024-0.07 0.01-0.15 0.02-0.22 0.027-0.11 0.02-0.23 0.03-0.34 0.04h-0.01c-0.52 0.06-1.05 0.11-1.58 0.15l-0.39 0.03c-0.46 0.04-0.927 0.07-1.39 0.1-0.126 0.01-0.26 0.01-0.39 0.015l-0.2 0.016c-0.127 0.01-0.26 0.01-0.39 0.017-0.527 0.02-1.047 0.04-1.574 0.055l-0.39 0.02c-0.264 0-0.524 0.01-0.79 0.01h-1.429c-0.137 0-0.28-0.01-0.42-0.01-0.14-0.004-0.29 0-0.43 0l-0.42-0.016h-0.013c-0.072 0-0.132 0.006-0.203 0l-0.433-0.01-0.42-0.015h-0.01l-0.42-0.014-0.63-0.03h-0.01c-0.56-0.03-1.13-0.07-1.69-0.11h-0.01c-0.42-0.03-0.84-0.07-1.25-0.11h-0.01c-0.28-0.03-0.56-0.05-0.84-0.08l-0.2-0.03c-0.11-0.01-0.21-0.015-0.32-0.03-0.31-0.03-0.63-0.08-0.94-0.12-0.1-0.01-0.21-0.04-0.32-0.05-0.14-0.02-0.26-0.033-0.4-0.055-0.07-0.01-0.13-0.03-0.2-0.04-0.03-0.01-0.07-0.01-0.11-0.02-0.03-0.01-0.06-0.01-0.1-0.01l-0.2-0.047c-0.03-0.01-0.07-0.01-0.1-0.01-0.07-0.01-0.13-0.03-0.2-0.04-0.03-0.01-0.07-0.01-0.1-0.01-0.07-0.01-0.13-0.03-0.2-0.04-0.27-0.05-0.54-0.11-0.81-0.162l-0.2-0.043-0.2-0.04-0.1-0.03c-0.09-0.02-0.18-0.04-0.27-0.07-0.04-0.01-0.08-0.02-0.13-0.04-0.09-0.02-0.18-0.04-0.27-0.07l-0.14-0.04c-0.04-0.01-0.08-0.03-0.13-0.04l-0.151-0.067-0.15-0.043c-0.07-0.02-0.13-0.044-0.2-0.066l-0.13-0.04-0.07-0.03c-0.04-0.01-0.08-0.02-0.13-0.04-0.08-0.03-0.17-0.07-0.26-0.11-0.15-0.06-0.29-0.13-0.43-0.19l-0.16-0.08h-0.01c-0.03-0.02-0.04-0.04-0.07-0.06l-0.05-0.141c-0.098-0.06-0.19-0.12-0.27-0.18l-0.02-0.02c-0.01-0.01-0.015-0.02-0.025-0.03l-0.01-0.01c-0.06-0.05-0.12-0.1-0.17-0.152-0.01-0.004-0.01-0.005-0.01-0.012-0.01-0.01-0.018-0.03-0.028-0.04-0.003 0-0.013 0.01-0.015 0-0.027-0.03-0.036-0.05-0.06-0.08-0.01 0-0.01 0-0.017-0.01-0.02-0.02-0.028-0.043-0.044-0.07 0-0.004-0.01-0.004-0.01-0.01l-0.06-0.084-0.01-0.026c-0.01-0.026-0.01-0.057-0.03-0.08 0-0.01-0.01-0.018-0.01-0.03v-0.066l-0.01-0.03v-0.16c0-0.01 0.02-0.017 0.02-0.027v-0.057l0.02-0.023v-0.033l0.03-0.09c0-0.01 0.01-0.01 0.01-0.02l0.02-0.03 0.02-0.03 0.01-0.03v-0.02c0.01-0.01 0.02-0.03 0.03-0.04 0.01-0.02 0.02-0.03 0.03-0.04l0.01-0.03 0.02-0.01 0.02-0.02c0.01-0.01 0.02-0.03 0.03-0.04s0.02-0.01 0.03-0.02l0.03-0.03c0.01 0 0.01-0.02 0.02-0.03l0.03-0.02 0.01-0.02 0.05-0.05 0.01-0.02 0.05-0.04s0.02-0.01 0.03-0.01c0.02-0.02 0.04-0.05 0.07-0.07 0.02-0.017 0.05-0.03 0.07-0.044s0.05-0.026 0.07-0.04l0.04-0.025c0.08-0.05 0.16-0.1 0.25-0.15 0.07-0.04 0.14-0.06 0.22-0.1 0.05-0.02 0.1-0.06 0.16-0.08 0.04-0.02 0.08-0.03 0.11-0.04l0.039-0.031c0.04-0.02 0.08-0.03 0.12-0.04l0.06-0.03 0.117-0.04 0.114-0.04 0.11-0.04c0.04-0.02 0.07-0.03 0.11-0.04 0.02-0.01 0.04-0.01 0.06-0.02 0.04-0.01 0.08-0.03 0.12-0.04l0.17-0.06 0.06-0.01 0.19-0.06h0.02l0.25-0.07c-3 0.37-4.8 0.94-4.8 1.95v3.49c0 2.135 8.01 3.868 17.88 3.868s17.879-1.734 17.879-3.868v-3.5c0-1.032-1.873-1.615-4.922-1.962z"/>
  <path stroke-linejoin="round" d="m23.04 1.145c-0.584 0.003-1.166 0.016-1.747 0.028-4.35 0.155-8.815 0.503-12.777 1.753-1.315 0.45-2.994 1.176-2.8 2.28 0.416 1.194 2.364 1.77 3.924 2.228 4.705 1.192 9.846 1.455 14.856 1.433 4.63-0.085 9.377-0.39 13.657-1.614 1.408-0.452 3.19-1.094 3.292-2.24 0-0.134-0.027-0.276-0.087-0.403-0.685-1.158-2.63-1.684-4.273-2.13-4.483-1.056-9.296-1.36-14.05-1.336zm-0.852 0.612c4.596-0.06 9.283 0.164 13.628 1.1 1.487 0.368 3.25 0.808 3.87 1.766 0.054 0.106 0.086 0.21 0.086 0.32-0.093 0.948-1.713 1.476-2.988 1.85-3.877 1.012-8.18 1.28-12.373 1.35-4.53 0.017-9.19-0.21-13.45-1.197-1.41-0.377-3.17-0.85-3.55-1.836-0.18-0.914 1.33-1.52 2.52-1.892 3.59-1.034 7.64-1.32 11.58-1.447 0.23 0 0.45-0.01 0.68-0.01z" stroke="#bbb" stroke-linecap="round" stroke-width="0.187" fill="#ddd"/>
 </g>
 <path id="shine" opacity=".6" fill="url(#radialGradient1865)" d="m10 6c-2.216 0-4 1.784-4 4v26.469h52v-26.469c0-2.216-1.784-4-4-4h-44"/>
 <use id="shine_a" xlink:href="#shine" transform="translate(0,59)" height="100%" width="100%" y="0" x="0"/>
 <use id="shine_b" xlink:href="#shine" transform="translate(0,118)" height="100%" width="100%" y="0" x="0"/>
 <use id="shine_c" xlink:href="#shine" transform="translate(0,177)" height="100%" width="100%" y="0" x="0"/>
 <use id="shine_d" xlink:href="#shine" transform="translate(0,236)" height="100%" width="100%" y="0" x="0"/>
 <use id="shine_e" xlink:href="#shine" transform="translate(0,295)" height="100%" width="100%" y="0" x="0"/>
 <use id="shine_f" xlink:href="#shine" transform="translate(0,354)" height="100%" width="100%" y="0" x="0"/>
 <use id="shine_g" xlink:href="#shine" transform="translate(0,531)" height="100%" width="100%" y="0" x="0"/>
</svg>
