<?xml version="1.0" encoding="UTF-8" standalone="no"?>
<!-- Created with Inkscape (http://www.inkscape.org/) -->
<svg xmlns:rdf="http://www.w3.org/1999/02/22-rdf-syntax-ns#" xmlns="http://www.w3.org/2000/svg" height="90" width="90" version="1.1" xmlns:cc="http://creativecommons.org/ns#" xmlns:dc="http://purl.org/dc/elements/1.1/" viewBox="0 0 90 90.000001">
 <title>Suru Arrow</title>
 <metadata>
  <rdf:RDF>
   <cc:Work rdf:about="">
    <dc:format>image/svg+xml</dc:format>
    <dc:type rdf:resource="http://purl.org/dc/dcmitype/StillImage"/>
    <dc:title>Suru Arrow</dc:title>
    <cc:license rdf:resource="http://creativecommons.org/licenses/by-sa/3.0/"/>
    <dc:source>http://packages.ubuntu.com/xenial/ubuntu-html5-ui-toolkit</dc:source>
    <dc:description>Derived from `/usr/share/ubuntu-html5-ui-toolkit/0.1/ambiance/img/actions/go-next.svg` in Ubuntu 16.04LTS&apos;s HTML5 UI Toolkit package</dc:description>
    <dc:contributor>
     <cc:Agent>
      <dc:title>HEXcube</dc:title>
     </cc:Agent>
    </dc:contributor>
    <dc:publisher>
     <cc:Agent>
      <dc:title/>
     </cc:Agent>
    </dc:publisher>
    <dc:creator>
     <cc:Agent>
      <dc:title>Canonical</dc:title>
     </cc:Agent>
    </dc:creator>
   </cc:Work>
   <cc:License rdf:about="http://creativecommons.org/licenses/by-sa/3.0/">
    <cc:permits rdf:resource="http://creativecommons.org/ns#Reproduction"/>
    <cc:permits rdf:resource="http://creativecommons.org/ns#Distribution"/>
    <cc:requires rdf:resource="http://creativecommons.org/ns#Notice"/>
    <cc:requires rdf:resource="http://creativecommons.org/ns#Attribution"/>
    <cc:permits rdf:resource="http://creativecommons.org/ns#DerivativeWorks"/>
    <cc:requires rdf:resource="http://creativecommons.org/ns#ShareAlike"/>
   </cc:License>
  </rdf:RDF>
 </metadata>
 <path d="m63.743 32.742c-2.647-4.664-5.635-9.467-8.965-14.411-3.329-4.942-6.899-9.8069-10.71-14.591-1.021-1.2814-2.044-2.5264-3.068-3.74h-11l11 13.871c2.0899 2.7421 4.1373 5.5803 6.1367 8.5261 2.3278 3.4297 4.5123 6.937 6.5583 10.525 2.0453 3.5871 4.5562 8.6508 6.1607 12.078-1.6044 3.4269-4.1153 8.4907-6.1607 12.078-2.046 3.5878-4.2305 7.0951-6.5583 10.524-2 2.947-4.047 5.785-6.137 8.527l-11 13.871 11-0.0001c1.0244-1.2136 2.0467-2.4593 3.0683-3.7404 3.8109-4.7844 7.3811-9.6485 10.709-14.591 3.3303-4.9445 6.3184-9.7466 8.965-14.41 2.6467-4.6644 4.7345-8.751 6.2573-12.258-1.522-3.508-3.61-7.595-6.256-12.259" fill="#b6afaf"/>
</svg>
