<?xml version="1.0" encoding="UTF-8" standalone="no"?>
<svg xmlns:rdf="http://www.w3.org/1999/02/22-rdf-syntax-ns#" xmlns="http://www.w3.org/2000/svg" height="48" width="40" version="1.1" xmlns:cc="http://creativecommons.org/ns#" xmlns:xlink="http://www.w3.org/1999/xlink" xmlns:dc="http://purl.org/dc/elements/1.1/">
  <title>LibreOffice Writer</title>
  <metadata>
   <rdf:RDF>
    <cc:Work rdf:about="">
     <dc:format>image/svg+xml</dc:format>
     <dc:type rdf:resource="http://purl.org/dc/dcmitype/StillImage"/>
     <dc:title>LibreOffice Writer</dc:title>
     <cc:license rdf:resource="https://creativecommons.org/licenses/by-sa/3.0/"/>
     <dc:creator>
      <cc:Agent>
       <dc:title>The Document Foundation</dc:title>
      </cc:Agent>
     </dc:creator>
     <dc:source>https://wiki.documentfoundation.org/File:LibreOffice_Initial_Icons-pre_final.svg</dc:source>
     <dc:description>Optimized from LibreOffice 3.3 offcial icons</dc:description>
    </cc:Work>
   </rdf:RDF>
  </metadata>
   <defs>
  <linearGradient id="linearGradient9334-58">
   <stop stop-color="#0369a3" offset="0"/>
   <stop stop-color="#023f62" offset="1"/>
  </linearGradient>
  <linearGradient id="linearGradient13975-6" x1="110.97" xlink:href="#linearGradient9334-58" gradientUnits="userSpaceOnUse" y1="976.3" gradientTransform="matrix(3 0 0 2.9991 -332.99 -2928.3)" x2="111" y2="991.87"/>
  <linearGradient id="linearGradient13977-0" x1="110.97" xlink:href="#linearGradient9334-58" gradientUnits="userSpaceOnUse" y1="976.3" gradientTransform="matrix(3.0119 0 0 3.0276 -336.48 -2956)" x2="110.97" y2="992.38"/>
  <linearGradient id="linearGradient13987" x1="230" gradientUnits="userSpaceOnUse" y1="-581.64" gradientTransform="matrix(1.5 0 0 1.3333 -314 794.52)" x2="230" y2="-578.64">
   <stop stop-color="#63bbee" offset="0"/>
   <stop stop-color="#aadcf7" offset="1"/>
  </linearGradient>
  <linearGradient id="linearGradient44048" y2="-781.62" gradientUnits="userSpaceOnUse" x2="209.06" gradientTransform="matrix(1.5 0 0 1.5 -309 1177)" y1="-765.46" x1="209.06">
   <stop stop-color="#fff" stop-opacity=".58824" offset="0"/>
   <stop stop-color="#fff" stop-opacity=".86274" offset="1"/>
  </linearGradient>
 </defs>
<path style="text-decoration-line:none;text-transform:none;text-indent:0pt" d="m2.4379 0.014798c-1.3752 0.2624-2.4621 1.5998-2.4375 2.9992v41.987c0.0002 1.57 1.4293 2.999 3 2.999h33.999c1.5707-0.00015 2.9998-1.4289 3-2.9991v-26.182c0.018-0.79196-0.2925-1.5865-0.84375-2.1557l-15.811-15.806c-0.57-0.55094-1.364-0.86186-2.156-0.8435h-18.189c-0.1869-0.017993-0.37554-0.017993-0.5625 0z" fill="url(#linearGradient13975-6)"/>
 <path style="text-decoration-line:none;text-transform:none;text-indent:0pt" d="m28.987 0.018038c-0.998 0.3198-1.334 1.8397-0.564 2.5545l9.0357 9.0828c0.83472 0.79561 2.4973 0.11485 2.5413-1.0407v-9.0828c-0.00009-0.79261-0.71746-1.5137-1.506-1.5138h-9.0357c-0.15569-0.02399-0.31499-0.02399-0.47059 0z" fill="url(#linearGradient13977-0)"/>
 <path style="text-decoration-line:none;text-transform:none;text-indent:0pt" d="m2.9996 2.9998v42h34v-26.57l-0.234-0.234-14.907-15.008-0.187-0.188h-18.672z" fill="#ccc"/>
 <path d="m5 5h16l14 14v24h-30v-38z" fill="url(#linearGradient44048)"/>
 <rect height="10" width="14" y="18" x="18" fill="#058"/>
 <rect height="8" width="12" y="19" x="19" fill="url(#linearGradient13987)"/>
 <path d="m26 25-3.5-4.5-3.5 5.5v1h12v-1l-2.4996-3-2.5 2z" fill="#444"/>
 <path fill="#eb1" d="m30.995 22.529a3.5 3.4999 0 0 1 -3.5 -3.4999h3.5z" fill-opacity=".94118"/>
 <rect id="rect39" height="2" width="8" y="18" x="8" fill="#058"/>
 <use xlink:href="#rect39" transform="translate(0,4)" height="100%" width="100%" y="0" x="0"/>
 <use xlink:href="#rect39" transform="translate(0,8)" height="100%" width="100%" y="0" x="0"/>
 <rect id="rect45" height="2" width="24" y="30" x="8" fill="#047"/>
 <use xlink:href="#rect45" transform="translate(0,4)" height="100%" width="100%" y="0" x="0"/>
 <rect height="2" width="18" y="38" x="8" fill="#036"/>
</svg>
