<?xml version="1.0" encoding="UTF-8" standalone="no"?>
<!-- Created with Inkscape (http://www.inkscape.org/) -->
<svg xmlns:rdf="http://www.w3.org/1999/02/22-rdf-syntax-ns#" xmlns="http://www.w3.org/2000/svg" height="512" width="512" version="1.1" xmlns:cc="http://creativecommons.org/ns#" xmlns:dc="http://purl.org/dc/elements/1.1/" viewBox="0 0 512 512">
  <title>Engineer Logo</title>
  <metadata>
    <rdf:RDF>
      <cc:Work>
        <dc:format>image/svg+xml</dc:format>
        <dc:type rdf:resource="http://purl.org/dc/dcmitype/StillImage"/>
        <dc:title>Engineer Logo</dc:title>
        <dc:creator>
          <cc:Agent>
            <dc:title>Rohan &quot;HEXcube&quot; Villoth</dc:title>
          </cc:Agent>
        </dc:creator>
        <dc:description>Engineer Logo/Emblem/Symbol</dc:description>
        <cc:license rdf:resource="https://creativecommons.org/licenses/by-sa/4.0/"/>
      </cc:Work>
    </rdf:RDF>
  </metadata>
  <rect fill-opacity="0" height="512" width="512" y="0" x="0"/>
  <circle cx="256" cy="256" r="256" fill="white"/>
  <g fill="#283593">
    <path d="m255 66c-1.0732-0.002-2.1482 0.004-3.2227 0.008-1.075 0.0114-2.1438-0.0279-3.2168 0-3.201 0.0831-6.3775 0.23523-9.5625 0.46875-1.013 0.0742-2.0212 0.22302-3.0312 0.3125l-14 46.375c-10.159 2.0969-20.071 5.1804-29.594 9.2188l-39.38-29.59c-1.3157 0.7538-2.6388 1.466-3.9375 2.25-2.7169 1.6399-5.3918 3.3544-8.0312 5.125-2.6393 1.7708-5.2566 3.6002-7.8125 5.5-2.5561 1.8999-5.064 3.8792-7.5312 5.9062-0.9804 0.8056-1.9116 1.6713-2.875 2.5l16.438 45.188c-0.0355 0.0384-0.0583 0.0866-0.0937 0.125l0.125 0.375c-6.9125 7.5338-13.131 15.848-18.5 24.906l-49.5-1.3438c-0.9816 2.224-1.9852 4.4455-2.875 6.6875-1.2123 3.055-2.331 6.1045-3.375 9.1875-1.0437 3.082-2.0292 6.2075-2.9062 9.3125-0.78568 2.782-1.4725 5.5498-2.125 8.3438l40.5 27.094c-0.0492 0.444-0.0174 0.89975-0.0625 1.3438l0.28125 0.1875c-0.4657 4.724-0.6216 9.4482-0.625 14.156h0.23438c0.0364 4.3072 0.24445 8.6322 0.67187 12.949l-41 27.43c0.012 0.053 0.0505 0.10325 0.0625 0.15625 0.71211 3.123 1.498 6.2388 2.375 9.3438s1.8313 6.1992 2.875 9.2812c1.0437 3.083 2.1628 6.1325 3.375 9.1875 0.88008 2.217 1.8405 4.429 2.8125 6.625l49.125-1.3438c0.3285 0.55499 0.7267 1.074 1.0625 1.625h0.3125c2.4079 3.953 4.9672 7.7755 7.6875 11.438 2.7203 3.663 5.587 7.1692 8.5938 10.531l-16.688 45.812c1.45 1.265 2.8912 2.531 4.375 3.75 2.4671 2.027 4.9752 4.0072 7.5312 5.9062 2.556 1.9 5.1733 3.73 7.8125 5.5 2.6393 1.771 5.3144 3.486 8.0312 5.125 0.7772 0.47 1.5552 0.92798 2.3438 1.375l39-29.344c0.567 0.24903 1.1478 0.41424 1.7168 0.65625l0.0957-0.0625c4.305 1.831 8.7013 3.438 13.154 4.875 4.453 1.438 8.9602 2.6808 13.533 3.7188l0.0625 0.15625c0.022 0.005 0.0395 0.0263 0.0625 0.0312l14.031 46.562c1.973 0.20401 3.9252 0.44876 5.9062 0.59375 3.185 0.23401 6.3928 0.35449 9.5938 0.4375 2.14 0.056 4.2875 0.0382 6.4356 0.0312 1.076-0.012 2.1467 0.028 3.2207 0 3.2-0.083 6.3775-0.23575 9.5625-0.46875 1.012-0.074 2.0202-0.2225 3.0312-0.3125l14-46.375c10.158-2.096 20.071-5.1807 29.594-9.2188l39.375 29.594c1.315-0.75302 2.6385-1.465 3.9375-2.25 2.717-1.639 5.3903-3.354 8.0293-5.125 2.64-1.77 5.2584-3.6 7.8144-5.5 2.556-1.899 5.0642-3.8792 7.5312-5.9062 0.98001-0.80499 1.912-1.671 2.875-2.5l-16.438-45.188c0.035-0.039 0.0568-0.087 0.0918-0.125l-0.125-0.375c6.913-7.534 13.131-15.847 18.5-24.906l49.5 1.3438c0.98199-2.224 1.985-4.4455 2.875-6.6875 1.212-3.055 2.331-6.1045 3.375-9.1875 1.044-3.082 2.0292-6.2075 2.9062-9.3125 0.38729-1.3708 0.75077-2.7387 1.0977-4.1074h-125.26a82 82 0 0 1 -68.24 36.617 82 82 0 0 1 -82 -82 82 82 0 0 1 82 -82 82 82 0 0 1 64.486 31.383h127.85c-0.0833-0.30108-0.1572-0.60342-0.24219-0.9043-0.87701-3.105-1.831-6.1992-2.875-9.2812-1.044-3.083-2.163-6.1325-3.375-9.1875-0.88001-2.217-1.8415-4.429-2.8144-6.625l-49.123 1.3438c-0.32898-0.555-0.7265-1.074-1.0625-1.625h-0.3125c-2.408-3.953-4.9675-7.7745-7.6875-11.438-2.72-3.662-5.5887-7.1698-8.5957-10.531l16.689-45.812c-1.45-1.2646-2.891-2.5309-4.375-3.75-2.467-2.0271-4.9762-4.0064-7.5312-5.9062-2.557-1.8998-5.1735-3.7292-7.8125-5.5-2.639-1.7707-5.3142-3.485-8.0312-5.125-0.77798-0.4691-1.5548-0.9276-2.3438-1.375l-39 29.344c-0.56799-0.2489-1.1517-0.41465-1.7207-0.65625l-0.0918 0.0625c-4.306-1.8309-8.7052-3.4373-13.158-4.875-4.453-1.4376-8.9563-2.68-13.529-3.7188l-0.0625-0.15625c-0.023-0.005-0.0405-0.0263-0.0625-0.0312l-14.031-46.562c-1.974-0.20361-3.9252-0.44845-5.9062-0.59375-3.185-0.23352-6.3937-0.3544-9.5938-0.4375-1.0705-0.0278-2.1436-0.0373-3.2168-0.0391z"/>
    <rect height="64" width="138" y="226" x="106"/>
    <path d="m244 226 16 32-16 32z"/>
  </g>
  <text font-size="88px" font-family="Orbitron" xml:space="preserve" style="word-spacing:0px;letter-spacing:8px" y="290" x="324" font-weight="900" line-height="125%" fill="#283593"><tspan style="letter-spacing:8px" font-family="Orbitron" font-size="88px" y="290" x="324" font-weight="900" fill="#283593">Er</tspan></text>
</svg>
