<?xml version="1.0" encoding="UTF-8" standalone="no"?>
<svg xmlns:rdf="http://www.w3.org/1999/02/22-rdf-syntax-ns#" xmlns="http://www.w3.org/2000/svg" height="121.04" width="121.53" version="1.1" xmlns:cc="http://creativecommons.org/ns#" xmlns:dc="http://purl.org/dc/elements/1.1/" viewBox="0 0 121.53 121.03999">
 <title>Ubuntu Logo Whirlwind</title>
 <metadata>
  <rdf:RDF>
   <cc:Work rdf:about="">
    <dc:format>image/svg+xml</dc:format>
    <dc:type rdf:resource="http://purl.org/dc/dcmitype/StillImage"/>
    <dc:title>Ubuntu Logo Whirlwind</dc:title>
    <dc:creator>
     <cc:Agent>
      <dc:title>Akhil Kay</dc:title>
     </cc:Agent>
    </dc:creator>
    <dc:description>A vector recreation of the Whilwind logo in Dash Button of Ubuntu Unity desktop</dc:description>
    <dc:contributor>
     <cc:Agent>
      <dc:title>HEXcube</dc:title>
     </cc:Agent>
    </dc:contributor>
    <cc:license rdf:resource="https://creativecommons.org/licenses/by-sa/4.0/"/>
   </cc:Work>
  </rdf:RDF>
 </metadata>
 <defs>
  <filter id="6" color-interpolation-filters="sRGB">
   <feFlood result="flood" flood-opacity=".89412"/>
   <feComposite operator="in" result="composite1" in2="SourceGraphic" in="flood"/>
   <feGaussianBlur stdDeviation="4" result="blur" in="composite1"/>
   <feOffset result="offset" dx="0" dy="0"/>
   <feComposite operator="over" result="composite2" in2="offset" in="SourceGraphic"/>
  </filter>
  <linearGradient id="3" gradientUnits="userSpaceOnUse" x2="234.37" x1="-4.919">
   <stop stop-color="#fff" stop-opacity=".8" offset="0"/>
   <stop stop-color="#fff" stop-opacity="0" offset=".475"/>
   <stop stop-color="#fff" stop-opacity="0" offset=".481"/>
   <stop stop-color="#fff" stop-opacity="0" offset=".523"/>
  </linearGradient>
  <mask id="0" maskUnits="userSpaceOnUse">
   <path opacity=".99" d="m-0.003 0h121.53v121.04h-121.53z" fill="url(#1)"/>
  </mask>
  <radialGradient id="5" gradientUnits="userSpaceOnUse" cy="61.31" cx="28.501" r="189.4">
   <stop stop-color="#fff" offset="0"/>
   <stop stop-color="#fff" stop-opacity=".923" offset=".052"/>
   <stop stop-color="#fff" stop-opacity="0" offset=".677"/>
  </radialGradient>
  <radialGradient id="4" fx="38.856" fy="73.47" gradientUnits="userSpaceOnUse" cy="66.742" cx="55.03" r="103.44">
   <stop stop-color="#fff" offset=".072"/>
   <stop stop-color="#fff" stop-opacity=".1" offset=".735"/>
  </radialGradient>
  <radialGradient id="2" fx="75.15" fy="65.722" gradientUnits="userSpaceOnUse" cy="64.13" cx="133.58" r="244.22">
   <stop stop-color="#fff" stop-opacity=".9" offset=".028"/>
   <stop stop-color="#fff" stop-opacity="0" offset=".746"/>
  </radialGradient>
  <radialGradient id="1" gradientUnits="userSpaceOnUse" cy="60.52" cx="60.764" gradientTransform="matrix(1.2251 0 0 1.2328-13.676-14.09)" r="60.767">
   <stop stop-color="#fff" offset="0"/>
   <stop stop-color="#fff" offset=".691"/>
   <stop offset="1"/>
  </radialGradient>
 </defs>
 <g transform="translate(-148.55-268.55)">
  <g mask="url(#0)" transform="matrix(.99997 0 0 .99997 148.55 268.55)">
   <path d="m74.83 16.312c-25.738-15.304-58.853-7.284-74.83 17.796v86.94h34.423c-6.903-4.72-12.418-10.77-16.423-17.6v-0.391h-0.223c-9.631-16.741-10.207-38.04 0.369-55.83 13.273-22.323 42.13-29.66 64.45-16.388l8.619 49.939c13.272-22.324 5.935-51.18-16.388-64.45z" fill="url(#2)"/>
   <path d="m121.53 76.21c-9.2 21.14-32.22 34.921-48.22 33.891-31.693-2.04-45.75-23.342-49.07-44.984l24.268-39.42c-25.527 4.964-42.34 30.46-37.557 56.947 1.078 5.964 3.259 14.805 7.096 20.841 6.922 10.888 16.818 17.491 16.818 17.491l86.67-0.084v-44.681" fill="url(#3)"/>
   <path d="m33.09 10.737c14.178-3.604 28.91-1.474 41.486 6 22.05 13.11 29.322 41.717 16.213 63.768l0.859 0.512c13.393-22.525 5.963-51.746-16.562-65.14-12.803-7.613-27.806-9.785-42.24-6.113-13.323 3.387-24.685 11.384-32.34 22.66v1.821c7.517-11.737 19.02-20.06 32.589-23.513" fill="#e6e7e8"/>
   <path d="m121.5 0.03h-38.73c17.646 9.523 29.478 28.335 29.05 49.764-0.521 25.967-21.993 46.592-47.96 46.07l-37.995-24.267c4.784 25.527 29.356 42.34 54.882 37.557 18.962-3.554 33.824-16.401 40.781-32.946l-0.03-76.18z" fill="url(#4)"/>
   <path d="m110.99 38.32c-0.92-5.99-5.04-14.839-8.87-20.875-6.931-10.887-19.543-17.445-19.543-17.445l-82.19 0.092-0.397 34.02c11.02-15.869 29.01-26.2 44.37-25.565 39.26 1.63 51.42 24.735 53.33 48.15l-28.762 38.584c23.303-1.834 47.31-22.709 42.05-56.959z" fill="url(#5)"/>
   <g fill="#e6e7e8">
    <path d="m12.572 88.95c-3.604-14.178-1.474-28.91 6-41.484 6.352-10.683 16.482-18.252 28.525-21.313 12.05-3.063 24.561-1.252 35.24 5.1l0.511-0.859c-10.911-6.487-23.696-8.338-35.999-5.21s-22.65 10.86-29.14 21.771c-7.612 12.804-9.783 27.807-6.113 42.24 3.243 12.754 10.707 23.711 21.23 31.343h1.746c-10.941-7.52-18.704-18.6-22.01-31.586z"/>
    <path d="m111.32 49.784c-0.509 25.332-21.279 45.593-46.5 45.592-0.313 0-0.63-0.003-0.945-0.01l-0.02 1c0.323 0.007 0.643 0.01 0.965 0.01 25.766-0.002 46.985-20.696 47.5-46.572 0.43-21.265-11.17-40.02-28.538-49.773h-2.105c17.942 9.299 30.07 28.21 29.643 49.753"/>
    <path d="m80.66 108.66c-12.216 2.29-24.59-0.32-34.845-7.33-10.256-7.02-17.16-17.613-19.454-29.828l-1.178-1.124 0.195 1.308c2.338 12.478 9.396 23.297 19.872 30.467 7.997 5.473 17.255 8.317 26.739 8.317 2.939 0 5.902-0.273 8.854-0.827 14.642-2.744 27.337-11.03 35.75-23.318 1.701-2.486 3.175-5.08 4.438-7.751v-2.421c-1.416 3.333-3.172 6.551-5.264 9.607-8.27 12.07-20.736 20.2-35.11 22.893z"/>
   </g>
   <g filter="url(#6)">
    <path d="m60.763 23.21c-20.469 0-37.06 16.595-37.06 37.07 0 20.47 16.596 37.06 37.07 37.06 20.469 0 37.06-16.596 37.06-37.06 0-20.471-16.596-37.07-37.07-37.07m8.318 12.765c1.367-2.366 4.393-3.178 6.759-1.812 2.366 1.367 3.177 4.393 1.81 6.76-1.365 2.365-4.391 3.176-6.758 1.809-2.366-1.366-3.176-4.391-1.811-6.757m-33.52 29.25c-2.733 0-4.95-2.215-4.95-4.947 0-2.733 2.217-4.948 4.95-4.948 2.732 0 4.947 2.215 4.947 4.948 0 2.732-2.215 4.947-4.947 4.947m4.386 0.44c1.563-1.273 2.562-3.214 2.562-5.388 0-2.176-0.998-4.115-2.562-5.39 1.339-5.181 4.56-9.604 8.892-12.497l3.616 6.06c-3.716 2.616-6.146 6.936-6.146 11.826 0 4.892 2.43 9.212 6.146 11.826l-3.618 6.06c-4.33-2.895-7.552-7.316-8.89-12.498m35.893 20.723c-2.366 1.368-5.392 0.557-6.759-1.812-1.365-2.366-0.555-5.391 1.811-6.757 2.367-1.367 5.393-0.554 6.76 1.812 1.366 2.366 0.554 5.391-1.812 6.757m-0.015-10.784c-1.881-0.709-4.055-0.603-5.934 0.481-1.881 1.086-3.062 2.919-3.385 4.907-1.828 0.504-3.752 0.78-5.742 0.78-3.422 0-6.656-0.802-9.527-2.224l3.438-6.161c1.852 0.859 3.912 1.343 6.09 1.343 7.551 0 13.746-5.789 14.395-13.173l7.05 0.104c-0.348 5.452-2.729 10.347-6.389 13.943m-0.666-16.61c-0.648-7.383-6.844-13.173-14.395-13.173-2.176 0-4.238 0.483-6.089 1.345l-3.438-6.162c2.872-1.422 6.105-2.226 9.527-2.226 1.99 0 3.914 0.276 5.742 0.782 0.323 1.988 1.504 3.819 3.385 4.905 1.879 1.085 4.053 1.192 5.934 0.481 3.66 3.598 6.04 8.493 6.388 13.943l-7.05 0.105" fill="#fff"/>
   </g>
  </g>
 </g>
</svg>
