<?xml version="1.0" encoding="UTF-8" standalone="no"?>
<svg xmlns:rdf="http://www.w3.org/1999/02/22-rdf-syntax-ns#" xmlns="http://www.w3.org/2000/svg" height="48" width="48" version="1.1" xmlns:cc="http://creativecommons.org/ns#" xmlns:xlink="http://www.w3.org/1999/xlink" xmlns:dc="http://purl.org/dc/elements/1.1/">
 <title>Settings</title>
 <metadata>
  <rdf:RDF>
   <cc:Work rdf:about="">
    <dc:format>image/svg+xml</dc:format>
    <dc:type rdf:resource="http://purl.org/dc/dcmitype/StillImage"/>
    <dc:title>Settings</dc:title>
    <cc:license rdf:resource="https://www.gnu.org/licenses/old-licenses/gpl-2.0.en.html"/>
    <dc:creator>
     <cc:Agent>
      <dc:title>Canonical</dc:title>
     </cc:Agent>
    </dc:creator>
    <dc:source>http://packages.ubuntu.com/trusty/humanity-icon-theme</dc:source>
    <dc:description>Optimized from `/usr/share/icons/Humanity/categories/48/preferences-system.svg` in Ubuntu 14.04LTS&apos;s Humanity icon theme</dc:description>
   </cc:Work>
  </rdf:RDF>
 </metadata>
 <defs>
  <linearGradient id="8" xlink:href="#0" gradientUnits="userSpaceOnUse" y1="21.523" gradientTransform="matrix(.37137 0 0 .37075.238-.357)" x2="0" y2="103.07"/>
  <linearGradient id="6" x1="304.76" gradientUnits="userSpaceOnUse" y1="64.3" gradientTransform="matrix(-1.363 0 0 1.3617 452.82-67.958)" x2="335.3" y2="81.926">
   <stop stop-color="#d3d7cf" offset="0"/>
   <stop stop-color="#babdb6" offset=".183"/>
   <stop stop-color="#fff" offset=".319"/>
   <stop stop-color="#babdb6" offset=".876"/>
   <stop stop-color="#eeeeec" offset="1"/>
  </linearGradient>
  <linearGradient id="9" x1="49.27" xlink:href="#0" gradientUnits="userSpaceOnUse" y1="22.275" gradientTransform="matrix(.37137 0 0 .37075.238-.357)" x2="49.37" y2="102.05"/>
  <linearGradient id="B" x1="86.13" gradientUnits="userSpaceOnUse" y1="105.1" gradientTransform="matrix(.32178 0 0 .32124 3.412 3.043)" x2="84.64" y2="20.895">
   <stop stop-color="#fff" offset="0"/>
   <stop stop-color="#959595" offset="1"/>
  </linearGradient>
  <linearGradient id="C" gradientUnits="userSpaceOnUse" x2="0" y2="43.961" y1="2.578">
   <stop stop-color="#f2f2f2" offset="0"/>
   <stop stop-color="#d8d8d8" offset="1"/>
  </linearGradient>
  <linearGradient id="A" gradientUnits="userSpaceOnUse" y1="21.941" gradientTransform="matrix(.32178 0 0 .32124 3.412 3.043)" x2="0" y2="104.06">
   <stop stop-color="#dadada" offset="0"/>
   <stop stop-color="#ccc" offset="1"/>
  </linearGradient>
  <linearGradient id="7" x1="301.32" gradientUnits="userSpaceOnUse" y1="52.787" gradientTransform="matrix(-1.363 0 0 1.3617 452.82-67.958)" x2="305.67" y2="58.61">
   <stop stop-color="#888a85" offset="0"/>
   <stop stop-color="#555753" offset="1"/>
  </linearGradient>
  <linearGradient id="0" gradientUnits="userSpaceOnUse" x2="0" y2="103.07" y1="21.523">
   <stop stop-color="#d9d9d9" offset="0"/>
   <stop stop-color="#ccc" offset="1"/>
  </linearGradient>
  <linearGradient id="1" x1="-6.308" gradientUnits="userSpaceOnUse" y1="44.23" gradientTransform="matrix(-.50045-.49965-.84917.84785 49.11-9.01)" x2="-9.775" y2="44.14">
   <stop offset="0"/>
   <stop stop-opacity="0" offset="1"/>
  </linearGradient>
  <linearGradient id="2" x1="97.44" gradientUnits="userSpaceOnUse" y1="35.15" gradientTransform="matrix(-.82274-.82219-.71961.71912 121.1 81.55)" x2="90.22" y2="35.08">
   <stop stop-color="#f8b17e" offset="0"/>
   <stop stop-color="#e35d4f" offset=".262"/>
   <stop stop-color="#c6262e" offset=".663"/>
   <stop stop-color="#690b54" offset="1"/>
  </linearGradient>
  <linearGradient id="4" x1="326.6" gradientUnits="userSpaceOnUse" y1="75.58" gradientTransform="matrix(-1.363 0 0 1.3617 452.82-67.958)" x2="317.16" y2="88.01">
   <stop stop-color="#fff" offset="0"/>
   <stop stop-color="#fff" stop-opacity="0" offset="1"/>
  </linearGradient>
  <linearGradient id="5" x1="302.29" gradientUnits="userSpaceOnUse" y1="58.44" gradientTransform="matrix(-1.363 0 0 1.3617 452.82-67.958)" x2="308.65" y2="60.768">
   <stop stop-color="#babdb6" offset="0"/>
   <stop stop-color="#fff" offset="1"/>
  </linearGradient>
  <linearGradient id="3" y2="27.27" gradientUnits="userSpaceOnUse" y1="34.02" x2="13" x1="19.723">
   <stop stop-color="#791235" offset="0"/>
   <stop stop-color="#dd3b27" offset="1"/>
  </linearGradient>
  <radialGradient id="D" xlink:href="#1" gradientUnits="userSpaceOnUse" cy="73.62" cx="6.703" gradientTransform="matrix(3.0435 0 0 .96975 3.6-30.399)" r="7.228"/>
 </defs>
 <path opacity=".4" d="m46 40.99c0 3.872-9.85 7.01-22 7.01s-22-3.138-22-7.01c0-3.871 9.85-7.01 22-7.01s22 3.138 22 7.01" fill="url(#D)"/>
 <path opacity=".1" stroke-width="2.667" d="m44.04 18.203h-1.696c-0.458 0-0.987-0.38-1.133-0.814-0.008-0.023-1.053-2.547-1.053-2.547-0.215-0.432-0.111-1.073 0.213-1.397l1.2-1.197c0.276-0.276 0.428-0.643 0.428-1.034 0-0.392-0.152-0.759-0.428-1.034l-4.723-4.714c-0.276-0.275-0.644-0.427-1.036-0.427s-0.76 0.152-1.036 0.427l-1.199 1.197c-0.324 0.323-0.967 0.427-1.376 0.223-0.023-0.011-2.552-1.053-2.552-1.053-0.457-0.154-0.838-0.682-0.838-1.139v-1.694c-0.001-0.807-0.658-1.463-1.466-1.463h-6.679c-0.808 0-1.466 0.656-1.466 1.463v1.694c0 0.457-0.381 0.986-0.815 1.131-0.023 0.008-2.552 1.051-2.552 1.051-0.432 0.215-1.075 0.11-1.399-0.213l-1.199-1.197c-0.276-0.276-0.644-0.427-1.036-0.427s-0.76 0.152-1.036 0.427l-4.724 4.715c-0.571 0.57-0.571 1.498 0 2.069l1.2 1.197c0.323 0.323 0.428 0.965 0.223 1.373-0.011 0.023-1.055 2.548-1.055 2.548-0.154 0.456-0.683 0.836-1.141 0.836h-1.257c-0.808 0-1.905 0.657-1.905 1.464v6.667c0 0.807 0.657 1.463 1.466 1.463h1.697c0.458 0 0.987 0.38 1.133 0.814 0.008 0.023 1.053 2.547 1.053 2.547 0.215 0.432 0.111 1.073-0.213 1.397l-1.199 1.197c-0.571 0.57-0.571 1.498 0 2.069l4.723 4.715c0.276 0.275 0.644 0.427 1.036 0.427 0.393 0 0.761-0.152 1.036-0.427l1.2-1.197c0.324-0.323 0.966-0.427 1.376-0.223 0.023 0.011 2.552 1.053 2.552 1.053 0.456 0.154 0.837 0.682 0.837 1.139v1.694c0 0.807 0.657 1.463 1.466 1.463h6.678c0.808 0 1.465-0.656 1.465-1.463v-1.694c0-0.457 0.381-0.986 0.815-1.131 0.023-0.008 2.552-1.051 2.552-1.051 0.432-0.215 1.076-0.111 1.399 0.212l1.2 1.197c0.276 0.275 0.644 0.427 1.036 0.427s0.76-0.152 1.036-0.427l4.723-4.715c0.276-0.275 0.428-0.643 0.428-1.034 0-0.392-0.152-0.759-0.428-1.034l-1.2-1.197c-0.324-0.323-0.428-0.965-0.223-1.373 0.011-0.023 1.055-2.548 1.055-2.548 0.154-0.456 0.683-0.836 1.141-0.836h1.696c0.808 0 1.466-0.656 1.466-1.463v-6.668c0.001-0.807-0.656-1.463-1.465-1.463zm-20.04 11.02c-3.438 0-6.236-2.793-6.236-6.225s2.798-6.226 6.236-6.226c3.439 0 6.236 2.793 6.236 6.226s-2.797 6.225-6.236 6.225" fill="#030303"/>
 <path stroke-linejoin="round" d="m44.04 18.2h-1.696c-0.458 0-0.987-0.381-1.133-0.815-0.008-0.023-1.053-2.551-1.053-2.551-0.215-0.432-0.111-1.075 0.213-1.399l1.2-1.2c0.276-0.276 0.428-0.644 0.428-1.036s-0.152-0.76-0.428-1.036l-4.723-4.722c-0.276-0.276-0.644-0.428-1.036-0.428s-0.76 0.152-1.036 0.428l-1.199 1.199c-0.324 0.323-0.967 0.428-1.376 0.223-0.023-0.011-2.552-1.055-2.552-1.055-0.457-0.154-0.838-0.683-0.838-1.141v-1.697c-0.001-0.808-0.658-1.466-1.466-1.466h-6.679c-0.808 0-1.466 0.657-1.466 1.466v1.697c0 0.458-0.381 0.987-0.815 1.133-0.023 0.008-2.552 1.053-2.552 1.053-0.432 0.215-1.075 0.111-1.399-0.213l-1.199-1.199c-0.276-0.276-0.644-0.428-1.036-0.428s-0.76 0.152-1.036 0.428l-4.724 4.723c-0.571 0.571-0.571 1.501 0 2.072l1.2 1.2c0.323 0.323 0.428 0.966 0.223 1.376-0.011 0.023-1.055 2.552-1.055 2.552-0.154 0.457-0.683 0.837-1.141 0.837h-1.257c-0.808 0-1.905 0.657-1.905 1.465v6.678c0 0.808 0.657 1.465 1.466 1.465h1.697c0.458 0 0.987 0.381 1.133 0.815 0.008 0.023 1.053 2.551 1.053 2.551 0.215 0.432 0.111 1.075-0.213 1.399l-1.199 1.2c-0.571 0.571-0.571 1.501 0 2.072l4.723 4.723c0.276 0.276 0.644 0.428 1.036 0.428 0.393 0 0.761-0.152 1.036-0.428l1.2-1.199c0.324-0.323 0.966-0.428 1.376-0.223 0.023 0.01 2.552 1.055 2.552 1.055 0.456 0.154 0.837 0.683 0.837 1.141v1.696c0 0.808 0.657 1.466 1.466 1.466h6.678c0.808 0 1.465-0.657 1.465-1.466v-1.696c0-0.458 0.381-0.987 0.815-1.133 0.023-0.008 2.551-1.053 2.551-1.053 0.432-0.215 1.076-0.11 1.399 0.213l1.2 1.199c0.276 0.276 0.644 0.428 1.036 0.428s0.76-0.152 1.036-0.428l4.723-4.723c0.276-0.276 0.428-0.644 0.428-1.036s-0.152-0.76-0.428-1.036l-1.2-1.2c-0.324-0.323-0.428-0.967-0.223-1.375 0.011-0.023 1.055-2.552 1.055-2.552 0.154-0.457 0.683-0.838 1.141-0.838h1.696c0.808 0 1.466-0.657 1.466-1.465v-6.678c0.001-0.808-0.656-1.466-1.465-1.466zm-20.04 11.523c-3.73 0-6.765-3.03-6.765-6.753 0-3.724 3.034-6.753 6.765-6.753 3.73 0 6.764 3.03 6.764 6.753 0 3.724-3.034 6.753-6.764 6.753z" stroke="#888" stroke-linecap="round" fill="url(#C)"/>
 <path stroke="url(#B)" d="m24.01 9.916c-7.382 0-13.388 5.996-13.388 13.365 0 7.37 6.01 13.365 13.388 13.365 7.382 0 13.388-5.996 13.388-13.365 0-7.37-6.01-13.365-13.388-13.365zm0 23.19c-5.438 0-9.846-4.4-9.846-9.83s4.408-9.83 9.846-9.83c5.438 0 9.846 4.401 9.846 9.83s-4.408 9.83-9.846 9.83z" fill="url(#A)"/>
 <path stroke="url(#9)" d="m24.01 11.507c-6.358 0-11.512 5.146-11.512 11.493 0 6.348 5.154 11.493 11.512 11.493s11.512-5.146 11.512-11.493c0-6.348-5.154-11.493-11.512-11.493zm0 19.09c-4.205 0-7.613-3.403-7.613-7.6 0-4.198 3.408-7.6 7.613-7.6s7.613 3.402 7.613 7.6-3.408 7.6-7.613 7.6z" fill="url(#8)"/>
 <g fill-rule="evenodd">
  <path stroke-linejoin="round" d="m36.844 2.438c0.164-0.008 0.328 0.058 0.438 0.188 0.146 0.172 0.146 0.428 0.031 0.625l-3.063 5.469c-0.275 0.492-0.131 1.135 0.313 1.781 0.447 0.653 1.204 1.294 2.156 1.813 0.953 0.519 1.891 0.817 2.688 0.844 0.792 0.027 1.412-0.195 1.688-0.688l3.094-5.531c0.086-0.153 0.231-0.23 0.406-0.25s0.352 0.027 0.469 0.156c0.063 0.067 0.103 0.16 0.125 0.25 0.593 2.553 0.312 5.489-0.813 7.5-1.536 2.746-4.742 4.054-7.875 3.5-1.28 0.43-3.456 1.178-5.469 3.175l-4.15-4.419c1.814-1.801 2.663-3.444 3.15-4.663-0.423-1.685-0.234-3.471 0.656-5.063 1.125-2.01 3.468-3.79 5.969-4.656 0.054-0.02 0.133-0.029 0.188-0.031z" stroke-dashoffset=".361" stroke="url(#7)" stroke-linecap="round" fill="url(#6)"/>
  <path d="m36.841 2.935c-0.025 0.01-0.01 0.042 0 0.043l-3.067 5.489c-0.414 0.74-0.115 1.613 0.383 2.34 0.504 0.735 1.284 1.447 2.3 2 1.018 0.555 2.086 0.821 2.982 0.851 0.893 0.03 1.732-0.225 2.13-0.936l3.067-5.532c0.018-0.003 0.046 0.003 0.043 0-0.028-0.03-0.005 0.022 0 0.043 0.566 2.435 0.272 5.249-0.767 7.106-1.421 2.54-4.388 3.754-7.326 3.234-2.925-0.522-5.425-3.067-6.05-5.489-0.394-1.568-0.226-3.253 0.596-4.723 1.037-1.852 3.316-3.596 5.708-4.426" fill="url(#5)"/>
 </g>
 <path d="m35.31 4.469l-2.063 3.688c-0.581 1.039-0.159 2.175 0.406 3 0.572 0.834 1.407 1.561 2.5 2.156 1.098 0.598 2.235 0.934 3.25 0.969 1.016 0.034 2.142-0.274 2.688-1.25l2.125-3.844c0.091 1.795-0.117 3.601-0.813 4.844-1.282 2.292-3.985 3.416-6.688 2.938-0.198-0.039-0.403-0.004-0.594 0.063-1.465 0.492-3.293 1.497-5.406 3.594l-1 1-3.094-3.094 0.969-0.969c1.905-1.89 2.948-3.559 3.5-4.938 0.083-0.216 0.087-0.432 0.031-0.656-0.358-1.427-0.209-2.99 0.531-4.313 0.676-1.209 2.101-2.313 3.656-3.188z" stroke-dashoffset=".361" stroke="url(#4)" stroke-linecap="round" stroke-width=".7" fill="none"/>
 <path opacity=".08" d="m30.876 16.282c0.137 0.012 0.258 0.039 0.344 0.125l0.625 0.656c0.344 0.344 0.093 1.189-0.594 1.875l-2.125 2.094-1.875-1.906 2.094-2.094c0.515-0.515 1.12-0.785 1.531-0.75" fill-rule="evenodd"/>
 <path stroke-linejoin="round" d="m31.473 20.865l-21.271 22.696c-1.395 1.394-3.784 1.212-5.38-0.382s-1.778-3.981-0.383-5.376l22.711-21.257 4.322 4.319zm-22.329 17.995c-0.793-0.793-2.088-0.793-2.881 0s-0.793 2.087 0 2.879c0.793 0.793 2.088 0.793 2.881 0s0.793-2.087 0-2.879z" stroke-dashoffset=".7" stroke="url(#3)" stroke-linecap="round" fill="url(#2)"/>
 <path opacity=".231" d="m27.535 20.529c-0.555-0.554-1.57-0.432-2.276 0.274l-14.692 13.334c-0.706 0.705-0.161 2.386 0.394 2.94s2.238 1.1 2.944 0.394l13.355-14.67c0.706-0.705 0.828-1.719 0.274-2.272" fill="url(#1)"/>
</svg>
