<?xml version="1.0" encoding="UTF-8" standalone="no"?>
<svg xmlns:rdf="http://www.w3.org/1999/02/22-rdf-syntax-ns#" xmlns="http://www.w3.org/2000/svg" height="48" width="48" version="1.1" xmlns:cc="http://creativecommons.org/ns#" xmlns:dc="http://purl.org/dc/elements/1.1/">
 <title>Trash</title>
 <metadata>
  <rdf:RDF>
   <cc:Work>
    <dc:format>image/svg+xml</dc:format>
    <dc:type rdf:resource="http://purl.org/dc/dcmitype/StillImage"/>
    <dc:title>Trash</dc:title>
    <cc:license rdf:resource="https://www.gnu.org/licenses/old-licenses/gpl-2.0.en.html"/>
    <dc:creator>
     <cc:Agent>
      <dc:title>Canonical</dc:title>
     </cc:Agent>
    </dc:creator>
    <dc:source>http://packages.ubuntu.com/trusty/humanity-icon-theme</dc:source>
    <dc:description>Optimized from `/usr/share/icons/Humanity/places/48/user-trash.svg` in Ubuntu 14.04LTS&apos;s Humanity icon theme</dc:description>
   </cc:Work>
  </rdf:RDF>
 </metadata>
 <defs>
  <linearGradient id="c" y2="39.751" gradientUnits="userSpaceOnUse" x2="35.515" gradientTransform="matrix(.94757 0 0 1.1088 4.312-13.553)" y1="38.13" x1="4.885">
   <stop stop-color="#fff" stop-opacity=".155" offset="0"/>
   <stop stop-color="#b0b2b6" stop-opacity=".175" offset=".498"/>
   <stop stop-color="#5b5e62" stop-opacity=".33" offset=".838"/>
   <stop stop-color="#fff" stop-opacity=".155" offset="1"/>
  </linearGradient>
  <linearGradient id="b" gradientUnits="userSpaceOnUse" y1="1.419" x2="0" y2="45.663">
   <stop stop-color="#e6e7e7" offset="0"/>
   <stop stop-color="#676b73" offset="1"/>
  </linearGradient>
  <linearGradient id="d" spreadMethod="reflect" gradientUnits="userSpaceOnUse" gradientTransform="matrix(.4 0 0 .4 -5.1 -2.6)" x2="64" x1="32.627">
   <stop stop-color="#555" offset="0"/>
   <stop stop-color="#d3d7cf" stop-opacity="0" offset="1"/>
  </linearGradient>
  <radialGradient id="a" gradientUnits="userSpaceOnUse" cy="108.02" cx="62.712" gradientTransform="matrix(.34709 0 0 .09682 2.186 32.803)" r="47.38">
   <stop offset="0"/>
   <stop stop-opacity="0" offset="1"/>
  </radialGradient>
 </defs>
 <g fill-rule="evenodd">
  <path d="m40.4 43.262a16.446 4.588 0 0 1 -32.893 0 16.446 4.588 0 1 1 32.892 0" fill="url(#a)"/>
  <g stroke-linejoin="round" stroke-linecap="round">
   <path stroke="#888" stroke-width=".375" d="m37.335 42.094a13.766 3.22 0 1 1 -27.53 0 13.766 3.22 0 1 1 27.53 0z" fill="#ddd"/>
   <path stroke="url(#b)" stroke-width=".376" d="m6.544 8.36c-0.036-0.045 3.117 32.882 3.118 32.892 0.134 3.288 5.983 3.88 14.06 4.138 9.865-0.102 13.566-1.758 13.706-4.045 0.01-0.045 3.163-32.94 3.175-32.985 1.863-7.28-12.977-6.745-18.17-6.745-5.58 0-17.98-0.17-15.88 6.745z" fill="url(#c)"/>
  </g>
  <g stroke-linejoin="round" stroke-linecap="round">
   <path stroke="#666" stroke-width=".376" d="m7.742 7.544s12.588-3.906 31.07-0.575c7.05-5.26-16.62-5.64-16.62-5.64s-20.302 1.091-14.452 6.211z" fill="url(#d)"/>
   <path stroke="#888" stroke-width=".187" d="m36.52 3.037l0.057 0.014c0.083 0.03 0.163 0.05 0.245 0.07l0.058 0.02 0.144 0.04 0.043 0.02c0.01 0.01 0.02 0 0.03 0l0.07 0.03 0.088 0.03c0.02 0.01 0.037 0.01 0.058 0.02l0.144 0.05 0.043 0.02 0.115 0.05c0.014 0 0.03 0.01 0.043 0.01 0.092 0.03 0.185 0.07 0.274 0.1l0.072 0.03 0.072 0.03c0.056 0.02 0.12 0.05 0.173 0.07l0.05 0.03c0 0.01 0.01 0 0.01 0l0.08 0.05c0.01 0.01 0.03 0.01 0.04 0.01 0 0.01 0.01 0.01 0.01 0.02 0.05 0.03 0.11 0.05 0.16 0.07l0.04 0.03c0.01 0.01 0.04 0.02 0.05 0.03l0.03 0.01 0.03 0.02c0.01 0.01 0 0.01 0.01 0.02l0.03 0.01 0.03 0.02 0.01 0.02c0.02 0.01 0.05 0.02 0.07 0.04 0.01 0 0.02 0.01 0.03 0.01l0.03 0.03 0.04 0.03c0.04 0.03 0.1 0.06 0.14 0.1l0.01 0.02c0.04 0.03 0.09 0.06 0.13 0.09 0 0.01-0.01 0.01 0 0.02s0.03 0.02 0.04 0.03c0.01 0.01 0.01 0.02 0.01 0.03l0.03 0.03c0 0.01 0.01 0 0.01 0l0.01 0.02 0.03 0.03v0.01l0.01 0.01c0.04 0.05 0.08 0.09 0.11 0.14l0.03 0.03v0.02l0.01 0.01 0.03 0.05c0 0.01 0.01 0.01 0.01 0.01 0.01 0.01 0.01 0.03 0.02 0.04 0.01 0.03 0.02 0.06 0.03 0.1 0 0.02 0.01 0.05 0.01 0.07v0.01c0 0.01 0.01 0.02 0.01 0.03v0.1c0 0.01-0.02 0.02-0.02 0.03-0.01 0.01 0 0.02 0 0.03-0.01 0.05-0.03 0.09-0.05 0.14 0 0.01 0.01 0.01 0 0.01 0 0.02-0.01 0.02-0.01 0.03l-0.01 0.03-0.02 0.03-0.02 0.03-0.03 0.06h-0.02c-0.01 0.01 0 0.01 0 0.01l-0.07 0.1-0.02 0.02-0.01 0.03c-0.05 0.05-0.1 0.1-0.15 0.14l-0.02 0.02c-0.01 0.01-0.04 0.02-0.05 0.02-0.01 0.01-0.01 0.02-0.02 0.03-0.02 0.02-0.06 0.04-0.08 0.06l-0.014 0.01c-0.04 0.04-0.09 0.07-0.14 0.1l-0.03 0.03-0.07 0.04c-0.17 0.1-0.36 0.19-0.56 0.28-0.04 0.02-0.08 0.04-0.11 0.05-0.04 0.02-0.08 0.04-0.13 0.06l-0.11 0.04-0.07 0.03h-0.01c-0.036 0.01-0.06 0.03-0.1 0.04-0.06 0.02-0.125 0.05-0.19 0.07-0.1 0.04-0.21 0.07-0.316 0.1l-0.19 0.06c-0.05 0.02-0.1 0.05-0.14 0.06-0.076 0.02-0.143 0.03-0.22 0.06-0.03 0.01-0.08 0.02-0.11 0.02l-0.16 0.04c-0.03 0.01-0.08 0.02-0.11 0.03-0.055 0.02-0.1 0.03-0.16 0.04-0.06 0.02-0.124 0.03-0.186 0.04-0.186 0.05-0.36 0.09-0.55 0.13-0.06 0.02-0.127 0.03-0.19 0.04-0.09 0.02-0.2 0.04-0.3 0.06-0.045 0.01-0.09 0.04-0.14 0.05h-0.01c-0.19 0.04-0.38 0.06-0.57 0.1-0.06 0.01-0.12 0.03-0.19 0.04-0.12 0.02-0.25 0.03-0.37 0.054l-0.29 0.06c-0.19 0.03-0.39 0.05-0.58 0.08-0.06 0.01-0.12 0.02-0.19 0.03-0.13 0.02-0.26 0.02-0.39 0.04-0.07 0.004-0.13 0.02-0.19 0.024-0.07 0.01-0.15 0.02-0.22 0.027-0.11 0.02-0.23 0.03-0.34 0.04h-0.01c-0.52 0.06-1.05 0.11-1.58 0.15l-0.39 0.03c-0.46 0.04-0.927 0.07-1.39 0.1-0.126 0.01-0.26 0.01-0.39 0.015l-0.2 0.016c-0.127 0.01-0.26 0.01-0.39 0.017-0.527 0.02-1.047 0.04-1.574 0.055l-0.39 0.02c-0.264 0-0.524 0.01-0.79 0.01h-1.429c-0.137 0-0.28-0.01-0.42-0.01-0.14-0.004-0.29 0-0.43 0l-0.42-0.016h-0.013c-0.072 0-0.132 0.006-0.203 0l-0.433-0.01-0.42-0.015h-0.01l-0.42-0.014-0.63-0.03h-0.01c-0.56-0.03-1.13-0.07-1.69-0.11h-0.01c-0.42-0.03-0.84-0.07-1.25-0.11h-0.01c-0.28-0.025-0.56-0.05-0.84-0.08l-0.2-0.03c-0.1-0.01-0.21-0.014-0.32-0.03l-0.94-0.12c-0.1-0.014-0.21-0.04-0.31-0.055-0.14-0.03-0.26-0.04-0.4-0.06-0.07-0.01-0.13-0.03-0.2-0.04-0.04-0.01-0.07-0.01-0.11-0.02-0.03-0.01-0.06-0.01-0.1-0.02-0.07-0.01-0.13-0.03-0.2-0.04-0.03 0-0.06-0.01-0.1-0.01-0.07-0.01-0.13-0.03-0.2-0.04l-0.1-0.02c-0.07-0.01-0.13-0.03-0.2-0.04-0.27-0.05-0.54-0.11-0.81-0.17l-0.2-0.05-0.2-0.04-0.1-0.03c-0.09-0.02-0.18-0.04-0.27-0.07-0.04-0.01-0.08-0.03-0.13-0.04-0.09-0.02-0.18-0.04-0.27-0.07l-0.14-0.04c-0.04-0.01-0.08-0.026-0.13-0.04l-0.14-0.04-0.14-0.04c-0.07-0.02-0.13-0.05-0.2-0.07l-0.13-0.04-0.07-0.03c-0.04-0.016-0.08-0.025-0.13-0.04-0.08-0.035-0.17-0.08-0.26-0.11-0.15-0.06-0.29-0.128-0.43-0.197l-0.16-0.08s-0.01 0.01-0.01 0c-0.03-0.01-0.05-0.03-0.08-0.05l-0.081-0.132c-0.093-0.06-0.19-0.112-0.27-0.18-0.01-0.003-0.01-0.01-0.017-0.01l-0.026-0.03-0.02-0.01-0.18-0.15-0.015-0.015c-0.01-0.01-0.02-0.03-0.03-0.04 0-0.004-0.01 0-0.01 0-0.02-0.03-0.03-0.054-0.06-0.084 0 0-0.01 0-0.01-0.01-0.02-0.02-0.03-0.04-0.04-0.07l-0.02-0.01-0.06-0.08-0.01-0.03c-0.01-0.03-0.02-0.06-0.03-0.08l-0.01-0.03v-0.04l-0.02-0.03v-0.2c0-0.01 0.02-0.01 0.02-0.02v-0.06l0.02-0.03v-0.04l0.03-0.09c0-0.01 0.01-0.01 0.01-0.02l0.02-0.03 0.013-0.03 0.02-0.03v-0.01c0.01-0.01 0.02-0.03 0.03-0.04l0.03-0.04c0.01 0 0.01-0.02 0.02-0.03l0.013-0.01 0.016-0.01 0.03-0.04c0.005-0.01 0.02-0.01 0.03-0.01l0.03-0.03c0.01-0.01 0.01-0.02 0.02-0.03l0.03-0.03 0.014-0.01c0.01-0.01 0.03-0.03 0.042-0.04l0.01-0.01 0.053-0.04 0.03-0.01c0.03-0.02 0.046-0.05 0.07-0.07 0.026-0.01 0.05-0.03 0.076-0.04s0.05-0.03 0.07-0.04l0.04-0.03c0.08-0.05 0.15-0.11 0.24-0.15 0.07-0.04 0.15-0.06 0.22-0.1 0.05-0.03 0.1-0.06 0.16-0.08 0.04-0.01 0.08-0.02 0.11-0.04l0.081-0.061 0.116-0.04 0.06-0.03 0.12-0.04 0.11-0.043s0.07-0.03 0.11-0.04c0.04-0.01 0.08-0.03 0.12-0.04 0.02 0 0.04-0.01 0.06-0.01 0.04-0.01 0.076-0.03 0.114-0.04l0.175-0.055c0.02-0.005 0.04-0.007 0.06-0.013l0.19-0.06h0.01c0.08-0.02 0.164-0.05 0.244-0.07-2.989 0.361-4.789 0.931-4.789 1.941v3.49c0 2.133 8.01 3.866 17.873 3.866 9.867 0 17.872-1.734 17.872-3.867v-3.499c0-1.03-1.875-1.614-4.924-1.96z" fill="#fff"/>
  </g>
  <path d="m36.52 3.037l0.057 0.014c0.083 0.03 0.163 0.05 0.245 0.07l0.058 0.02 0.144 0.04 0.043 0.02c0.01 0.01 0.02 0 0.03 0l0.07 0.03 0.088 0.03c0.02 0.01 0.037 0.01 0.058 0.02l0.144 0.05 0.043 0.02 0.115 0.05c0.014 0 0.03 0.01 0.043 0.01 0.092 0.03 0.185 0.07 0.274 0.1l0.072 0.03 0.072 0.03c0.056 0.02 0.12 0.05 0.173 0.07l0.05 0.03c0 0.01 0.01 0 0.01 0l0.08 0.05c0.01 0.01 0.03 0.01 0.04 0.01 0 0.01 0.01 0.01 0.01 0.02 0.05 0.03 0.11 0.05 0.16 0.07l0.04 0.03c0.01 0.01 0.04 0.02 0.05 0.03l0.03 0.01 0.03 0.02c0.01 0.01 0 0.01 0.01 0.02l0.03 0.01 0.03 0.02 0.01 0.02c0.02 0.01 0.05 0.02 0.07 0.04 0.01 0 0.02 0.01 0.03 0.01l0.03 0.03 0.04 0.03c0.04 0.03 0.1 0.06 0.14 0.1l0.01 0.02c0.04 0.03 0.09 0.06 0.13 0.09 0 0.01-0.01 0.01 0 0.02s0.03 0.02 0.04 0.03c0.01 0.01 0.01 0.02 0.01 0.03l0.03 0.03c0 0.01 0.01 0 0.01 0l0.01 0.02 0.03 0.03v0.01l0.01 0.01c0.04 0.05 0.08 0.09 0.11 0.14l0.03 0.03v0.02l0.01 0.01 0.03 0.05c0 0.01 0.01 0.01 0.01 0.01 0.01 0.01 0.01 0.03 0.02 0.04 0.01 0.03 0.02 0.06 0.03 0.1 0 0.02 0.01 0.05 0.01 0.07v0.01c0 0.01 0.01 0.02 0.01 0.03v0.1c0 0.01-0.02 0.02-0.02 0.03-0.01 0.01 0 0.02 0 0.03-0.01 0.05-0.03 0.09-0.05 0.14 0 0.01 0.01 0.01 0 0.01 0 0.02-0.01 0.02-0.01 0.03l-0.01 0.03-0.02 0.03-0.02 0.03-0.03 0.06h-0.02c-0.01 0.01 0 0.01 0 0.01l-0.07 0.1-0.02 0.02-0.01 0.03c-0.05 0.05-0.1 0.1-0.15 0.14l-0.02 0.02c-0.01 0.01-0.04 0.02-0.05 0.02-0.01 0.01-0.01 0.02-0.02 0.03-0.02 0.02-0.06 0.04-0.08 0.06l-0.014 0.01c-0.04 0.04-0.09 0.07-0.14 0.1l-0.03 0.03-0.07 0.04c-0.17 0.1-0.36 0.19-0.56 0.28-0.04 0.02-0.08 0.04-0.11 0.05-0.04 0.02-0.08 0.04-0.13 0.06l-0.11 0.04-0.07 0.03h-0.01c-0.036 0.01-0.06 0.03-0.1 0.04-0.06 0.02-0.125 0.05-0.19 0.07-0.1 0.04-0.21 0.07-0.316 0.1l-0.19 0.06c-0.05 0.02-0.1 0.05-0.14 0.06-0.076 0.02-0.143 0.03-0.22 0.06-0.03 0.01-0.08 0.02-0.11 0.02l-0.16 0.04c-0.03 0.01-0.08 0.02-0.11 0.03-0.055 0.02-0.1 0.03-0.16 0.04-0.06 0.02-0.124 0.03-0.186 0.04-0.186 0.05-0.36 0.09-0.55 0.13-0.06 0.02-0.127 0.03-0.19 0.04-0.09 0.02-0.2 0.04-0.3 0.06-0.045 0.01-0.09 0.04-0.14 0.05h-0.01c-0.19 0.04-0.38 0.06-0.57 0.1-0.06 0.01-0.12 0.03-0.19 0.04-0.12 0.02-0.25 0.03-0.37 0.054l-0.29 0.06c-0.19 0.03-0.39 0.05-0.58 0.08-0.06 0.01-0.12 0.02-0.19 0.03-0.13 0.02-0.26 0.02-0.39 0.04-0.07 0.004-0.13 0.02-0.19 0.024-0.07 0.01-0.15 0.02-0.22 0.027-0.11 0.02-0.23 0.03-0.34 0.04h-0.01c-0.52 0.06-1.05 0.11-1.58 0.15l-0.39 0.03c-0.46 0.04-0.927 0.07-1.39 0.1-0.126 0.01-0.26 0.01-0.39 0.015l-0.2 0.016c-0.127 0.01-0.26 0.01-0.39 0.017-0.527 0.02-1.047 0.04-1.574 0.055l-0.39 0.02c-0.264 0-0.524 0.01-0.79 0.01h-1.429c-0.137 0-0.28-0.01-0.42-0.01-0.14-0.004-0.29 0-0.43 0l-0.42-0.016h-0.013c-0.072 0-0.132 0.006-0.203 0l-0.433-0.01-0.42-0.015h-0.01l-0.42-0.014-0.63-0.03h-0.01c-0.56-0.03-1.13-0.07-1.69-0.11h-0.01c-0.42-0.03-0.84-0.07-1.25-0.11h-0.01c-0.28-0.03-0.56-0.05-0.84-0.08l-0.2-0.03c-0.11-0.01-0.21-0.015-0.32-0.03-0.31-0.03-0.63-0.08-0.94-0.12-0.1-0.01-0.21-0.04-0.32-0.05-0.14-0.02-0.26-0.033-0.4-0.055-0.07-0.01-0.13-0.03-0.2-0.04-0.03-0.01-0.07-0.01-0.11-0.02-0.03-0.01-0.06-0.01-0.1-0.01l-0.2-0.047c-0.03-0.01-0.07-0.01-0.1-0.01-0.07-0.01-0.13-0.03-0.2-0.04-0.03-0.01-0.07-0.01-0.1-0.01-0.07-0.01-0.13-0.03-0.2-0.04-0.27-0.05-0.54-0.11-0.81-0.162l-0.2-0.043-0.2-0.04-0.1-0.03c-0.09-0.02-0.18-0.04-0.27-0.07-0.04-0.01-0.08-0.02-0.13-0.04-0.09-0.02-0.18-0.04-0.27-0.07l-0.14-0.04c-0.04-0.01-0.08-0.03-0.13-0.04l-0.151-0.067-0.15-0.043c-0.07-0.02-0.13-0.044-0.2-0.066l-0.13-0.04-0.07-0.03c-0.04-0.01-0.08-0.02-0.13-0.04-0.08-0.03-0.17-0.07-0.26-0.11-0.15-0.06-0.29-0.13-0.43-0.19l-0.16-0.08h-0.01c-0.03-0.02-0.04-0.04-0.07-0.06l-0.05-0.141c-0.098-0.06-0.19-0.12-0.27-0.18l-0.02-0.02c-0.01-0.01-0.015-0.02-0.025-0.03l-0.01-0.01c-0.06-0.05-0.12-0.1-0.17-0.152-0.01-0.004-0.01-0.005-0.01-0.012-0.01-0.01-0.018-0.03-0.028-0.04-0.003 0-0.013 0.01-0.015 0-0.027-0.03-0.036-0.05-0.06-0.08-0.01 0-0.01 0-0.017-0.01-0.02-0.02-0.028-0.043-0.044-0.07 0-0.004-0.01-0.004-0.01-0.01l-0.06-0.084-0.01-0.026c-0.01-0.026-0.01-0.057-0.03-0.08 0-0.01-0.01-0.018-0.01-0.03v-0.066l-0.01-0.03v-0.16c0-0.01 0.02-0.017 0.02-0.027v-0.057l0.02-0.023v-0.033l0.03-0.09c0-0.01 0.01-0.01 0.01-0.02l0.02-0.03 0.02-0.03 0.01-0.03v-0.02c0.01-0.01 0.02-0.03 0.03-0.04 0.01-0.02 0.02-0.03 0.03-0.04l0.01-0.03 0.02-0.01 0.02-0.02c0.01-0.01 0.02-0.03 0.03-0.04s0.02-0.01 0.03-0.02l0.03-0.03c0.01 0 0.01-0.02 0.02-0.03l0.03-0.02 0.01-0.02 0.05-0.05 0.01-0.02 0.05-0.04s0.02-0.01 0.03-0.01c0.02-0.02 0.04-0.05 0.07-0.07 0.02-0.017 0.05-0.03 0.07-0.044s0.05-0.026 0.07-0.04l0.04-0.025c0.08-0.05 0.16-0.1 0.25-0.15 0.07-0.04 0.14-0.06 0.22-0.1 0.05-0.02 0.1-0.06 0.16-0.08 0.04-0.02 0.08-0.03 0.11-0.04l0.039-0.031c0.04-0.02 0.08-0.03 0.12-0.04l0.06-0.03 0.117-0.04 0.114-0.04 0.11-0.04c0.04-0.02 0.07-0.03 0.11-0.04 0.02-0.01 0.04-0.01 0.06-0.02 0.04-0.01 0.08-0.03 0.12-0.04l0.17-0.06 0.06-0.01 0.19-0.06h0.02l0.25-0.07c-3 0.37-4.8 0.94-4.8 1.95v3.49c0 2.135 8.01 3.868 17.88 3.868s17.879-1.734 17.879-3.868v-3.5c0-1.032-1.873-1.615-4.922-1.962z" fill="url(#d)"/>
  <path stroke-linejoin="round" d="m23.04 1.145c-0.584 0.003-1.166 0.016-1.747 0.028-4.35 0.155-8.815 0.503-12.777 1.753-1.315 0.45-2.994 1.176-2.8 2.28 0.416 1.194 2.364 1.77 3.924 2.228 4.705 1.192 9.846 1.455 14.856 1.433 4.63-0.085 9.377-0.39 13.657-1.614 1.408-0.452 3.19-1.094 3.292-2.24 0-0.134-0.027-0.276-0.087-0.403-0.685-1.158-2.63-1.684-4.273-2.13-4.483-1.056-9.296-1.36-14.05-1.336zm-0.852 0.612c4.596-0.06 9.283 0.164 13.628 1.1 1.487 0.368 3.25 0.808 3.87 1.766 0.054 0.106 0.086 0.21 0.086 0.32-0.093 0.948-1.713 1.476-2.988 1.85-3.877 1.012-8.18 1.28-12.373 1.35-4.53 0.017-9.19-0.21-13.45-1.197-1.41-0.377-3.17-0.85-3.55-1.836-0.18-0.914 1.33-1.52 2.52-1.892 3.59-1.034 7.64-1.32 11.58-1.447 0.23 0 0.45-0.01 0.68-0.01z" stroke="#bbb" stroke-linecap="round" stroke-width=".187" fill="#ddd"/>
 </g>
</svg>
