<?xml version="1.0" encoding="UTF-8" standalone="no"?>
<svg xmlns:rdf="http://www.w3.org/1999/02/22-rdf-syntax-ns#" xmlns="http://www.w3.org/2000/svg" height="600" width="600" version="1.1" xmlns:cc="http://creativecommons.org/ns#" xmlns:dc="http://purl.org/dc/elements/1.1/" viewBox="0 0 600.00005 600.00001">
 <title>Ubuntu Logo Trusty Tahr</title>
 <metadata>
  <rdf:RDF>
   <cc:Work rdf:about="">
    <dc:format>image/svg+xml</dc:format>
    <dc:type rdf:resource="http://purl.org/dc/dcmitype/StillImage"/>
    <dc:title>Ubuntu Logo Trusty Tahr</dc:title>
    <dc:creator>
     <cc:Agent>
      <dc:title>HEXcube</dc:title>
     </cc:Agent>
    </dc:creator>
    <dc:source>https://wiki.ubuntu.com/Artwork/Official#Animal_SVGs</dc:source>
    <cc:license rdf:resource="https://creativecommons.org/licenses/by/4.0/"/>
    <dc:description>Derived from Tahr Orange logo. Part of Unity Dash Button logos: https://deviantart.com/HEXcube/art/Unity-Dash-Button-logos-Ubuntu-14-04-and-12-04LTS-468721437</dc:description>
   </cc:Work>
   <cc:License rdf:about="https://creativecommons.org/licenses/by/4.0/">
    <cc:permits rdf:resource="https://creativecommons.org/ns#Reproduction"/>
    <cc:permits rdf:resource="https://creativecommons.org/ns#Distribution"/>
    <cc:requires rdf:resource="https://creativecommons.org/ns#Notice"/>
    <cc:requires rdf:resource="https://creativecommons.org/ns#Attribution"/>
    <cc:permits rdf:resource="https://creativecommons.org/ns#DerivativeWorks"/>
   </cc:License>
  </rdf:RDF>
 </metadata>
 <g transform="translate(0 -452.36)">
  <rect rx="108" ry="108" height="584" width="584" y="460.36" x="8" fill="#dd4814"/>
  <g transform="translate(-125.19 327.17)" fill="#fff">
   <path d="m315.54 278.75c-4.13-2.521-41.348-1.933-42.175 0.002-0.829 1.935 27.245 15.443 33.739 16.859 6.495 1.417 16.872 0 16.872 0s-4.306-14.338-8.436-16.861z"/>
   <path d="m605.43 229.76c-8.876 21.763-28.668 19.759-31.295 19.226 5.475-2.116 17.648-9.822 15.604-29.702-7.513-4.02-13.868-6.122-17.596-7.138-23.753-2.885-48.019 10.348-69.549 58.86 3.269 3.832 5.223 6.683 5.549 7.745 1.554 5.059 1.406 16.862 1.406 16.862s5.526-28.455 16.871-33.721c13.227-6.14 42.135-4.506 50.61 0.002 8.475 4.507 16.745 13.318 16.871 16.859 0.122 3.542-40.951 30.975-50.611 33.719-9.661 2.743-33.741 0-33.741 0h-0.001s-15.042 28.688-16.868 33.719c-1.684 4.635-14.587 72.292-16.604 82.901-7.593-4.034-30.877-15.466-50.878-15.466-20.002 0-43.284 11.433-50.876 15.466-2.019-10.61-14.922-78.266-16.605-82.901-1.827-5.031-16.87-33.719-16.87-33.719h-0.001s-24.079 2.743-33.74 0c-9.66-2.744-50.734-30.177-50.61-33.719 0.124-3.541 8.396-12.353 16.871-16.859 8.474-4.508 37.383-6.142 50.61-0.002 11.344 5.266 16.869 33.721 16.869 33.721s-0.146-11.804 1.407-16.862c0.325-1.062 2.279-3.913 5.547-7.745-21.526-48.51-45.791-61.743-69.544-58.861-3.726 1.015-10.084 3.117-17.599 7.139-2.044 19.88 10.129 27.586 15.605 29.702-2.627 0.533-22.42 2.537-31.294-19.226-27.421 22.397-56.982 70.982-37.332 174.64l6.683-24.49-2.706 43.294c0.914 3.934 1.897 7.946 2.947 12.026l8.195-30.033-3.048 48.74c0.978 3.341 2.002 6.73 3.069 10.163l8.415-42.043-3.568 57.044c1.148 3.423 2.333 6.883 3.567 10.395l8.436-42.148v64.847c1.554 3.963 3.123 7.846 4.705 11.652l3.731-59.641 3.3 75.875c3.299 7.307 6.646 14.299 10.029 20.994l3.54-88.439 4.512 103.71c2.644 4.797 5.303 9.418 7.975 13.879l4.384-100.73 5.551 116.49c2.045 3.082 4.093 6.076 6.143 8.979l5.176-108.61 6.545 124.26c1.463 1.84 2.925 3.639 4.384 5.395l5.941-112.8 7.53 127.94c1.039 1.088 2.075 2.15 3.109 3.199l6.23-105.84 7.95 119.17c1.172 1.018 2.34 2.01 3.501 2.98l5.419-113.72 6.478 122.99c1.557 1.129 3.101 2.215 4.63 3.26l5.762-109.39 6.908 117.35c1.322 0.76 2.628 1.484 3.917 2.182l6.045-102.68 7.282 109.12c1.134 0.484 2.248 0.943 3.343 1.379l6.248-93.645 7.565 98.289c1.138 0.307 2.238 0.586 3.297 0.838l6.008-78.051 6.674 80.031c0.641 0.033 1.23 0.049 1.762 0.049s1.12-0.016 1.761-0.049l6.674-80.031 6.009 78.051c1.058-0.252 2.159-0.531 3.296-0.838l7.566-98.289 6.246 93.645c1.096-0.436 2.21-0.895 3.343-1.379l7.279-109.12 6.044 102.68c1.292-0.697 2.598-1.422 3.919-2.182l6.908-117.35 5.761 109.39c1.53-1.045 3.075-2.131 4.632-3.26l6.478-122.99 5.42 113.72c1.161-0.971 2.328-1.963 3.5-2.98l7.95-119.17 6.23 105.84c1.034-1.049 2.071-2.111 3.11-3.199l7.53-127.94 5.94 112.8c1.461-1.756 2.922-3.555 4.384-5.395l6.545-124.26 5.176 108.61c2.052-2.902 4.099-5.896 6.144-8.979l5.551-116.49 4.384 100.73c2.672-4.459 5.332-9.082 7.975-13.879l4.512-103.71 3.541 88.439c3.383-6.695 6.729-13.688 10.027-20.992l3.303-75.877 3.729 59.641c1.582-3.805 3.149-7.689 4.706-11.65v-64.849l8.435 42.149v-0.001c1.235-3.511 2.419-6.971 3.567-10.394l-3.567-57.045 8.413 42.044c1.068-3.433 2.092-6.822 3.069-10.164l-3.049-48.74 8.197 30.034c1.049-4.08 2.034-8.092 2.947-12.026l-2.708-43.296 6.684 24.49c19.64-103.64-9.92-152.23-37.34-174.62zm-214.69 233.72c-15.92-7.086-1.074-16.645 1.034-16.19 4.079 0.878 22.646 13.256 24.983 16.913 2.338 3.658 1.487 8.173-0.351 8.982-2.481 1.096-18.184-6.375-25.666-9.705zm51.725 26.589c-0.42 0.291-10.36 5.746-17.272 5.746-6.911 0-16.853-5.453-17.272-5.744-0.253-0.177-0.362-0.496-0.269-0.787 0.091-0.295 0.363-0.494 0.67-0.494l33.741-0.002c0.306 0 0.578 0.199 0.67 0.494 0.093 0.291-0.016 0.61-0.268 0.787zm17.179-26.589c-7.482 3.33-23.187 10.801-25.666 9.705-1.84-0.81-2.69-5.324-0.352-8.982 2.338-3.657 20.903-16.035 24.983-16.913 2.109-0.454 16.953 9.104 1.035 16.19z"/>
   <path d="m543.29 295.61c6.494-1.416 34.565-14.925 33.738-16.859-0.828-1.935-38.045-2.523-42.175-0.002-4.131 2.522-8.436 16.861-8.436 16.861s10.376 1.417 16.873 0z"/>
   <path d="m404.62 223.55c5.073-2.383 11.35-4.224 18.819-4.477-36.43-69.78-157.21-125.38-181.4-14.07 23.775-82.846 125.53-56.68 162.58 18.558z"/>
   <path d="m608.35 205c-24.19-111.31-144.97-55.71-181.4 14.08 7.471 0.253 13.745 2.094 18.819 4.478 37.059-75.24 138.81-101.41 162.58-18.559z"/>
   <path d="m374.59 295.61c-3.828-2.485-25.305 8.431-25.305 8.431s11.187 15.887 16.869 16.86 16.054-4.982 16.872-8.43-4.608-14.375-8.436-16.861z"/>
   <path d="m467.37 312.47c0.817 3.447 11.189 9.402 16.872 8.43 5.682-0.974 16.869-16.86 16.869-16.86s-21.479-10.916-25.306-8.431-9.253 13.414-8.435 16.861z"/>
  </g>
 </g>
</svg>
